<svg width="64" height="64" viewBox="0 0 64 64" fill="none" xmlns="http://www.w3.org/2000/svg">
<path d="M46.8457 20.7666C51.0909 20.7666 55.3091 20.7666 59.5543 20.7666C59.5543 21.9969 59.6354 23.2271 59.5273 24.4304C59.4597 25.2957 58.5809 26.0123 57.6886 26.0123C54.7142 26.0393 51.7399 26.0393 48.7655 26.0123C47.8056 25.9987 46.9269 25.2281 46.8593 24.2682C46.7781 23.119 46.8457 21.9563 46.8457 20.7666Z" fill="#5EB3E4"/>
<path d="M6.3409 20.7529C10.6131 20.7529 14.8178 20.7529 19.063 20.7529C19.063 21.9427 19.1306 23.1053 19.0495 24.2545C18.9819 25.255 18.1031 25.9986 17.0891 26.0121C14.1688 26.0392 11.2621 26.0392 8.34183 26.0121C7.32785 25.9986 6.42202 25.2279 6.36794 24.268C6.28682 23.1324 6.3409 21.9697 6.3409 20.7529Z" fill="#5EB3E4"/>
<path d="M32.8934 12.1676C30.5004 12.1406 28.6618 10.2208 28.7023 7.8143C28.7429 5.48891 30.7032 3.62318 33.0557 3.66373C35.4216 3.70429 37.2468 5.65115 37.2062 8.07118C37.1657 10.356 35.2323 12.1947 32.8934 12.1676Z" fill="#5EB3E4"/>
<path d="M12.6952 9.91016C14.5339 12.8304 16.3185 15.6425 18.1571 18.5358C14.5068 18.5358 10.9376 18.5358 7.2467 18.5358C9.05835 15.656 10.843 12.8439 12.6952 9.91016Z" fill="#5EB3E4"/>
<path d="M47.7653 18.5358C49.6039 15.6425 51.375 12.8169 53.2137 9.91016C55.0524 12.8169 56.837 15.629 58.6757 18.5358C54.9848 18.5358 51.4156 18.5358 47.7653 18.5358Z" fill="#5EB3E4"/>
<path d="M31.1495 0C31.7308 0 32.3122 0 32.8935 0C33.0287 0.0405592 33.1639 0.0946876 33.2991 0.135247C35.8003 0.743635 37.4632 2.24428 38.1662 4.73191C38.3014 5.23214 38.5042 5.36738 39.0044 5.36738C46.7918 5.35386 54.5792 5.35384 62.3665 5.35384C62.6099 5.35384 62.8668 5.34035 63.1101 5.38091C63.6239 5.46203 63.9213 5.78649 63.9889 6.30024C64.0565 6.81399 63.8131 7.20605 63.3264 7.3818C63.0831 7.47644 62.7992 7.48998 62.5288 7.48998C60.0141 7.5035 57.4859 7.48998 54.9712 7.48998C54.7549 7.48998 54.5386 7.50345 54.2817 7.51697C54.3493 7.66568 54.3764 7.73331 54.4169 7.80091C56.4449 11.0051 58.4728 14.1957 60.4873 17.3999C60.636 17.6297 60.7712 17.9272 60.7712 18.1976C60.7983 19.6983 60.8253 21.199 60.7577 22.6997C60.663 24.8223 58.919 26.5933 56.8099 26.6339C53.795 26.688 50.7666 26.7015 47.7517 26.6339C45.548 26.5933 43.8039 24.7412 43.7499 22.5375C43.7228 21.1179 43.7363 19.7118 43.7499 18.2922C43.7499 18.0354 43.8175 17.7379 43.9527 17.5216C45.9265 14.385 47.9139 11.262 49.9013 8.1389C50.023 7.94963 50.1312 7.76032 50.2664 7.51697C46.2375 7.51697 42.2762 7.51697 38.3014 7.51697C38.0175 8.86894 37.4226 10.0046 36.4762 10.978C36.3411 11.1132 36.2734 11.3836 36.2734 11.5864C36.2599 16.9538 36.2734 22.3347 36.2599 27.702C36.2599 28.04 36.3681 28.2157 36.679 28.3645C38.8828 29.446 41.0594 30.5681 43.2767 31.6362C43.7093 31.839 44.2231 31.9742 44.6963 31.9742C48.4818 32.0012 52.2808 31.9877 56.0663 31.9877C56.2015 31.9877 56.3502 31.9742 56.4719 31.9607C56.9451 30.2707 57.4859 29.8651 59.2435 29.8651C60.1223 29.8651 60.9875 29.8516 61.8663 29.8651C63.0696 29.8922 63.9889 30.7574 63.9889 31.9471C64.0024 36.5844 64.0024 41.2353 63.9889 45.8725C63.9889 47.0352 63.0831 47.9275 61.9339 47.9681C60.8253 47.9951 59.7302 47.9951 58.6216 47.9681C57.6481 47.941 56.8775 47.3191 56.6206 46.3862C56.5801 46.2375 56.526 46.0753 56.4314 45.7779C54.9172 46.0753 53.4165 46.3592 51.8887 46.6566C52.754 49.2118 51.9969 50.9424 49.7391 52.0375C50.5503 54.3899 49.1037 57.0939 45.9941 57.1479C45.7237 59.4057 44.4123 60.6225 42.168 60.8253C42.0599 61.6906 41.7354 62.3936 41.127 62.9614C39.9643 64.0295 38.3555 64.0971 37.0035 63.1372C35.9895 62.4206 34.9891 61.677 33.9616 60.9199C33.6101 61.4877 33.3126 62.0151 32.9746 62.5153C32.0283 63.9078 30.2977 64.354 28.8511 63.5969C27.9859 63.1507 27.4721 62.4206 27.1882 61.5148C24.9709 61.7446 23.5514 60.7577 22.8078 58.7163C22.632 58.7298 22.4969 58.7433 22.3481 58.7568C20.6717 58.9461 19.1169 58.0673 18.495 56.499C18.3057 56.0258 18.0894 55.9447 17.6297 55.9853C15.764 56.1475 14.1552 54.9172 13.7361 53.092C13.4657 51.9699 13.7901 50.9694 14.385 49.9825C12.2624 48.5629 9.9911 47.603 7.51699 47.1433C6.98972 48.6034 6.40837 49.0226 4.89416 49.0361C4.20465 49.0361 3.51514 48.9955 2.83915 49.0496C1.54126 49.1443 0.581354 48.6846 0.0270452 47.4678C0.0270452 42.4655 0.0270452 37.4767 0.0270452 32.4744C0.459677 31.5821 1.06807 30.9197 2.14965 30.9062C3.23123 30.8927 4.3128 30.8791 5.39438 30.9196C6.47596 30.9602 7.16546 31.555 7.43585 32.6096C7.47641 32.7448 7.51698 32.88 7.57106 33.0422C9.77477 33.0422 11.9515 33.0152 14.1416 33.0558C15.1151 33.0693 15.8857 32.7853 16.6563 32.1905C19.2251 30.2031 22.0777 28.8782 25.3901 28.7836C26.1472 28.7565 26.9178 28.7836 27.7425 28.7836C27.7425 28.5402 27.7425 28.2968 27.7425 28.0534C27.7425 22.7807 27.729 17.5216 27.756 12.2489C27.756 11.5458 27.5667 11.0457 27.1341 10.4643C26.4716 9.58556 26.039 8.54447 25.4712 7.51697C21.6857 7.51697 17.7379 7.51697 13.7361 7.51697C13.8037 7.63865 13.8307 7.71978 13.8713 7.78738C15.8857 10.9645 17.9001 14.1416 19.901 17.3323C20.0903 17.6297 20.2255 18.0083 20.239 18.3598C20.2796 19.6442 20.2661 20.9421 20.2526 22.2264C20.2255 24.8358 18.468 26.6204 15.8587 26.6339C13.0871 26.6609 10.3156 26.6474 7.55755 26.6339C5.01584 26.6068 3.25826 24.8493 3.2177 22.2941C3.20418 20.9827 3.20418 19.6712 3.2177 18.3598C3.2177 18.0624 3.2853 17.7244 3.44754 17.4811C5.44846 14.2904 7.47642 11.1132 9.49086 7.93608C9.57198 7.80088 9.62605 7.66571 9.72069 7.46292C6.93563 7.46292 4.23168 7.44941 1.52774 7.47645C0.865269 7.47645 0.351513 7.31423 0 6.73288C0 6.48953 0 6.23267 0 5.98931C0.378552 5.435 0.905834 5.31326 1.55478 5.32678C9.31511 5.3403 17.0619 5.3268 24.8222 5.35384C25.4306 5.35384 25.701 5.23217 25.8768 4.59674C26.4311 2.5823 27.756 1.21679 29.6893 0.432641C30.1896 0.243365 30.6763 0.135197 31.1495 0ZM22.8078 47.4543C25.3901 46.4133 27.9723 47.8599 28.2833 50.7531C28.4861 50.7666 28.6889 50.7937 28.8917 50.8072C30.4464 50.9694 31.7579 52.024 32.0959 53.5382C32.2175 54.0925 32.4474 54.2412 32.9611 54.3358C34.3942 54.5792 35.4893 55.823 35.5163 57.2426C35.5299 57.851 35.3406 58.4593 35.2324 59.1624C36.1788 59.8519 37.2063 60.6225 38.2473 61.3796C38.8422 61.8122 39.4641 61.7582 39.8427 61.2444C40.2347 60.7307 40.086 60.0953 39.4641 59.6356C38.9774 59.2706 38.4772 58.9325 37.9905 58.581C37.355 58.1078 37.1928 57.4994 37.5443 56.9722C37.9229 56.4179 38.5583 56.3638 39.2343 56.8505C39.9508 57.3508 40.6403 57.8916 41.3704 58.3647C42.3979 59.0272 43.6823 58.4459 43.8445 57.2696C43.9391 56.5801 43.6282 56.0664 43.0739 55.6743C41.9382 54.8631 40.8161 54.0384 39.6939 53.2002C39.0855 52.754 38.9639 52.1456 39.3289 51.6319C39.6939 51.1046 40.3429 51.0505 40.9783 51.4967C41.3028 51.7265 41.6137 51.9699 41.9382 52.1997C43.0604 53.0245 44.1825 53.8627 45.3181 54.6603C46.0617 55.1876 46.9676 55.0389 47.5084 54.3764C48.0491 53.7004 47.9815 52.8216 47.3191 52.1862C47.0757 51.9564 46.8053 51.7671 46.5484 51.5778C45.4128 50.7396 44.2501 49.9284 43.128 49.0767C42.6412 48.7117 42.5872 48.0897 42.9116 47.6301C43.2496 47.1704 43.831 47.0622 44.3583 47.3597C44.5205 47.4543 44.6692 47.576 44.8179 47.6841C45.7643 48.3736 46.6972 49.0767 47.6435 49.7391C48.3195 50.2123 49.1848 50.1042 49.6985 49.5634C50.2393 48.9956 50.3204 48.1167 49.8337 47.5084C49.6445 47.265 49.3876 47.0757 49.1307 46.9C45.4669 44.3447 41.7895 41.7895 38.1257 39.2343C36.8548 38.342 35.5704 37.4632 34.286 36.5574C34.0968 36.7196 33.9345 36.8549 33.7858 36.99C32.1634 38.4907 30.5546 39.9914 28.9322 41.4921C27.2964 43.0063 24.9845 42.9928 23.4973 41.4786C22.0372 39.9779 22.0777 37.7201 23.619 36.0977C25.0521 34.5835 26.4852 33.0828 27.9183 31.5686C28.0535 31.4199 28.1751 31.2712 28.3103 31.1224C28.2427 31.0684 28.2157 31.0278 28.1751 31.0278C24.3355 30.6087 20.861 31.5145 17.8596 33.9751C16.8456 34.8133 15.7235 35.219 14.4256 35.2054C12.3706 35.1784 10.302 35.1919 8.24704 35.2054C8.03073 35.2054 7.80089 35.2189 7.57106 35.2324C7.57106 38.5042 7.57106 41.7219 7.57106 44.9666C10.4372 45.521 13.0736 46.589 15.5612 48.1843C16.3183 46.6701 17.2647 45.4398 19.0358 45.2911C20.7528 45.1289 21.9966 45.9536 22.8078 47.4543ZM56.499 34.1103C56.2286 34.1103 56.0123 34.1103 55.7824 34.1103C52.0915 34.1103 48.4142 34.0968 44.7233 34.1239C43.8175 34.1239 43.0063 33.9346 42.2086 33.5155C40.086 32.4204 37.9499 31.3388 35.8003 30.2842C34.2996 29.5406 32.5961 29.7569 31.4604 30.9196C29.2837 33.1504 27.1341 35.4217 25.0115 37.7201C24.7141 38.0446 24.5789 38.6259 24.5789 39.0856C24.5789 39.7345 25.0115 40.2077 25.6469 40.4105C26.2959 40.6268 26.8772 40.4646 27.3775 40.0049C29.0674 38.4366 30.7574 36.8548 32.4609 35.2865C33.6236 34.205 34.4888 34.1374 35.8003 35.0432C40.1671 38.0851 44.5611 41.1 48.9009 44.196C49.8608 44.872 50.699 45.3182 51.7806 44.5881C51.8617 44.5341 51.9699 44.507 52.078 44.4799C53.5381 44.1825 54.9983 43.8851 56.499 43.5877C56.499 40.5322 56.499 37.3686 56.499 34.1103ZM29.9192 29.2027C30.6628 28.8106 31.2711 28.3914 31.9471 28.1481C32.6366 27.8912 33.3802 27.7831 34.1103 27.6209C34.1103 22.6051 34.1103 17.5486 34.1103 12.4517C32.6907 12.9114 31.3252 12.8708 29.9192 12.4652C29.9192 18.0083 29.9192 23.4973 29.9192 29.2027ZM45.913 19.2386C45.913 20.4284 45.8454 21.591 45.9265 22.7537C45.9941 23.7136 46.8729 24.4842 47.8328 24.4977C50.8072 24.5248 53.7815 24.5248 56.7558 24.4977C57.6482 24.4842 58.5269 23.7812 58.5945 22.916C58.6892 21.7127 58.6216 20.4825 58.6216 19.2522C54.3764 19.2386 50.1582 19.2386 45.913 19.2386ZM5.40789 19.2251C5.40789 20.4419 5.35383 21.6046 5.42143 22.7537C5.48902 23.7136 6.39483 24.4842 7.3953 24.4977C10.3156 24.5248 13.2223 24.5248 16.1426 24.4977C17.1565 24.4842 18.0353 23.7271 18.1029 22.7402C18.1841 21.591 18.1165 20.4284 18.1165 19.2386C13.8848 19.2251 9.68013 19.2251 5.40789 19.2251ZM31.9607 10.64C34.2996 10.6671 36.2464 8.82841 36.2734 6.53005C36.314 4.11002 34.4753 2.16317 32.1229 2.12261C29.7705 2.08205 27.8101 3.94778 27.7695 6.27318C27.729 8.69321 29.5677 10.613 31.9607 10.64ZM11.7622 8.39578C9.90998 11.3296 8.12538 14.1417 6.31373 17.0214C10.0046 17.0214 13.5738 17.0214 17.2241 17.0214C15.3855 14.1146 13.6009 11.3025 11.7622 8.39578ZM46.8324 17.0078C50.4827 17.0078 54.0519 17.0078 57.7428 17.0078C55.9041 14.1146 54.133 11.3025 52.2808 8.38225C50.4421 11.289 48.6575 14.1146 46.8324 17.0078ZM58.7162 32.0148C58.7162 36.625 58.7162 41.2081 58.7162 45.8049C59.7843 45.8049 60.8118 45.8049 61.8393 45.8049C61.8393 41.1811 61.8393 36.598 61.8393 32.0148C60.7712 32.0148 59.7572 32.0148 58.7162 32.0148ZM2.21726 33.0964C2.21726 37.7201 2.21726 42.2898 2.21726 46.8594C3.28531 46.8594 4.28577 46.8594 5.34031 46.8594C5.34031 42.2492 5.34031 37.6931 5.34031 33.0964C4.28577 33.0964 3.28531 33.0964 2.21726 33.0964ZM22.0642 56.7829C22.4428 56.5395 22.97 56.3638 23.1999 56.0258C24.1733 54.5521 25.0791 53.0379 25.9579 51.4967C26.3635 50.7666 26.0255 49.8608 25.2954 49.4552C24.5789 49.0496 23.7001 49.1983 23.254 49.9014C22.3211 51.375 21.4018 52.8622 20.55 54.3899C19.9551 55.431 20.7798 56.6747 22.0642 56.7829ZM17.454 54.0113C17.8461 53.768 18.3733 53.6193 18.6032 53.2813C19.4143 52.1051 20.1444 50.8612 20.8474 49.6174C21.2395 48.9144 20.9015 48.0221 20.212 47.6165C19.536 47.2109 18.6302 47.3191 18.1976 47.9681C17.3999 49.1848 16.6158 50.4151 15.9533 51.6995C15.4125 52.7135 16.2372 53.8761 17.454 54.0113ZM24.9169 57.6346C24.9034 58.4728 25.363 59.1353 25.9985 59.3381C26.715 59.568 27.4586 59.3246 27.8912 58.6351C28.5402 57.5941 29.1756 56.5531 29.7975 55.4986C30.3383 54.5927 30.149 53.6463 29.3513 53.1596C28.5672 52.6729 27.6208 52.9568 27.0665 53.8491C26.4446 54.8496 25.8362 55.8636 25.2278 56.8911C25.0521 57.1614 24.971 57.4859 24.9169 57.6346ZM33.5154 57.2966C33.2315 57.0127 32.9882 56.6477 32.6367 56.4719C32.1499 56.2286 31.6903 56.472 31.4199 56.9181C30.7709 57.9591 30.149 59.0137 29.5136 60.0547C29.108 60.7442 29.2161 61.3526 29.7705 61.6905C30.3248 62.0285 30.9196 61.8393 31.3387 61.1498C31.9471 60.1629 32.542 59.1624 33.1369 58.1619C33.2721 57.9591 33.3532 57.6887 33.5154 57.2966Z" fill="#004A98"/>
</svg>
