<svg width="64" height="65" viewBox="0 0 64 65" fill="none" xmlns="http://www.w3.org/2000/svg">
<path d="M31.3731 0.0263672C30.1565 0.382741 29.1365 0.972614 28.5098 2.15233C27.4653 4.1554 28.3009 6.61315 30.39 7.57167C32.393 8.49333 34.8631 7.48564 35.6496 5.40884C36.4729 3.2706 35.3546 0.923436 33.1918 0.247555C32.9952 0.186112 32.8109 0.1124 32.6142 0.0386679C32.2087 0.0263792 31.7909 0.0263672 31.3731 0.0263672ZM32.0121 6.02328C30.8815 6.02328 29.9476 5.10164 29.9476 3.97108C29.9476 2.84052 30.8815 1.90654 31.9998 1.90654C33.1304 1.90654 34.0643 2.8405 34.0643 3.95878C34.0643 5.08934 33.1426 6.02328 32.0121 6.02328Z" fill="#5EB3E4"/>
<path d="M0.000139713 32.6404C0.356514 33.857 0.946368 34.8892 2.12609 35.5037C4.11686 36.5482 6.5869 35.7003 7.54542 33.6235C8.46708 31.6204 7.47169 29.1627 5.3949 28.3639C3.26894 27.5406 0.909507 28.6711 0.221338 30.8217C0.159894 31.0183 0.0861635 31.2026 0.0124311 31.3992C0.000142574 31.8048 0.000139713 32.2226 0.000139713 32.6404ZM5.99704 32.0014C6.00933 33.132 5.08768 34.0659 3.95712 34.0782C2.82655 34.0905 1.88031 33.1688 1.86802 32.0383C1.85574 30.9077 2.7774 29.9738 3.90796 29.9615C5.05081 29.9492 5.99704 30.8708 5.99704 32.0014Z" fill="#5EB3E4"/>
<path d="M40.0244 45.9988C40.0244 45.0525 40.0121 44.266 40.0366 43.4795C40.0366 43.3197 40.1841 43.1477 40.307 43.0248C40.8723 42.4473 41.4621 41.882 42.0274 41.3044C42.8385 40.4688 42.9122 39.7069 42.2732 38.7238C41.9783 38.2691 41.671 37.8267 41.3147 37.2983C42.5927 36.733 43.9199 36.3029 45.0505 35.5902C46.1687 34.8897 47.0904 33.882 48.1841 32.9358C47.9506 34.1278 47.7785 35.3321 47.4713 36.5118C46.9798 38.3428 46.1319 40.0018 45.0013 41.5133C44.8907 41.6608 44.7678 41.8083 44.6818 41.968C44.3869 42.4596 44.4606 42.9511 44.8661 43.2583C45.2839 43.5778 45.8615 43.5287 46.1933 43.0494C46.8323 42.1278 47.5082 41.2184 48.012 40.223C51.9076 32.5794 50.0151 23.5226 43.4283 18.0787C36.6818 12.5119 26.5805 12.7331 20.1043 18.6317C15.7049 22.6378 13.751 27.6639 14.1811 33.5625C14.7833 41.8328 21.3946 48.7022 29.6527 49.7713C34.5559 50.3981 38.9798 49.2307 42.9245 46.2691C43.2071 46.0479 43.4775 45.6055 43.4898 45.2614C43.5144 44.5364 42.6664 44.2292 41.9906 44.6715C41.3515 45.0648 40.7494 45.4949 40.0244 45.9988ZM26.519 29.6178C27.2441 29.0894 27.3547 28.6962 26.9 27.9834C26.4945 27.3444 26.2855 26.6685 26.2855 25.9312C26.2855 24.9481 25.7817 24.3091 24.9215 23.8667C23.4837 23.1294 22.0582 22.3429 20.6327 21.5687C20.4607 21.4704 20.2886 21.3721 20.1535 21.2983C20.6082 20.8314 21.026 20.389 21.4684 19.922C21.7633 20.3521 22.0336 20.7453 22.304 21.1386C22.8324 21.9128 23.3731 22.1217 23.877 21.753C24.3931 21.3844 24.3685 20.8437 23.8401 20.0572C23.5452 19.6271 23.2625 19.2093 22.943 18.7546C24.5405 17.6486 26.2241 16.8867 28.1043 16.432C28.1534 16.7024 28.2149 16.9359 28.2395 17.1816C28.3501 18.3245 28.8293 19.2339 29.7633 19.9343C30.4146 20.4259 31.0044 20.9911 31.6189 21.5073C32.8477 22.5395 33.8431 22.2815 34.3838 20.7699C34.9 19.3322 35.4161 17.8821 35.9814 16.3214C37.2963 16.8375 38.5497 17.3414 39.84 17.8575C39.0044 19.4796 39.3116 20.7699 40.4422 21.9251C40.8231 22.3183 41.1672 22.7484 41.5482 23.2031C41.2041 23.3875 40.946 23.5349 40.6757 23.6824C40.6019 23.5472 40.5528 23.4735 40.5159 23.3997C39.754 21.962 38.3285 21.7408 37.1857 22.8959C36.8293 23.2523 36.4975 23.6209 36.1534 23.9896C35.1703 25.0464 35.158 25.9804 36.1042 27.0741C37.3946 28.5733 38.734 30.0357 39.9752 31.5717C40.7494 32.5303 41.5973 33.157 42.8753 33.071C43.5635 33.0218 43.8707 33.4274 43.9813 34.0787C42.7279 34.6317 41.499 35.1846 40.2578 35.713C40.1227 35.7745 39.926 35.7991 39.7786 35.7499C39.0781 35.5164 38.476 35.6885 37.8738 36.0571C36.5712 36.8805 35.2563 37.6792 33.9537 38.5026C32.3685 39.498 31.9384 40.948 32.7371 42.6439C33.4253 44.0939 34.1258 45.5318 34.8139 46.9695C34.9368 47.2153 35.0351 47.4734 35.1826 47.7929C31.029 48.5302 27.2072 47.8789 23.6558 45.7284C23.5329 45.6546 23.4346 45.3966 23.4469 45.2246C23.5329 44.2292 23.6558 43.2337 23.7786 42.2506C23.9138 41.1446 24.049 40.0387 24.1965 38.859C24.7495 38.945 25.241 39.0187 25.7203 39.1047C26.8754 39.3013 27.5882 38.9696 28.1411 37.925C28.4607 37.3229 28.7679 36.7085 29.0874 36.094C29.4806 35.3198 29.6895 34.4719 29.3086 33.6854C28.6204 32.1985 27.8831 30.7115 26.519 29.6178ZM21.665 44.2783C19.0598 42.0172 17.3885 39.3751 16.5283 36.2169C16.4791 36.0326 16.5897 35.7745 16.688 35.5902C17.2656 34.6071 17.8432 33.6117 18.4699 32.6532C18.6051 32.4443 18.9 32.2599 19.1335 32.2354C19.9814 32.1248 20.8293 32.0756 21.6773 32.0264C22.3777 31.9773 22.9676 31.7315 23.3977 31.1539C23.496 31.031 23.668 30.8221 23.7418 30.8467C24.4791 31.0802 25.413 31.1539 25.8923 31.6578C26.6296 32.432 27.0475 33.5011 27.6127 34.4473C27.2809 35.2461 26.9491 36.0326 26.6051 36.8313C26.5928 36.8559 26.5805 36.8682 26.5805 36.8928C26.4576 37.2368 26.2487 37.2983 25.9046 37.2123C25.4253 37.1017 24.9215 37.028 24.4299 36.9911C23.3485 36.9174 22.5375 37.5686 22.3654 38.6377C22.2671 39.2522 22.2057 39.8789 22.1197 40.4933C21.9722 41.7099 21.8247 42.9265 21.665 44.2783ZM41.3884 19.0004C41.4744 19.0126 41.499 19.0004 41.5113 19.0127C45.1242 21.6793 47.2378 25.2553 47.9629 29.667C47.9875 29.7899 47.9629 29.9742 47.8769 30.0725C47.1272 30.9819 46.3531 31.879 45.542 32.8375C45.1119 31.7438 44.3623 31.2154 43.2563 31.2031C43.072 31.2031 42.8753 31.1416 42.7033 31.1539C42.2609 31.1908 41.9783 30.9819 41.7079 30.6501C40.6265 29.3721 39.5328 28.1309 38.4391 26.8651C38.0582 26.4227 37.6895 25.9927 37.284 25.5134C37.7755 24.985 38.2179 24.5057 38.6972 23.9773C38.8201 24.2108 38.9184 24.3951 39.0167 24.5795C39.5082 25.4028 40.5159 25.7469 41.413 25.3659C41.7325 25.2307 42.052 25.0464 42.3469 24.8621C43.5266 24.1248 43.7356 22.8467 42.8385 21.7776C42.4207 21.2861 41.9906 20.8068 41.5727 20.3153C41.2287 19.9343 41.1058 19.5042 41.3884 19.0004ZM37.0628 47.2522C36.1534 45.372 35.2563 43.5287 34.3838 41.6608C34.0766 40.9972 34.2364 40.5425 34.8877 40.1247C35.8462 39.5103 36.8293 38.9204 37.8001 38.3183C38.2548 38.0357 38.6972 37.7653 39.1764 37.4704C39.7417 38.306 40.2701 39.0801 40.86 39.9526C40.3316 40.4442 39.84 40.9604 39.287 41.3905C38.39 42.0909 38.009 42.9634 38.1442 44.1062C38.2179 44.6961 38.1565 45.3106 38.1565 45.9127C38.1565 46.9327 38.1565 46.9326 37.0628 47.2522ZM18.8631 22.7607C20.645 23.7069 22.3654 24.6286 24.0859 25.5625C24.2456 25.6486 24.3316 25.8821 24.4914 26.091C24.2948 26.1401 24.2579 26.1524 24.2087 26.1524C24.1104 26.1524 23.9998 26.1524 23.9015 26.1278C22.4515 25.6977 21.1489 25.9804 19.9691 26.902C19.4653 27.2952 18.9737 27.455 18.347 27.1109C17.8801 26.8529 17.4377 27.1109 17.2042 27.5779C16.9953 28.0203 17.1059 28.4258 17.5237 28.7331C17.6711 28.8437 17.8186 28.9297 18.089 29.1017C17.4499 30.4043 16.8232 31.6824 16.1965 32.9604C16.1351 32.9358 16.0613 32.8989 15.9999 32.8744C15.8032 29.1877 16.7618 25.8452 18.8631 22.7607ZM32.7003 19.9589C31.5206 18.7792 29.7878 18.1279 30.0951 16.0019C31.3608 16.0019 32.6757 16.0019 34.1012 16.0019C33.6096 17.3537 33.1795 18.6071 32.7003 19.9589ZM25.413 29.2738C25.155 29.2123 24.9092 29.1877 24.6757 29.114C23.5943 28.7453 22.6727 28.9419 21.9845 29.9005C21.9108 29.9988 21.8002 30.1094 21.7018 30.1217C21.0137 30.1954 20.3132 30.2323 19.4776 30.2937C19.7111 29.7899 19.7971 29.2614 20.092 29.0525C21.1611 28.2906 22.2303 27.4059 23.7172 27.9957C23.7786 28.0203 23.8401 28.0203 23.9015 28.0203C24.7617 27.9834 25.2041 28.4504 25.413 29.2738Z" fill="#004A98"/>
<path d="M38.1073 4.99097C38.1196 5.40879 38.4637 5.64228 38.943 5.80204C40.221 6.23214 41.5359 6.6008 42.7648 7.1415C50.5804 10.6438 55.6925 16.5178 58.1257 24.739C58.1748 24.9233 58.224 25.1076 58.2854 25.2797C58.4943 25.7958 58.949 26.0293 59.4283 25.8941C59.9198 25.759 60.2271 25.2551 60.0427 24.7144C59.6249 23.3872 59.244 22.0354 58.7033 20.7574C55.9014 14.2075 51.3177 9.27975 44.9399 6.10925C43.1703 5.22447 41.2287 4.65918 39.3485 3.99559C38.6603 3.74982 38.095 4.19221 38.1073 4.99097Z" fill="#004A98"/>
<path d="M25.0935 60.2535C25.3516 59.9832 25.7325 59.7374 25.8554 59.4179C26.052 58.9018 25.7694 58.4716 25.241 58.2996C24.4176 58.0169 23.5574 57.8081 22.7464 57.5009C14.1688 54.2075 8.56515 48.1491 5.89849 39.3627C5.83705 39.1661 5.80019 38.9572 5.71417 38.7605C5.49297 38.2198 5.00141 37.9863 4.49757 38.1706C4.04289 38.3304 3.78483 38.8097 3.94459 39.3381C4.35011 40.6038 4.6942 41.8941 5.22261 43.1107C8.97068 51.7743 15.3977 57.3902 24.4668 60.0077C24.6265 60.0569 24.7863 60.0938 24.946 60.1307C24.9952 60.1798 25.0443 60.2167 25.0935 60.2535Z" fill="#004A98"/>
<path d="M25.1306 3.83594C24.2827 4.08171 23.6191 4.24145 22.9801 4.47494C13.2106 7.92807 6.86958 14.6254 3.98173 24.567C3.78511 25.2306 4.01859 25.7222 4.54701 25.8819C5.11229 26.054 5.56698 25.7591 5.77588 25.0463C6.51321 22.4288 7.54547 19.9342 9.00783 17.6362C12.6699 11.8974 17.7574 8.0264 24.2581 6.02333C24.6391 5.91273 25.0201 5.81444 25.3764 5.65468C25.8188 5.45806 26.0154 5.04025 25.8434 4.62243C25.7205 4.30293 25.3518 4.06942 25.1306 3.83594Z" fill="#004A98"/>
<path d="M38.1074 58.9752C38.1319 59.86 38.6726 60.241 39.3485 60.0567C41.9169 59.3808 44.3623 58.3977 46.648 57.0459C52.1534 53.7771 56.1964 49.2057 58.7033 43.3071C59.2317 42.0536 59.6126 40.7264 60.0305 39.4115C60.2271 38.7848 59.9813 38.2933 59.4652 38.1458C58.9122 37.9861 58.4452 38.2564 58.2486 38.92C57.6587 40.9599 56.9337 42.9507 55.9014 44.8186C52.2886 51.3931 46.8938 55.7678 39.7418 57.9921C39.41 58.1027 39.029 58.1396 38.7341 58.3116C38.4392 58.5082 38.2302 58.8401 38.1074 58.9752Z" fill="#004A98"/>
<path d="M28.0921 60.2905C28.2641 62.5148 30.0952 64.1492 32.2211 64.0018C34.4454 63.842 36.0921 61.9618 35.92 59.799C35.7357 57.5625 33.8924 55.9772 31.6681 56.1615C29.5668 56.3213 27.9201 58.226 28.0921 60.2905ZM29.9354 60.0693C29.9354 58.9388 30.8694 58.0171 31.9999 58.0171C33.1305 58.0171 34.0644 58.9511 34.0644 60.0816C34.0644 61.2122 33.1182 62.1461 31.9999 62.1461C30.8694 62.1339 29.9354 61.1999 29.9354 60.0693Z" fill="#5EB3E4"/>
<path d="M56.1227 32.0631C56.135 34.2259 57.9414 35.9955 60.0919 35.9586C62.267 35.9217 64.0243 34.1399 63.9997 31.9894C63.9752 29.8266 62.1687 28.057 60.0305 28.0938C57.8431 28.1184 56.1104 29.9003 56.1227 32.0631ZM58.0028 32.0262C58.0028 30.8957 58.9245 29.9617 60.0551 29.9617C61.1856 29.9617 62.1196 30.8957 62.1196 32.0139C62.1196 33.1445 61.1856 34.0785 60.0551 34.0785C58.9368 34.0908 58.0028 33.1568 58.0028 32.0262Z" fill="#5EB3E4"/>
<path d="M35.6866 20.6225C36.0184 20.9543 36.2273 21.3229 36.5222 21.3967C36.8171 21.4704 37.3455 21.3598 37.493 21.1386C37.9231 20.4873 38.2795 19.7746 38.5375 19.0249C38.6236 18.7669 38.4147 18.2507 38.1689 18.091C37.9354 17.9312 37.2964 17.9189 37.1735 18.0787C36.6328 18.8652 36.215 19.7131 35.6866 20.6225Z" fill="#004A98"/>
<path d="M28.2028 20.6346C27.6129 20.6468 26.851 21.4087 26.851 21.974C26.851 22.5024 27.2934 22.9203 27.8219 22.8957C28.3994 22.8711 29.1613 22.0723 29.1367 21.5193C29.1122 21.0155 28.7066 20.6223 28.2028 20.6346Z" fill="#004A98"/>
</svg>
