<svg width="49" height="48" viewBox="0 0 49 48" fill="none" xmlns="http://www.w3.org/2000/svg">
<rect width="14" height="14" rx="1.5" transform="matrix(-1 0 0 1 40.5 8)" fill="white"/>
<path opacity="0.3" fill-rule="evenodd" clip-rule="evenodd" d="M22.5 9.5C22.5 8.67157 21.8284 8 21 8H10C9.17157 8 8.5 8.67157 8.5 9.5V20.5C8.5 21.3284 9.17157 22 10 22H21C21.8284 22 22.5 21.3284 22.5 20.5V9.5ZM40.5 27.5C40.5 26.6716 39.8284 26 39 26H28C27.1716 26 26.5 26.6716 26.5 27.5V38.5C26.5 39.3284 27.1716 40 28 40H39C39.8284 40 40.5 39.3284 40.5 38.5V27.5ZM21 26C21.8284 26 22.5 26.6716 22.5 27.5V38.5C22.5 39.3284 21.8284 40 21 40H10C9.17157 40 8.5 39.3284 8.5 38.5V27.5C8.5 26.6716 9.17157 26 10 26H21Z" fill="white"/>
</svg>
