<svg width="66" height="67" viewBox="0 0 66 67" fill="none" xmlns="http://www.w3.org/2000/svg">
<path d="M40.8171 47.1299H46.2888L45.6126 26.8622L40.8171 26.0835V47.1299Z" fill="#5EB3E4"/>
<path d="M59.5486 52.9297H64.9998L64.344 32.662L59.5486 31.8833V52.9297Z" fill="#5EB3E4"/>
<path d="M23.7474 31.9446C26.8213 31.9446 29.4444 30.6535 29.4444 29.4444V23.8088C29.4444 21.739 20.1611 20.6733 15.2222 20.6733C10.2834 20.6733 1 21.739 1 23.8088V29.4444C1 30.6535 3.62312 31.9446 6.69708 31.9446" fill="#5EB3E4"/>
<path d="M15.2008 15.2429C17.5165 15.2429 19.1764 13.6239 19.1764 11.2672V9.27938C19.1764 6.92267 17.5165 5.30371 15.2008 5.30371C12.885 5.30371 11.2251 6.92267 11.2251 9.27938V11.2672C11.2251 13.6034 12.885 15.2429 15.2008 15.2429Z" fill="#5EB3E4"/>
<path d="M33.7073 20.2223C36.023 20.2223 37.683 18.6034 37.683 16.2467V14.2589C37.683 11.9022 36.023 10.2832 33.7073 10.2832C31.3916 10.2832 29.7317 11.9022 29.7317 14.2589V16.2467C29.7317 18.5829 31.3916 20.2223 33.7073 20.2223Z" fill="#5EB3E4"/>
<path d="M53.6272 25.2024C55.9429 25.2024 57.6029 23.5834 57.6029 21.2267V19.2389C57.6029 16.8821 55.9429 15.2632 53.6272 15.2632C51.3115 15.2632 49.6516 16.8821 49.6516 19.2389V21.2267C49.6311 23.5629 51.3115 25.2024 53.6272 25.2024Z" fill="#5EB3E4"/>
<path d="M23.7474 45.1218C26.8213 45.1218 29.4444 42.1913 29.4444 39.4247V26.6165C29.4444 21.9236 20.1611 19.5054 15.2222 19.5054C10.2834 19.5054 1 21.9236 1 26.6165V39.4247C1 42.1913 3.62312 45.1218 6.69708 45.1218" stroke="#004C97" stroke-width="1.4824" stroke-miterlimit="10"/>
<path d="M40.8185 47.9499C43.5851 47.9499 46.5156 46.4539 46.5156 43.6873V30.8791C46.5156 26.1862 38.1544 23.7681 33.7074 23.7681C33.2771 23.7681 32.7853 23.7886 32.2935 23.8295" stroke="#004C97" stroke-width="1.4824" stroke-miterlimit="10"/>
<path d="M15.201 15.2427C18.5209 15.2427 20.8981 12.927 20.8981 9.54562V6.69708C20.8981 3.33621 18.5209 1 15.201 1C11.8811 1 9.50391 3.31572 9.50391 6.69708V9.54562C9.5244 12.9065 11.9016 15.2427 15.201 15.2427Z" stroke="#004C97" stroke-width="1.4824" stroke-miterlimit="10"/>
<path d="M40.8171 66.455V33.7275" stroke="#004C97" stroke-width="1.4824" stroke-miterlimit="10"/>
<path d="M59.3032 53.6467C62.0698 53.6467 65.0003 52.1507 65.0003 49.3842V36.576C65.0003 31.883 56.6391 29.4648 52.1921 29.4648C51.3519 29.4648 50.3887 29.5468 49.3435 29.7108" stroke="#004C97" stroke-width="1.4824" stroke-miterlimit="10"/>
<path d="M59.302 66.4547V39.4243" stroke="#004C97" stroke-width="1.4824" stroke-miterlimit="10"/>
<path d="M23.7478 66.4549V29.4648" stroke="#004C97" stroke-width="1.4824" stroke-miterlimit="10"/>
<path d="M6.67603 29.4648V66.4549" stroke="#004C97" stroke-width="1.4824" stroke-miterlimit="10"/>
<path d="M15.2019 43.687V66.4549" stroke="#004C97" stroke-width="1.4824" stroke-miterlimit="10"/>
<path d="M33.7076 19.5054C37.0275 19.5054 39.4047 17.1897 39.4047 13.8084V10.9598C39.4047 7.59894 37.0275 5.2627 33.7076 5.2627C30.3877 5.2627 28.0105 7.57845 28.0105 10.9598V13.8084C28.0105 17.1897 30.3877 19.5054 33.7076 19.5054Z" stroke="#004C97" stroke-width="1.4824" stroke-miterlimit="10"/>
<path d="M53.6251 25.2022C56.9449 25.2022 59.3221 22.8865 59.3221 19.5051V16.6566C59.3221 13.2957 56.9449 10.9595 53.6251 10.9595C50.3052 10.9595 47.928 13.2752 47.928 16.6566V19.5051C47.928 22.866 50.3052 25.2022 53.6251 25.2022Z" stroke="#004C97" stroke-width="1.4824" stroke-miterlimit="10"/>
</svg>
