<svg width="64" height="64" viewBox="0 0 64 64" fill="none" xmlns="http://www.w3.org/2000/svg">
<path d="M31.9999 47.5114C19.0065 47.5114 8.47323 36.9782 8.47323 23.9847C8.47323 10.9913 19.0065 0.458008 31.9999 0.458008C44.9934 0.458008 55.5266 10.9913 55.5266 23.9847C55.5266 36.9782 44.9934 47.5114 31.9999 47.5114Z" fill="#5EB3E4"/>
<path d="M32.3818 5.22136C46.5803 5.41984 58.5955 17.4351 58.794 31.6336C58.9925 46.7023 46.7024 58.9923 31.6337 58.7939C17.4352 58.5954 5.41999 46.5801 5.22152 32.3817C5.00778 17.313 17.3131 5.02289 32.3818 5.22136ZM10.2902 43.374L12.1681 42.2901C12.3207 42.1984 12.4887 42.1679 12.6413 42.1679C12.9772 42.1679 13.2826 42.3359 13.4658 42.6412C13.7559 43.145 13.5879 43.7862 13.0841 44.0763L11.2978 45.0992C13.2368 48.1526 15.8322 50.7481 18.8856 52.7023L19.9543 50.8549C20.1375 50.5496 20.4581 50.3664 20.794 50.3664C20.9619 50.3664 21.1299 50.4122 21.2826 50.5038C21.7711 50.7939 21.9391 51.4198 21.6642 51.9084L20.6261 53.7099C23.7559 55.3588 27.2673 56.3359 31.0077 56.4885V52.229C31.0077 51.9542 31.1146 51.6946 31.2978 51.5267C31.481 51.3435 31.7253 51.2366 32.0002 51.2366C32.5498 51.2366 33.0077 51.6794 33.0077 52.2442V56.5038C36.7329 56.3511 40.2597 55.3587 43.3894 53.7252C43.3894 53.7252 42.7787 52.6717 42.3207 51.8778C42.0459 51.4046 42.2139 50.8091 42.6872 50.5343L42.7024 50.5191C43.1757 50.2443 43.7864 50.4122 44.0612 50.8855L45.1146 52.7175C48.1681 50.7786 50.7635 48.1832 52.7177 45.1297C52.7177 45.1297 51.6642 44.5191 50.8704 44.061C50.3971 43.7862 50.2444 43.1908 50.5192 42.7175L50.5345 42.7023C50.8093 42.229 51.42 42.0611 51.8933 42.3359L53.7253 43.4046C55.3742 40.2748 56.3513 36.7633 56.5039 33.0229H52.2292C51.9543 33.0229 51.71 32.916 51.5268 32.7328C51.3436 32.5496 51.2367 32.3053 51.2367 32.0305C51.2367 31.4656 51.6948 31.0076 52.2597 31.0076H56.5039C56.3513 27.2672 55.3589 23.7557 53.7253 20.6259L51.8933 21.6794C51.7406 21.771 51.5726 21.8168 51.3894 21.8168C51.0383 21.8168 50.7177 21.6336 50.5192 21.313C50.2444 20.8244 50.4124 20.2137 50.8856 19.9389L52.7024 18.8855C50.7635 15.832 48.1681 13.2366 45.1146 11.2977L44.0612 13.1145C43.878 13.4351 43.5268 13.6183 43.1757 13.6183C43.0077 13.6183 42.8246 13.5725 42.6719 13.4809C42.1986 13.2061 42.0307 12.6107 42.3055 12.1374L43.3742 10.2901C40.2444 8.64121 36.733 7.66411 32.9925 7.51144V11.771C32.9925 12.0458 32.8856 12.2901 32.7024 12.4733C32.5192 12.6565 32.275 12.7633 32.0002 12.7633C31.4505 12.7633 30.9925 12.3206 30.9925 11.7557V7.49618C27.2673 7.64885 23.7406 8.64121 20.6108 10.2748L21.6642 12.1069C21.7558 12.2595 21.8016 12.4427 21.8016 12.6107C21.8016 12.9618 21.6185 13.2977 21.2978 13.4809C20.8246 13.7557 20.1986 13.5878 19.9238 13.1145L18.8704 11.2824C15.8169 13.2214 13.2215 15.8168 11.2826 18.8702L13.1757 19.9695C13.6185 20.229 13.7711 20.7939 13.5116 21.2366L13.4963 21.2672C13.2062 21.7557 12.5803 21.9389 12.0765 21.6488L10.2749 20.6107C8.62609 23.7404 7.64899 27.2519 7.49632 30.9923H11.7406C12.0154 30.9923 12.2749 31.0992 12.4581 31.2824C12.6413 31.4656 12.7482 31.7252 12.7482 32C12.7482 32.5496 12.3055 32.9923 11.7559 32.9923H7.49632C7.64899 36.7328 8.64138 40.2595 10.2902 43.374Z" fill="#004A98"/>
<path d="M64 32C64 40.5496 60.6717 48.5801 54.6259 54.6259C48.5801 60.6717 40.5496 64 32 64C23.4504 64 15.4199 60.6717 9.37407 54.6259C3.32827 48.5801 0 40.5496 0 32C0 23.4504 3.32827 15.4198 9.37407 9.37404C15.4199 3.32825 23.4504 0 32 0C40.5496 0 48.5801 3.32825 54.6259 9.37404C60.6717 15.4198 64 23.4504 64 32ZM62 32C62 23.9847 58.8855 16.458 53.2214 10.7939C47.5573 5.12977 40.0305 2.01527 32.0153 2.01527C24 2.01527 16.4733 5.12977 10.8092 10.7939C5.14506 16.458 2.03056 23.9847 2.03056 32C2.03056 40.0153 5.14506 47.542 10.8092 53.2061C16.4733 58.8702 24 61.9847 32.0153 61.9847C40.0305 61.9847 47.5573 58.8702 53.2214 53.2061C58.8702 47.542 62 40.0153 62 32Z" fill="#004A98"/>
<path d="M32.1372 37.6337H31.8623C31.4654 37.6337 31.1448 37.3131 31.1448 36.9162V18.7024C31.1448 18.3055 31.4654 17.9849 31.8623 17.9849H32.1372C32.5341 17.9849 32.8547 18.3055 32.8547 18.7024V36.9162C32.8547 37.3131 32.5341 37.6337 32.1372 37.6337Z" fill="#004A98"/>
<path d="M36.5189 27.2368L36.809 27.3437C37.1754 27.4811 37.3586 27.878 37.2212 28.2444L32.7327 40.4276C32.5953 40.794 32.1983 40.9772 31.8319 40.8398L31.5418 40.733C31.1754 40.5956 30.9922 40.1986 31.1296 39.8322L35.6182 27.649C35.7556 27.2826 36.1525 27.0994 36.5189 27.2368Z" fill="#004A98"/>
<path d="M31.9996 41.5879C30.288 41.5879 28.9004 40.2003 28.9004 38.4886C28.9004 36.777 30.288 35.3894 31.9996 35.3894C33.7113 35.3894 35.0989 36.777 35.0989 38.4886C35.0989 40.2003 33.7113 41.5879 31.9996 41.5879Z" fill="#004A98"/>
</svg>
