<svg width="64" height="64" viewBox="0 0 64 64" fill="none" xmlns="http://www.w3.org/2000/svg">
<path d="M31.9999 47.5114C19.0065 47.5114 8.47323 36.9782 8.47323 23.9847C8.47323 10.9913 19.0065 0.458008 31.9999 0.458008C44.9934 0.458008 55.5266 10.9913 55.5266 23.9847C55.5266 36.9782 44.9934 47.5114 31.9999 47.5114Z" fill="#5EB3E4"/>
<path d="M32.3818 5.22161C46.5803 5.42008 58.5955 17.4353 58.794 31.6338C58.9925 46.7025 46.7024 58.9926 31.6337 58.7941C17.4352 58.5956 5.41999 46.5804 5.22152 32.3819C5.00778 17.3132 17.3131 5.02314 32.3818 5.22161ZM10.2902 43.3743L12.1681 42.2903C12.3207 42.1987 12.4887 42.1682 12.6413 42.1682C12.9772 42.1682 13.2826 42.3361 13.4658 42.6414C13.7559 43.1453 13.5879 43.7865 13.0841 44.0766L11.2978 45.0995C13.2368 48.1529 15.8322 50.7483 18.8856 52.7025L19.9543 50.8552C20.1375 50.5498 20.4581 50.3666 20.794 50.3666C20.9619 50.3666 21.1299 50.4124 21.2826 50.504C21.7711 50.7941 21.9391 51.4201 21.6642 51.9086L20.6261 53.7101C23.7559 55.359 27.2673 56.3361 31.0077 56.4888V52.2292C31.0077 51.9544 31.1146 51.6949 31.2978 51.5269C31.481 51.3437 31.7253 51.2369 32.0002 51.2369C32.5498 51.2369 33.0077 51.6796 33.0077 52.2445V56.504C36.7329 56.3514 40.2597 55.359 43.3894 53.7254C43.3894 53.7254 42.7787 52.672 42.3207 51.8781C42.0459 51.4048 42.2139 50.8094 42.6872 50.5346L42.7024 50.5193C43.1757 50.2445 43.7864 50.4124 44.0612 50.8857L45.1146 52.7178C48.1681 50.7788 50.7635 48.1834 52.7177 45.13C52.7177 45.13 51.6642 44.5193 50.8704 44.0613C50.3971 43.7865 50.2444 43.1911 50.5192 42.7178L50.5345 42.7025C50.8093 42.2292 51.42 42.0613 51.8933 42.3361L53.7253 43.4048C55.3742 40.275 56.3513 36.7636 56.5039 33.0231H52.2292C51.9543 33.0231 51.71 32.9163 51.5268 32.7331C51.3436 32.5498 51.2367 32.3056 51.2367 32.0308C51.2367 31.4659 51.6948 31.0079 52.2597 31.0079H56.5039C56.3513 27.2674 55.3589 23.756 53.7253 20.6262L51.8933 21.6796C51.7406 21.7712 51.5726 21.817 51.3894 21.817C51.0383 21.817 50.7177 21.6338 50.5192 21.3132C50.2444 20.8247 50.4124 20.214 50.8856 19.9392L52.7024 18.8857C50.7635 15.8323 48.1681 13.2369 45.1146 11.2979L44.0612 13.1147C43.878 13.4353 43.5268 13.6186 43.1757 13.6186C43.0077 13.6186 42.8246 13.5728 42.6719 13.4811C42.1986 13.2063 42.0307 12.6109 42.3055 12.1376L43.3742 10.2903C40.2444 8.64145 36.733 7.66436 32.9925 7.51168V11.7712C32.9925 12.046 32.8856 12.2903 32.7024 12.4735C32.5192 12.6567 32.275 12.7636 32.0002 12.7636C31.4505 12.7636 30.9925 12.3208 30.9925 11.756V7.49642C27.2673 7.64909 23.7406 8.64146 20.6108 10.275L21.6642 12.1071C21.7558 12.2598 21.8016 12.443 21.8016 12.6109C21.8016 12.9621 21.6185 13.2979 21.2978 13.4811C20.8246 13.756 20.1986 13.588 19.9238 13.1147L18.8704 11.2827C15.8169 13.2216 13.2215 15.817 11.2826 18.8705L13.1757 19.9697C13.6185 20.2292 13.7711 20.7941 13.5116 21.2369L13.4963 21.2674C13.2062 21.756 12.5803 21.9392 12.0765 21.6491L10.2749 20.6109C8.62609 23.7407 7.64899 27.2521 7.49632 30.9926H11.7406C12.0154 30.9926 12.2749 31.0995 12.4581 31.2827C12.6413 31.4659 12.7482 31.7254 12.7482 32.0002C12.7482 32.5498 12.3055 32.9926 11.7559 32.9926H7.49632C7.64899 36.733 8.64138 40.2598 10.2902 43.3743Z" fill="#004A98"/>
<path d="M64 32C64 40.5496 60.6717 48.5801 54.6259 54.6259C48.5801 60.6717 40.5496 64 32 64C23.4504 64 15.4199 60.6717 9.37407 54.6259C3.32827 48.5801 0 40.5496 0 32C0 23.4504 3.32827 15.4198 9.37407 9.37404C15.4199 3.32825 23.4504 0 32 0C40.5496 0 48.5801 3.32825 54.6259 9.37404C60.6717 15.4198 64 23.4504 64 32ZM62 32C62 23.9847 58.8855 16.458 53.2214 10.7939C47.5573 5.12977 40.0305 2.01527 32.0153 2.01527C24 2.01527 16.4733 5.12977 10.8092 10.7939C5.14506 16.458 2.03056 23.9847 2.03056 32C2.03056 40.0153 5.14506 47.542 10.8092 53.2061C16.4733 58.8702 24 61.9847 32.0153 61.9847C40.0305 61.9847 47.5573 58.8702 53.2214 53.2061C58.8702 47.542 62 40.0153 62 32Z" fill="#004A98"/>
<path d="M32.1372 37.6337H31.8623C31.4654 37.6337 31.1448 37.3131 31.1448 36.9162V18.7024C31.1448 18.3055 31.4654 17.9849 31.8623 17.9849H32.1372C32.5341 17.9849 32.8547 18.3055 32.8547 18.7024V36.9162C32.8547 37.3131 32.5341 37.6337 32.1372 37.6337Z" fill="#004A98"/>
<path d="M36.5189 27.237L36.809 27.3439C37.1754 27.4813 37.3586 27.8782 37.2212 28.2447L32.7327 40.4279C32.5953 40.7943 32.1983 40.9775 31.8319 40.8401L31.5418 40.7332C31.1754 40.5958 30.9922 40.1989 31.1296 39.8324L35.6182 27.6492C35.7556 27.2828 36.1525 27.0996 36.5189 27.237Z" fill="#004A98"/>
<path d="M31.9996 41.5881C30.288 41.5881 28.9004 40.2005 28.9004 38.4889C28.9004 36.7772 30.288 35.3896 31.9996 35.3896C33.7113 35.3896 35.0989 36.7772 35.0989 38.4889C35.0989 40.2005 33.7113 41.5881 31.9996 41.5881Z" fill="#004A98"/>
</svg>
