<svg width="70" height="61" viewBox="0 0 70 61" fill="none" xmlns="http://www.w3.org/2000/svg">
<path d="M35.0135 2C50.5506 2 62.7394 15.2471 62.7394 30.7842V35.0448H67L59.5371 45.71L52.0742 35.0448H56.3348V30.7842C56.3348 19.0059 46.7918 9.4629 35.0135 9.4629C28.1801 9.4629 22.0948 12.6835 18.19 17.6831" stroke="#004A98" stroke-width="2.1436" stroke-miterlimit="10" stroke-linecap="round"/>
<path d="M28.6452 2.84843C29.3568 2.65684 30.0685 2.50175 30.7983 2.37402" stroke="#004A98" stroke-width="2.1436" stroke-miterlimit="10" stroke-linecap="round"/>
<path d="M23.0161 5.03803C23.6912 4.69135 24.3846 4.37203 25.0962 4.08008" stroke="#004A98" stroke-width="2.1436" stroke-miterlimit="10" stroke-linecap="round"/>
<path d="M17.926 8.39569C18.6012 7.84829 19.3037 7.32826 20.0244 6.84473" stroke="#004A98" stroke-width="2.1436" stroke-miterlimit="10" stroke-linecap="round"/>
<path d="M34.9866 59.5777C19.4495 59.5777 7.26068 46.3306 7.26068 30.7935V26.5329H3.00008L10.463 15.8677L17.9259 26.5329H13.6653V30.7935C13.6653 42.5717 23.2083 52.1148 34.9866 52.1148C41.82 52.1148 47.9053 48.8942 51.8101 43.8946" stroke="#004A98" stroke-width="2.1436" stroke-miterlimit="10" stroke-linecap="round"/>
<path d="M41.3545 58.729C40.6429 58.9206 39.9312 59.0757 39.2014 59.2034" stroke="#004A98" stroke-width="2.1436" stroke-miterlimit="10" stroke-linecap="round"/>
<path d="M46.9836 56.5303C46.3085 56.877 45.6151 57.1963 44.9035 57.4882" stroke="#004A98" stroke-width="2.1436" stroke-miterlimit="10" stroke-linecap="round"/>
<path d="M52.0742 53.1821C51.3991 53.7295 50.6966 54.2495 49.9759 54.7331" stroke="#004A98" stroke-width="2.1436" stroke-miterlimit="10" stroke-linecap="round"/>
<path d="M35.0128 29.7168C39.8025 29.7168 45.678 32.4173 45.678 33.9774V39.3054C45.678 40.8655 39.8117 43.5661 35.0128 43.5661C30.223 43.5661 24.3476 40.8655 24.3476 39.3054V33.9865C24.3476 32.4264 30.2139 29.7168 35.0128 29.7168Z" fill="#5EB3E4"/>
<path d="M35.0138 29.7077C32.0395 29.7077 29.6857 27.2718 29.6857 24.2702V22.4546C29.6857 19.453 32.0395 17.0171 35.0138 17.0171C37.988 17.0171 40.3418 19.453 40.3418 22.4546V24.2702C40.3418 27.2718 37.988 29.7077 35.0138 29.7077Z" stroke="#004A98" stroke-width="2.1436" stroke-miterlimit="10"/>
<path d="M24.348 39.3147V33.9867C24.348 32.4266 30.2143 29.7261 35.0041 29.7261C39.7938 29.7261 45.6602 32.4266 45.6602 33.9867V39.3147" stroke="#004A98" stroke-width="2.1436" stroke-miterlimit="10" stroke-linecap="round" stroke-linejoin="round"/>
</svg>
