<svg width="64" height="64" viewBox="0 0 64 64" fill="none" xmlns="http://www.w3.org/2000/svg">
<path d="M4.12998 59.1255H46.8201V61.9069H4.12998V59.1255Z" fill="#5EB3E4"/>
<path d="M13.7804 50.9221C10.9331 50.9221 8.625 48.614 8.625 45.7667C8.625 42.9195 10.9331 40.6113 13.7804 40.6113C16.6276 40.6113 18.9358 42.9195 18.9358 45.7667C18.9358 48.614 16.6276 50.9221 13.7804 50.9221Z" fill="#5EB3E4"/>
<path d="M30.3002 13.7522C27.4529 13.7522 25.1448 11.4441 25.1448 8.59682C25.1448 5.74958 27.4529 3.44141 30.3002 3.44141C33.1474 3.44141 35.4556 5.74958 35.4556 8.59682C35.4556 11.4441 33.1474 13.7522 30.3002 13.7522Z" fill="#5EB3E4"/>
<path d="M30.3002 50.9221C27.4529 50.9221 25.1448 48.614 25.1448 45.7667C25.1448 42.9195 27.4529 40.6113 30.3002 40.6113C33.1474 40.6113 35.4556 42.9195 35.4556 45.7667C35.4556 48.614 33.1474 50.9221 30.3002 50.9221Z" fill="#5EB3E4"/>
<path d="M46.8199 50.9221C43.9727 50.9221 41.6645 48.614 41.6645 45.7667C41.6645 42.9195 43.9727 40.6113 46.8199 40.6113C49.6672 40.6113 51.9753 42.9195 51.9753 45.7667C51.9753 48.614 49.6672 50.9221 46.8199 50.9221Z" fill="#5EB3E4"/>
<path d="M8.2599 9.6084L16.5198 20.6216H12.3898V36.1018H10.3249V18.5566H12.3898L8.2599 13.05L4.12996 18.5566H6.19493V43.3362H4.12996V20.6216H2.86102e-05L8.2599 9.6084Z" fill="#004A98"/>
<path d="M59.8701 44.3616H57.8051V19.582H59.8701L55.7401 14.0754L51.6102 19.582H53.6751V36.1017H51.6102V21.647H47.4802L55.7401 10.6338L64 21.647H59.8701V44.3616Z" fill="#004A98"/>
<path d="M11.3783 50.3038C9.49593 48.9974 8.25976 46.82 8.25976 44.3617C8.25976 40.3723 11.5047 37.1414 15.4801 37.1414C15.8313 37.1414 16.1685 37.1694 16.5056 37.2256V33.0114H14.4406V26.8165H23.726V18.36L20.0877 17.5593C16.7584 16.8148 14.4266 13.921 14.4266 10.5075V3.09043C14.4266 1.37664 15.8173 0 17.517 0C19.2308 0 20.6074 1.39069 20.6074 3.09043V9.59438C20.6074 10.1001 20.9727 10.5356 21.4643 10.6058L26.0578 11.3784C25.229 10.1984 24.7233 8.76558 24.7233 7.22037C24.7233 3.2309 27.9683 0 31.9437 0C35.9191 0 39.1641 3.24495 39.1641 7.22037C39.1641 8.76558 38.6724 10.2125 37.8296 11.3784L42.4231 10.6058C42.9288 10.5215 43.28 10.1001 43.28 9.59438V3.09043C43.28 1.37664 44.6706 0 46.3704 0C48.0842 0 49.4608 1.39069 49.4608 3.09043V10.5075C49.4608 13.921 47.1289 16.8148 43.7997 17.5593L40.1614 18.36V26.8165H49.4468V33.0114H47.3818V37.2256C47.7189 37.1835 48.0701 37.1414 48.4073 37.1414C52.3967 37.1414 55.6276 40.3863 55.6276 44.3617C55.6276 46.82 54.3915 48.9974 52.5091 50.3038C56.7514 51.9473 59.7576 56.0632 59.7576 60.8815V63.9719H43.2378H41.1728H22.5881H20.5232H4.0034V60.8815C4.12982 56.0632 7.13597 51.9473 11.3783 50.3038ZM10.3247 44.3617C10.3247 47.2133 12.6425 49.5171 15.4801 49.5171C18.3177 49.5171 20.6355 47.1993 20.6355 44.3617C20.6355 41.5241 18.3177 39.2063 15.4801 39.2063C12.6425 39.2063 10.3247 41.5101 10.3247 44.3617ZM31.9999 2.03687C29.1483 2.03687 26.8445 4.35471 26.8445 7.19229C26.8445 10.0299 29.1623 12.3477 31.9999 12.3477C34.8515 12.3477 37.1553 10.0299 37.1553 7.19229C37.1553 4.35471 34.8515 2.03687 31.9999 2.03687ZM29.6118 14.0334L21.1693 12.6286C19.6663 12.3758 18.5846 11.0975 18.5846 9.58034V3.07639C18.5846 2.51449 18.121 2.05093 17.5591 2.05093C16.9972 2.05093 16.5337 2.51449 16.5337 3.07639V10.4934C16.5337 12.9377 18.1913 15.0026 20.5793 15.5364L25.8331 16.7024V26.8165H38.2229V16.7024L43.4485 15.5224C45.8225 14.9886 47.4942 12.9236 47.4942 10.4794V3.06235C47.4942 2.50045 47.0306 2.03687 46.4687 2.03687C45.9068 2.03687 45.4433 2.50045 45.4433 3.06235V9.56628C45.4433 11.0834 44.3616 12.3758 42.8585 12.6146L34.416 14.0193M47.4801 28.8674H16.5056V30.9324H47.4801V28.8674ZM45.4152 32.9974H18.5706V37.8297C21.0148 38.9956 22.7005 41.468 22.7005 44.3477C22.7005 46.806 21.4643 48.9833 19.582 50.2897C21.1412 50.8938 22.56 51.849 23.74 53.0992C24.8919 51.8771 26.2966 50.9078 27.898 50.2897C26.0157 48.9833 24.7795 46.806 24.7795 44.3477C24.7795 40.3582 28.0245 37.1273 31.9999 37.1273C35.9753 37.1273 39.2203 40.3723 39.2203 44.3477C39.2203 46.806 37.9841 48.9833 36.1017 50.2897C37.6891 50.9078 39.1079 51.8771 40.2598 53.0992C41.4257 51.849 42.8445 50.8938 44.4178 50.2897C42.5354 48.9833 41.2993 46.806 41.2993 44.3477C41.2993 41.468 42.985 38.9956 45.4292 37.8297V32.9974H45.4152ZM37.1553 44.3617C37.1553 41.5101 34.8375 39.2063 31.9999 39.2063C29.1483 39.2063 26.8445 41.5241 26.8445 44.3617C26.8445 47.1993 29.1623 49.5171 31.9999 49.5171C34.8515 49.5171 37.1553 47.1993 37.1553 44.3617ZM53.675 44.3617C53.675 41.5101 51.3572 39.2063 48.5196 39.2063C45.668 39.2063 43.3642 41.5241 43.3642 44.3617C43.3642 47.1993 45.6821 49.5171 48.5196 49.5171C51.3572 49.5171 53.675 47.1993 53.675 44.3617ZM52.6496 61.9069V55.712H54.7145V61.9069H57.805V60.8815C57.805 55.7542 53.6329 51.5961 48.5196 51.5961C45.8225 51.5961 43.3221 52.748 41.5521 54.7709C42.69 56.5408 43.3502 58.6339 43.3502 60.8815V61.9069H52.6496ZM25.805 61.9069V55.712H27.8699V61.9069H36.1298V55.712H38.1948V61.9069H41.2852V60.8815C41.2852 55.7542 37.1131 51.5961 31.9999 51.5961C26.8726 51.5961 22.7145 55.7682 22.7145 60.8815V61.9069H25.805ZM6.19479 61.9069H9.28522V55.712H11.3502V61.9069H20.6355V60.8815C20.6355 58.6339 21.2957 56.5408 22.4336 54.7709C20.6636 52.748 18.1772 51.5961 15.4661 51.5961C10.3388 51.5961 6.18074 55.7682 6.18074 60.8815V61.9069H6.19479Z" fill="#004A98"/>
<path d="M6.19507 45.3872H4.1301V47.4522H6.19507V45.3872Z" fill="#004A98"/>
<path d="M6.19507 49.5171H4.1301V51.5821H6.19507V49.5171Z" fill="#004A98"/>
<path d="M59.8701 46.4268H57.8052V48.4917H59.8701V46.4268Z" fill="#004A98"/>
<path d="M59.8701 50.5566H57.8052V52.6216H59.8701V50.5566Z" fill="#004A98"/>
<path d="M16.5197 28.8672H33.5171V30.9322H16.5197V28.8672Z" fill="#5EB3E4"/>
</svg>
