<svg width="30" height="31" viewBox="0 0 30 31" fill="none" xmlns="http://www.w3.org/2000/svg">
<rect opacity="0.3" y="0.265137" width="30" height="30" rx="5" fill="#004A98"/>
<path d="M13.4711 9.8044C13.3098 9.64046 13.0936 9.54974 12.8693 9.55179C12.6449 9.55384 12.4303 9.64849 12.2716 9.81536C12.113 9.98223 12.023 10.208 12.0211 10.4439C12.0191 10.6799 12.1054 10.9073 12.2612 11.077L15.9346 14.9407L12.2612 18.8044C12.1795 18.8874 12.1143 18.9867 12.0695 19.0965C12.0246 19.2063 12.001 19.3244 12 19.4439C11.999 19.5634 12.0207 19.6819 12.0637 19.7926C12.1067 19.9032 12.1703 20.0036 12.2506 20.0882C12.331 20.1727 12.4265 20.2395 12.5317 20.2847C12.6368 20.33 12.7495 20.3528 12.8631 20.3517C12.9767 20.3507 13.089 20.3259 13.1934 20.2787C13.2978 20.2315 13.3922 20.163 13.4711 20.077L17.7495 15.577C17.9099 15.4082 18 15.1793 18 14.9407C18 14.7021 17.9099 14.4732 17.7495 14.3044L13.4711 9.8044Z" fill="#004A98"/>
</svg>
