<svg width="24" height="25" viewBox="0 0 24 25" fill="none" xmlns="http://www.w3.org/2000/svg">
<g opacity="0.5" clip-path="url(#clip0_171_18815)">
<path d="M14.1 5.1019C13.4117 4.94078 12.7069 4.86024 12 4.8619C5 4.8619 1 12.8619 1 12.8619C1.60702 13.9975 2.33094 15.0666 3.16 16.0519M9.88 14.9819C10.1546 15.2766 10.4859 15.5131 10.8538 15.677C11.2218 15.841 11.6191 15.9292 12.0219 15.9363C12.4247 15.9434 12.8248 15.8693 13.1984 15.7184C13.5719 15.5675 13.9113 15.3429 14.1962 15.0581C14.481 14.7732 14.7056 14.4338 14.8565 14.0603C15.0074 13.6867 15.0815 13.2866 15.0744 12.8838C15.0673 12.481 14.9791 12.0837 14.8151 11.7158C14.6512 11.3478 14.4147 11.0166 14.12 10.7419M6.06 18.8019C7.76941 20.1049 9.85089 20.8268 12 20.8619C19 20.8619 23 12.8619 23 12.8619C21.7561 10.5438 20.0309 8.51851 17.94 6.9219L6.06 18.8019Z" stroke="#969599" stroke-width="2" stroke-linecap="round" stroke-linejoin="round"/>
<path d="M23 1.86188L1 23.8619" stroke="#969599" stroke-width="2" stroke-linecap="round" stroke-linejoin="round"/>
</g>
<defs>
<clipPath id="clip0_171_18815">
<rect width="24" height="24" fill="white" transform="matrix(-1 0 0 1 24 0.861877)"/>
</clipPath>
</defs>
</svg>
