<svg width="24" height="24" viewBox="0 0 24 24" fill="none" xmlns="http://www.w3.org/2000/svg">
<g clip-path="url(#clip0_171_18168)">
<path d="M11.5375 17.5151V17.5387C11.54 18.0518 11.1249 18.4688 10.6119 18.4688H9.09375C8.57592 18.4688 8.15625 18.0491 8.15625 17.5312C8.15625 17.0134 8.57592 16.5938 9.09375 16.5938H10.6119C11.1213 16.5938 11.5349 17.0055 11.5375 17.5151ZM5.34375 16.5938C4.82592 16.5938 4.40625 17.0134 4.40625 17.5312C4.40625 18.0491 4.82592 18.4688 5.34375 18.4688C5.86158 18.4688 6.28125 18.0491 6.28125 17.5312C6.28125 17.0134 5.86158 16.5938 5.34375 16.5938ZM6.28125 12C6.28125 11.4822 5.86158 11.0625 5.34375 11.0625C4.82592 11.0625 4.40625 11.4822 4.40625 12C4.40625 12.5178 4.82592 12.9375 5.34375 12.9375C5.86158 12.9375 6.28125 12.5178 6.28125 12ZM6.28125 6.46875C6.28125 5.95092 5.86158 5.53125 5.34375 5.53125C4.82592 5.53125 4.40625 5.95092 4.40625 6.46875C4.40625 6.98658 4.82592 7.40625 5.34375 7.40625C5.86158 7.40625 6.28125 6.98658 6.28125 6.46875ZM19.5469 12C19.5469 11.4822 19.1272 11.0625 18.6094 11.0625H9.09375C8.57592 11.0625 8.15625 11.4822 8.15625 12C8.15625 12.5178 8.57592 12.9375 9.09375 12.9375H18.6094C19.1272 12.9375 19.5469 12.5178 19.5469 12ZM9.09375 7.40625H18.6562C19.1741 7.40625 19.5938 6.98658 19.5938 6.46875C19.5938 5.95092 19.1741 5.53125 18.6562 5.53125H9.09375C8.57592 5.53125 8.15625 5.95092 8.15625 6.46875C8.15625 6.98658 8.57592 7.40625 9.09375 7.40625ZM20.25 0H3.75C1.6822 0 0 1.6822 0 3.75V20.25C0 22.3178 1.6822 24 3.75 24H13.3594C13.8772 24 14.2969 23.5803 14.2969 23.0625C14.2969 22.5447 13.8772 22.125 13.3594 22.125H3.75C2.71617 22.125 1.875 21.2838 1.875 20.25V3.75C1.875 2.71617 2.71617 1.875 3.75 1.875H20.25C21.2838 1.875 22.125 2.71617 22.125 3.75V12.7031C22.125 13.221 22.5447 13.6406 23.0625 13.6406C23.5803 13.6406 24 13.221 24 12.7031V3.75C24 1.6822 22.3178 0 20.25 0ZM23.0773 15.6302C23.6723 16.2327 24 17.081 24 18.019C24 20.0015 22.296 21.2721 20.9267 22.2929C20.291 22.767 19.6904 23.2147 19.3396 23.6505C19.2517 23.7596 19.1405 23.8476 19.0142 23.9081C18.8878 23.9686 18.7495 24 18.6094 24C18.4693 24 18.331 23.9686 18.2046 23.9081C18.0782 23.8476 17.967 23.7596 17.8792 23.6505C17.5283 23.2147 16.9277 22.767 16.292 22.2929C14.9228 21.2721 13.2188 20.0015 13.2188 18.019C13.2188 17.081 13.5465 16.2326 14.1414 15.6303C14.722 15.0424 15.5182 14.7188 16.3828 14.7188C17.2786 14.7188 18.0465 15.0143 18.6094 15.5641C19.1723 15.0143 19.9402 14.7188 20.8359 14.7188C21.7005 14.7188 22.4967 15.0425 23.0773 15.6302ZM22.125 18.019C22.125 17.1533 21.6191 16.5938 20.8359 16.5938C20.1726 16.5938 19.9114 16.8741 19.7728 17.0849C19.593 17.3582 19.5492 17.6583 19.5438 17.7024C19.5147 18.1976 19.1062 18.5849 18.6094 18.5849C18.1126 18.5849 17.7041 18.1976 17.675 17.7024C17.6695 17.6585 17.6257 17.3582 17.4459 17.0849C17.3073 16.8741 17.0462 16.5938 16.3828 16.5938C15.5997 16.5938 15.0938 17.1533 15.0938 18.019C15.0938 19.0607 16.2726 19.9396 17.4126 20.7896C17.8198 21.0932 18.2349 21.4027 18.6094 21.7304C18.9838 21.4027 19.3989 21.0932 19.8061 20.7896C20.9461 19.9396 22.125 19.0607 22.125 18.019Z" fill="#004A98"/>
</g>
<defs>
<clipPath id="clip0_171_18168">
<rect width="24" height="24" fill="white"/>
</clipPath>
</defs>
</svg>
