<svg width="20" height="21" viewBox="0 0 20 21" fill="none" xmlns="http://www.w3.org/2000/svg">
<path d="M10 0.511719C4.4772 0.511719 0 4.98887 0 10.5117C0 16.0345 4.4772 20.5117 10 20.5117C15.5229 20.5117 20 16.0345 20 10.5117C20 4.98887 15.5229 0.511719 10 0.511719ZM10 15.5117C10.645 15.5117 11.2614 15.3896 11.8275 15.1672L14.064 17.404C12.8729 18.1078 11.4836 18.5117 10 18.5117C8.5164 18.5117 7.1271 18.1078 5.936 17.404L8.1725 15.1672C8.7386 15.3896 9.355 15.5117 10 15.5117ZM18 10.5117C18 11.9953 17.5961 13.3846 16.8924 14.5757L14.6555 12.3392C14.8779 11.7731 15 11.1567 15 10.5117C15 9.86672 14.8779 9.25032 14.6555 8.68422L16.8924 6.44776C17.5961 7.63879 18 9.02812 18 10.5117ZM3.1077 6.44776L5.3445 8.68422C5.1221 9.25032 5 9.86672 5 10.5117C5 11.1567 5.1221 11.7731 5.3445 12.3392L3.1077 14.5757C2.4039 13.3846 2 11.9953 2 10.5117C2 9.02812 2.4039 7.63879 3.1077 6.44776ZM10 7.51172C11.6569 7.51172 13 8.85482 13 10.5117C13 12.1686 11.6569 13.5117 10 13.5117C8.3431 13.5117 7 12.1686 7 10.5117C7 8.85482 8.3431 7.51172 10 7.51172ZM10 2.51172C11.4836 2.51172 12.8729 2.91558 14.064 3.61937L11.8275 5.85623C11.2614 5.63385 10.645 5.51172 10 5.51172C9.355 5.51172 8.7386 5.63385 8.1725 5.85623L5.936 3.61937C7.1271 2.91558 8.5164 2.51172 10 2.51172Z" fill="#80808F"/>
</svg>
