<svg width="100" height="61" viewBox="0 0 100 61" fill="none" xmlns="http://www.w3.org/2000/svg">
<path fill-rule="evenodd" clip-rule="evenodd" d="M58.677 30.2329C61.5376 28.3282 63.7094 25.5535 64.8711 22.3191C66.0328 19.0847 66.1229 15.5623 65.1279 12.2727C64.133 8.98318 62.1058 6.10113 59.3463 4.05276C56.5867 2.0044 53.2412 0.898438 49.8045 0.898438C46.3678 0.898438 43.0223 2.0044 40.2628 4.05276C37.5032 6.10113 35.476 8.98318 34.4811 12.2727C33.4861 15.5623 33.5762 19.0847 34.7379 22.3191C35.8997 25.5535 38.0714 28.3282 40.932 30.2329L41.591 30.6729L40.846 30.9409C34.907 33.0826 29.9262 37.2718 26.7984 42.7559C23.6706 48.2401 22.6007 54.6598 23.781 60.8619L27.181 60.1618C26.4875 56.4785 26.7027 52.6816 27.8082 49.1003C28.9137 45.519 30.876 42.2614 33.525 39.6098C37.634 35.4855 43.1585 33.0793 48.977 32.8799H49.011C49.295 32.8949 49.554 32.9209 49.8 32.9209C50.046 32.9209 50.3 32.8949 50.589 32.8799H50.622C56.5844 33.0944 62.2306 35.6153 66.3708 39.9113C70.511 44.2072 72.8217 49.9426 72.816 55.9089C72.8135 57.3358 72.6795 58.7595 72.416 60.1618L75.816 60.8619C76.9966 54.6596 76.1293 48.5854 73.0015 43.1011C69.8736 37.6167 64.6903 33.0816 58.751 30.9399L58.006 30.6719L58.677 30.2329ZM50.622 29.4028H50.602C50.328 29.3948 50.064 29.3829 49.802 29.3829C49.54 29.3829 49.278 29.3948 49.002 29.4028H48.964C45.9357 29.2082 43.0822 27.9162 40.938 25.7689L41.22 25.4859L40.937 25.7679C38.9049 23.7421 37.628 21.0814 37.319 18.2288C37.01 15.3761 37.6875 12.5037 39.2388 10.0898C40.79 7.67592 43.1213 5.86628 45.8445 4.96222C48.5677 4.05816 51.5184 4.11424 54.2053 5.12112C56.8922 6.12801 59.1531 8.02494 60.6115 10.496C62.0698 12.9671 62.6378 15.8632 62.2206 18.702C61.8034 21.5409 60.4263 24.1512 58.3187 26.0982C56.211 28.0453 53.5 29.2115 50.637 29.4028H50.622ZM88.809 39.2029C90.5868 38.0192 91.9364 36.2948 92.6584 34.2847C93.3803 32.2747 93.4363 30.0856 92.8179 28.0413C92.1996 25.997 90.9398 24.2059 89.2249 22.9329C87.5099 21.66 85.4308 20.9726 83.295 20.9726C81.1593 20.9726 79.0801 21.66 77.3652 22.9329C75.6502 24.2059 74.3904 25.997 73.7721 28.0413C73.1538 30.0856 73.2097 32.2747 73.9316 34.2847C74.6536 36.2948 76.0033 38.0192 77.781 39.2029C75.4446 40.0458 75.5015 40.1011 73.602 41.6011C72.5015 42.6011 73.5015 44.6011 75.0015 43.6011C77.4497 41.1434 79.3421 40.9685 82.809 40.8499C82.972 40.8579 83.133 40.8749 83.299 40.8749C83.465 40.8749 83.626 40.8579 83.789 40.8499C85.7823 40.9255 87.7353 41.4341 89.5123 42.3403C91.2893 43.2465 92.8478 44.5286 94.0795 46.0977C95.3112 47.6667 96.1867 49.485 96.6451 51.4264C97.1035 53.3677 97.1338 55.3856 96.734 57.3399L99.273 57.8609C100.059 54.0126 99.4343 50.01 97.5131 46.5842C95.5919 43.1584 92.5025 40.5381 88.809 39.2019V39.2029ZM78.092 36.1219C76.8996 34.9329 76.1503 33.3712 75.9691 31.697C75.7879 30.0228 76.1857 28.3371 77.0963 26.9205C78.0068 25.5039 79.375 24.4419 80.9733 23.9114C82.5715 23.3809 84.3033 23.4139 85.8801 24.0049C87.457 24.5959 88.7838 25.7092 89.6397 27.1594C90.4956 28.6097 90.8289 30.3094 90.584 31.9754C90.3392 33.6415 89.5311 35.1735 88.2942 36.3162C87.0573 37.459 85.4662 38.1435 83.786 38.2559C83.622 38.2559 83.46 38.2429 83.295 38.2429C83.13 38.2429 82.968 38.2509 82.804 38.2559C81.0259 38.1412 79.3507 37.3821 78.092 36.1209V36.1219ZM22.215 39.2029C23.9928 38.0192 25.3424 36.2948 26.0644 34.2847C26.7864 32.2747 26.8423 30.0856 26.2239 28.0413C25.6056 25.997 24.3458 24.2059 22.6309 22.9329C20.9159 21.66 18.8368 20.9726 16.701 20.9726C14.5652 20.9726 12.4861 21.66 10.7712 22.9329C9.05622 24.2059 7.79644 25.997 7.1781 28.0413C6.55977 30.0856 6.61569 32.2747 7.33765 34.2847C8.05961 36.2948 9.40926 38.0192 11.187 39.2029C7.49452 40.5398 4.40611 43.1603 2.48572 46.5858C0.565328 50.0113 -0.058904 54.0132 0.727022 57.8609L3.26602 57.3399C2.86264 55.3852 2.89041 53.3662 3.34738 51.4234C3.80435 49.4806 4.67951 47.6608 5.9119 46.0909C7.14429 44.521 8.70425 43.2388 10.483 42.3336C12.2618 41.4285 14.2165 40.9221 16.211 40.8499C16.374 40.8579 16.535 40.8749 16.701 40.8749C16.867 40.8749 17.028 40.8579 17.191 40.8499C20.658 40.9685 22.0532 41.1434 24.5015 43.6011C25.5015 45.1011 26.0015 44.1011 26.5015 43.1011C27.5268 41.0505 24.5532 40.0447 22.215 39.2019V39.2029ZM11.502 36.1209C10.3095 34.9319 9.56031 33.3702 9.37912 31.696C9.19794 30.0218 9.59572 28.3361 10.5062 26.9195C11.4167 25.5029 12.785 24.4409 14.3833 23.9104C15.9815 23.38 17.7132 23.4129 19.2901 24.0039C20.867 24.5949 22.1939 25.7082 23.0497 27.1585C23.9056 28.6087 24.2389 30.3084 23.9941 31.9745C23.7493 33.6406 22.9411 35.1725 21.7042 36.3152C20.4673 37.458 18.8762 38.1425 17.196 38.2549C17.032 38.2549 16.87 38.2419 16.705 38.2419C16.54 38.2419 16.378 38.2499 16.214 38.2549C14.4361 38.1404 12.7608 37.3817 11.502 36.1209Z" fill="#004B96"/>
</svg>
