<svg width="338" height="59" viewBox="0 0 338 59" fill="none" xmlns="http://www.w3.org/2000/svg">
<path d="M16.607 12.5359C16.607 12.7344 16.5788 12.9527 16.5717 13.138C16.3811 11.4903 15.4137 10.061 14.0297 9.18086C15.2443 11.2852 14.8983 13.9652 13.0059 15.7453C12.8435 15.8909 12.6811 16.0298 12.5187 16.1555C14.3757 13.9652 14.2486 10.7756 12.0879 8.75072C11.8902 8.56543 11.6854 8.39999 11.4807 8.2478C11.4312 8.2478 11.3748 8.24786 11.3324 8.23463V16.9695C11.3324 17.3136 11.0358 17.5848 10.6757 17.5848C10.3156 17.5848 10.0261 17.3136 10.0261 16.9695H10.0331V8.23463C9.97666 8.24125 9.92017 8.2478 9.86368 8.2478C9.66597 8.39999 9.46119 8.56543 9.27761 8.75072C7.09572 10.7756 6.96156 13.9652 8.83276 16.1555C8.66329 16.0298 8.49382 15.8909 8.34554 15.7453C6.46022 13.9652 6.1001 11.2852 7.31462 9.18086C5.93064 10.0676 4.97739 11.4969 4.77968 13.138C4.75849 12.9461 4.73731 12.7344 4.73731 12.5359C4.73731 10.0213 6.53083 7.89712 8.95986 7.21553C7.31462 6.91776 5.54934 7.2949 4.17242 8.33382C4.30658 8.18163 4.45486 8.02947 4.61727 7.87727C6.24839 6.34867 8.61386 5.89205 10.6757 6.53393C12.7376 5.89205 15.096 6.34867 16.7483 7.87727C16.8895 8.02285 17.0378 8.18163 17.179 8.33382C15.795 7.2949 14.0439 6.91776 12.3845 7.21553C14.8276 7.90374 16.6141 10.0213 16.6141 12.5359M10.6616 4.44946C5.08331 4.44946 0.557129 8.68459 0.557129 13.9255C0.557129 14.5012 0.620679 15.0636 0.733657 15.6129C4.33483 15.9636 7.75947 17.1878 10.6616 19.1333C13.5708 17.1878 16.9883 15.9636 20.6036 15.6129C20.7096 15.0703 20.7731 14.5012 20.7731 13.9255C20.7731 8.68459 16.254 4.44946 10.6616 4.44946ZM14.6441 22.6207C17.4897 21.4891 19.6645 19.1466 20.4624 16.3077C17.3132 16.8702 14.3475 18.1407 11.8337 19.9671C12.8576 20.7612 13.8038 21.6479 14.6441 22.6207ZM0.881942 16.3077C1.67279 19.1466 3.84055 21.4891 6.68618 22.6207C7.53351 21.6479 8.45852 20.7612 9.4965 19.9671C6.98981 18.1407 4.0312 16.8702 0.87488 16.3077M10.6616 20.8737C9.8425 21.5619 9.0799 22.3295 8.37378 23.1434C9.12226 23.289 9.87074 23.3882 10.6616 23.3882C11.4524 23.3882 12.215 23.289 12.9564 23.1434C12.2574 22.3295 11.4807 21.5619 10.6616 20.8737Z" fill="#A7A9AC"/>
<path d="M39.648 5.64095C38.9846 5.64095 38.5097 5.16907 38.5097 4.51574C38.5097 3.86242 38.9916 3.29617 39.648 3.29617C40.3045 3.29617 40.7654 3.83338 40.7654 4.51574C40.7654 5.1981 40.2835 5.64095 39.648 5.64095ZM35.6396 5.64095C35.0041 5.64095 34.5292 5.16907 34.5292 4.51574C34.5292 3.86242 35.0111 3.29617 35.6396 3.29617C36.2681 3.29617 36.7918 3.83338 36.7918 4.51574C36.7918 5.1981 36.303 5.64095 35.6396 5.64095ZM37.12 9.77863C34.4594 9.77863 33.1954 12.9073 33.1954 16.3264C33.1954 21.1537 35.3951 22.5983 36.8407 22.5983C38.5726 22.5983 40.0461 21.4006 40.5908 19.6076C40.8911 18.5768 40.9539 17.4153 40.9539 15.6658C40.9539 12.871 40.528 9.7641 37.127 9.7641M41.2472 20.0649C41.0098 20.6601 40.6467 21.2481 40.2207 21.7635C39.4735 22.6056 38.3282 23.4113 36.4217 23.4113C33.4328 23.4113 31.1772 19.9705 31.1772 16.1159C31.1772 12.5371 33.4957 8.97287 37.12 8.97287C39.3827 8.97287 40.8282 10.5989 41.2822 10.5989C41.8199 10.5989 41.9177 9.69152 42.1202 9.3213H42.9302C42.7906 10.0109 42.7906 10.824 42.7906 11.5136V19.8761C42.7906 20.7835 42.9302 22.504 44.7459 22.6129H47.8256V23.4186H45.5909C43.447 23.4186 41.6942 23.1137 41.2472 20.0722" fill="black"/>
<path d="M52.203 28.8126C51.5251 28.8126 51.0203 28.3542 51.0203 27.6844C51.0203 27.0145 51.5251 26.5281 52.203 26.5281C52.8809 26.5281 53.364 27.0357 53.364 27.6844C53.364 28.333 52.852 28.8126 52.203 28.8126ZM58.5058 23.4186C56.2919 23.4186 54.9289 22.5091 53.8905 20.4432C53.5155 22.361 51.9362 23.4186 49.7439 23.4186H47.8256V22.636H49.1814C51.179 22.5937 51.9939 21.4373 51.9939 19.4912V11.6789C51.9939 10.9103 51.965 10.7834 50.9049 10.4873L53.9842 9.87379V17.6016C53.9842 19.6464 55.376 22.636 57.8424 22.636H58.8015V23.4186H58.5058ZM48.0708 28.8126C47.4146 28.8126 46.9098 28.3542 46.9098 27.6844C46.9098 27.0145 47.4146 26.5281 48.0708 26.5281C48.7271 26.5281 49.2247 27.0357 49.2247 27.6844C49.2247 28.333 48.7631 28.8126 48.0708 28.8126Z" fill="black"/>
<path d="M58.81 22.5764H59.0739C60.9739 22.5764 61.7458 21.344 61.7458 19.3434V5.27369C61.7458 4.49083 61.7128 4.20811 60.743 3.89642L63.5601 3.26578V19.3506C63.5601 21.9529 62.0031 23.3882 59.661 23.3882H58.8034V22.5836L58.81 22.5764Z" fill="black"/>
<path d="M68.3221 19.5391V5.45491C68.3221 4.57782 67.8439 4.25886 65.9384 4.25886V3.447L70.3621 3.26578V19.7349C70.3621 21.518 71.2887 22.4749 72.9326 22.5836H74.2627V23.3882H72.7757C70.1977 23.3882 68.3221 22.4749 68.3221 19.5536" fill="black"/>
<path d="M84.0813 12.2862C80.4254 12.2862 80.8114 17.5536 79.0344 20.7829C79.1727 20.8762 79.2601 20.9695 79.2965 21.0556C80.1559 22.046 81.5615 23.7539 83.9211 23.7539C86.1496 23.7539 88.0869 21.3355 88.0869 18.3574C88.0869 15.3792 86.7687 12.3867 84.1614 12.2862H84.074H84.0813ZM94.3209 23.1941C92.0924 23.1941 90.9344 22.2684 89.791 20.5031C89.0409 22.699 87.0309 24.5719 83.79 24.5719C80.9934 24.5719 79.5951 22.9214 78.6629 21.6512L78.5391 21.522C77.7453 22.5482 76.9588 23.1941 75.2036 23.1941H74.286V22.3976H75.24C75.4585 22.3545 76.2815 22.2396 76.7184 21.7947C79.8864 18.9099 77.5924 11.5758 84.5984 11.5758C88.2252 11.5758 90.2061 15.3218 90.2061 18.1994C90.2061 18.5726 90.1697 18.9817 90.1042 19.3118C90.6358 20.8977 91.903 22.3904 93.6291 22.3904H94.3209C96.4329 22.3904 97.2777 21.1704 97.2777 19.1897V5.26079C97.2777 4.48576 97.2559 4.1987 96.1489 3.89729L99.2587 3.26578V19.1897C99.2587 21.766 97.5399 23.1869 94.9909 23.1869H94.3282L94.3209 23.1941Z" fill="black"/>
<path d="M103.684 5.27369C103.684 4.49083 103.662 4.20087 102.826 3.89642L105.205 3.26578V23.3882H103.684V5.27369Z" fill="black"/>
<path d="M130.222 6.61451C129.527 6.61451 129.064 6.17339 129.064 5.55576C129.064 4.93813 129.527 4.44946 130.222 4.44946C130.874 4.44946 131.366 4.91777 131.366 5.55576C131.366 6.19375 130.874 6.61451 130.222 6.61451ZM126.052 6.61451C125.4 6.61451 124.908 6.17339 124.908 5.55576C124.908 4.93813 125.393 4.44946 126.052 4.44946C126.747 4.44946 127.254 4.91777 127.254 5.55576C127.254 6.19375 126.747 6.61451 126.052 6.61451ZM129.346 10.714C129.064 10.6461 128.81 10.6189 128.586 10.6189C125.567 10.6189 122.345 13.6527 122.345 18.2069C122.345 19.9987 123.438 22.1977 125.53 22.2792C127.724 22.2792 129.353 20.053 129.353 17.6232V10.714H129.346ZM131.323 18.3563C131.323 23.1412 128.311 28.1229 122.41 28.1229C116.509 28.1229 113.46 23.1412 113.46 18.3563V14.1414C113.46 13.3473 113.004 13.0555 111.15 13.0555V12.2953L115.437 12.1189V18.3563C115.437 25.3945 118.934 27.3288 122.41 27.3288C125.4 27.3288 128.463 25.856 129.165 20.8268C128.354 22.1367 127.123 22.9308 124.879 22.9308C122.88 22.9308 120.382 21.1797 120.382 18.3969C120.382 13.2319 124.133 9.91983 129.353 9.91983H131.352L131.33 18.3631L131.323 18.3563Z" fill="black"/>
<path d="M143.368 20.688V10.0453C143.143 9.97171 142.87 9.94226 142.659 9.94226C139.843 9.94226 136.775 13.2322 136.775 18.1708C136.775 20.1433 137.804 22.3587 139.802 22.4691H143.218C143.313 21.8951 143.341 21.3504 143.368 20.688ZM149.204 23.2935H144.963C143.968 28.1585 140.695 29.3066 138.309 29.3066C137.9 29.3066 137.491 29.2625 136.4 29.1742C139.045 28.5486 142.106 27.6948 143.081 23.2935H139.168C137.313 23.2935 134.934 21.3945 134.934 18.3769C134.934 12.7759 138.459 9.18415 143.375 9.18415H145.29V20.5702C145.29 21.2694 145.195 21.9098 145.113 22.4839H149.204V23.3008V23.2935Z" fill="black"/>
<path d="M149.204 22.5601H149.506C151.487 22.5601 152.269 21.303 152.269 19.2623V13.458C152.269 12.6594 152.227 12.5337 151.22 12.2158L154.12 11.5798V17.2881C154.12 19.3954 155.422 22.5675 157.746 22.5675C159.769 22.5675 160.564 21.3104 160.564 19.2697V12.2823C160.564 11.4468 160.544 11.3655 159.508 11.0106L162.436 10.4042V17.2881C162.436 19.4324 163.8 22.5675 166.097 22.5675C168.112 22.5675 168.921 21.3104 168.921 19.2697V11.0771C168.921 10.2711 168.887 10.138 167.852 9.82743L170.779 9.18415V17.2881C170.779 19.4324 172.15 22.5675 174.447 22.5675H175.366V23.3882H175.092C173.001 23.3882 171.705 22.4048 170.69 20.2679C170.347 22.2791 168.853 23.3882 166.769 23.3882C164.684 23.3882 163.45 22.5009 162.354 20.2679C162.004 22.2791 160.489 23.3882 158.48 23.3882C156.471 23.3882 155.251 22.4566 154.188 20.5859L154.092 20.4306C153.688 22.3457 152.207 23.3882 150.136 23.3882H149.211V22.5675L149.204 22.5601Z" fill="black"/>
<path d="M175.372 22.5764H175.616C177.53 22.5764 178.307 21.344 178.307 19.3434V5.27369C178.307 4.49083 178.28 4.20811 177.3 3.89642L180.123 3.26578V19.3506C180.123 21.9529 178.557 23.3882 176.221 23.3882L175.366 23.3882V22.5836L175.372 22.5764Z" fill="black"/>
<path d="M184.553 5.27369C184.553 4.49083 184.531 4.20087 183.69 3.89642L186.068 3.26578V23.3882H184.553V5.27369Z" fill="black"/>
<path d="M204.067 5.61057C203.396 5.61057 202.914 5.13869 202.914 4.48536C202.914 3.83204 203.396 3.26578 204.067 3.26578C204.689 3.26578 205.171 3.803 205.171 4.48536C205.171 5.16772 204.689 5.61057 204.067 5.61057ZM200.048 5.61057C199.412 5.61057 198.923 5.13869 198.923 4.48536C198.923 3.83204 199.412 3.26578 200.048 3.26578C200.684 3.26578 201.194 3.803 201.194 4.48536C201.194 5.16772 200.698 5.61057 200.048 5.61057ZM201.523 9.74825C198.86 9.74825 197.595 12.877 197.595 16.296C197.595 21.1234 199.803 22.5679 201.257 22.5679C202.969 22.5679 204.451 21.3702 204.989 19.5772C205.297 18.5464 205.353 17.3849 205.353 15.6354C205.353 12.8406 204.94 9.73372 201.516 9.73372M205.653 20.0345C205.423 20.6298 205.059 21.2177 204.626 21.7331C203.878 22.5752 202.739 23.381 200.838 23.381C197.832 23.381 195.582 19.9401 195.582 16.0855C195.582 12.5067 197.902 8.94249 201.523 8.94249C203.787 8.94249 205.241 10.5685 205.688 10.5685C206.226 10.5685 206.31 9.66114 206.527 9.29092H207.338C207.198 9.98054 207.198 10.7936 207.198 11.4832V19.8458C207.198 20.7532 207.338 22.4736 209.155 22.5825H212.23V23.3882H210.008C207.862 23.3882 206.108 23.0834 205.653 20.0418" fill="black"/>
<path d="M218.764 6.12155V5.45722H217.71C216.25 5.45722 215.491 3.89526 215.491 2.91283C215.491 2.21312 215.884 1.51333 216.671 1.51333C217.036 1.51333 217.401 1.56989 217.521 1.88087C217.338 2.00103 217.127 2.29792 217.127 2.55237C217.127 2.91282 217.429 3.1884 217.766 3.1884C218.104 3.1884 218.363 3.00467 218.363 2.42511C218.363 1.54163 217.661 0.898438 216.727 0.898438C215.365 0.898438 214.55 2.00101 214.55 3.28028C214.55 4.25564 215.28 5.04728 215.912 5.45015H214.304L214.037 6.11448H218.771L218.764 6.12155ZM222.64 23.3882C220.491 23.3882 219.157 22.4765 218.153 20.4056C217.802 22.3281 216.25 23.3882 214.129 23.3882H212.254V22.6037H213.588C215.519 22.5613 216.32 21.4021 216.32 19.4514V11.6203C216.32 10.8499 216.285 10.7228 215.245 10.4259L218.251 9.80394V17.5502C218.251 19.5999 219.613 22.5966 222.008 22.5966H222.956V23.3812H222.647L222.64 23.3882Z" fill="black"/>
<path d="M227.314 28.7864C226.615 28.7864 226.125 28.3281 226.125 27.6582C226.125 26.9884 226.622 26.502 227.314 26.502C227.963 26.502 228.46 27.0095 228.46 27.6582C228.46 28.3069 227.963 28.7864 227.314 28.7864ZM233.599 23.3925C231.386 23.3925 230.024 22.4829 228.993 20.417C228.633 22.3349 227.04 23.3925 224.849 23.3925H222.918V22.6098H224.294C226.291 22.5675 227.098 21.4111 227.098 19.4651V11.6527C227.098 10.8842 227.055 10.7573 226.01 10.4612L229.087 9.84766V17.5755C229.087 19.6203 230.492 22.6098 232.95 22.6098H233.909V23.3925H233.599ZM223.177 28.7864C222.521 28.7864 222.017 28.3281 222.017 27.6582C222.017 26.9884 222.514 26.502 223.177 26.502C223.84 26.502 224.323 27.0095 224.323 27.6582C224.323 28.3069 223.855 28.7864 223.177 28.7864Z" fill="black"/>
<path d="M237.041 22.5822H238.679C240.871 22.5822 243.789 21.5568 243.789 18.5913C243.789 17.0716 242.565 16.297 241.376 16.297C239.633 16.297 237.85 18.0823 237.4 20.4724L237.048 22.5822H237.041ZM250.557 23.4011H233.909V22.5822H236.384C236.411 22.3167 236.474 22.1027 236.501 21.8666C236.522 21.424 236.619 21.0109 236.709 20.6347C237.241 17.8978 238.928 15.4191 241.749 15.4191C244.19 15.4191 245.572 17.2339 245.572 19.1519C245.572 20.5462 244.791 21.9478 243.007 22.5896H248.317C248.317 15.0061 245.365 11.2143 242.703 11.2143C239.212 11.2143 238.174 13.3757 237.663 16.4741H237.31C237.366 11.9815 239.903 10.388 242.655 10.388H242.682C247.218 10.388 250.557 16.6364 250.557 22.5896V23.4085V23.4011Z" fill="black"/>
<path d="M13.2609 43.9251H12.5926C12.1295 41.3215 10.7532 38.2898 7.76256 38.2898C5.43353 38.2898 2.75382 40.0577 2.75382 46.4664C2.75382 52.875 5.03654 54.643 7.8618 54.643C10.9716 54.643 12.6919 52.074 12.8242 48.4346H13.6381C13.6381 52.6748 11.4877 55.3474 7.8618 55.3474C3.01187 55.3474 0.557129 50.8102 0.557129 46.4664C0.557129 41.4113 3.87864 37.5923 7.8618 37.5923C10.1511 37.5923 11.3223 39.1876 11.8251 39.1876C12.2552 39.1876 12.4471 38.4349 12.5926 38.1379H13.2609V43.9251Z" fill="black"/>
<path d="M21.799 48.0676C19.5847 48.5928 16.6658 49.3295 16.6658 52.4369C16.6658 53.6405 17.6522 54.4283 18.652 54.4283C20.3698 54.4283 21.7923 52.3786 21.7923 49.9496V48.0676H21.799ZM23.4564 46.1711V53.1736C23.4564 53.9614 23.7382 54.1219 24.1073 54.1219C24.577 54.1219 24.8588 53.6478 24.8588 52.0722H25.5298C25.5298 53.8301 25.0735 55.0264 23.5436 55.0264C22.4365 55.0264 21.8996 54.2314 21.846 52.7579H21.8057C21.128 54.1876 19.8665 55.3474 18.095 55.3474C16.5182 55.3474 14.8272 54.3116 14.8272 52.2619C14.8272 48.9138 19.578 48.0093 21.8057 47.382V45.5146C21.8057 44.0193 21.081 43.0637 19.3364 43.0637C18.3165 43.0637 17.2764 43.465 16.6188 44.012L16.6725 44.0704C17.1556 44.0922 17.6857 44.4789 17.6857 45.201C17.6857 45.8283 17.2764 46.4848 16.545 46.4848C15.874 46.4848 15.4513 45.9304 15.4513 45.0041C15.4513 43.5452 17.1019 42.327 19.2827 42.327C21.9466 42.327 23.4631 43.2826 23.4631 46.1711" fill="black"/>
<path d="M29.1833 48.6064C29.1833 52.9499 29.99 54.1678 32.4497 54.1678C34.1945 54.1678 35.7096 52.5909 35.7096 48.6064C35.7096 44.622 34.1879 43.038 32.4497 43.038C30.7115 43.038 29.1833 44.6149 29.1833 48.6064ZM27.5763 44.3615C27.5763 43.6012 27.1958 43.3408 25.6938 43.3408V42.6368L29.157 42.4889V44.7487H29.2029C29.99 43.5449 30.5541 42.327 32.653 42.327C35.4997 42.327 37.4216 45.4245 37.4216 48.6064C37.4216 51.7884 35.4997 54.8859 32.2792 54.8859C30.9936 54.8859 29.9048 54.3156 29.2226 53.2808H29.1767V57.1597C29.1767 57.9199 29.5637 58.1804 31.1182 58.1804V58.8984H25.5298V58.1804C27.1893 58.1804 27.5697 57.9199 27.5697 57.1597V44.3615H27.5763Z" fill="black"/>
<path d="M42.635 38.7774C42.635 39.4373 42.1128 39.9289 41.4375 39.9289C40.7621 39.9289 40.219 39.4441 40.219 38.7774C40.219 38.1108 40.7482 37.5923 41.4375 37.5923C42.1267 37.5923 42.635 38.1041 42.635 38.7774ZM44.5566 54.1637H38.6107V53.4769C40.3722 53.4769 40.783 53.2413 40.783 52.5006V44.3865C40.783 43.6593 40.3792 43.4102 38.7917 43.4102V42.7368L42.4888 42.5954V52.5006C42.4888 53.2345 42.8856 53.4769 44.5496 53.4769V54.1637H44.5566Z" fill="black"/>
<path d="M51.3188 42.6264V43.3466H47.8413V52.4809C47.8413 54.0782 48.5548 54.6201 49.3519 54.6201C50.0268 54.6201 51.0489 54.0568 51.0489 52.0174V50.9121H51.6917V51.8463C51.6917 53.907 50.8367 55.3474 48.9405 55.3474C47.2371 55.3474 46.2729 54.3063 46.2729 52.3597V43.3466H44.5566V42.6264C46.5043 42.6264 47.0571 40.523 47.2049 38.776H47.8413V42.6264H51.3188Z" fill="black"/>
<path d="M60.6172 48.0676C58.1627 48.5928 54.91 49.3295 54.91 52.4369C54.91 53.6405 56.0142 54.4283 57.1183 54.4283C59.0356 54.4283 60.6097 52.3786 60.6097 49.9496V48.0676H60.6172ZM62.4524 46.1711V53.1736C62.4524 53.9614 62.7807 54.1219 63.191 54.1219C63.6983 54.1219 64.0116 53.6478 64.0116 52.0722H64.7726C64.7726 53.8301 64.2653 55.0264 62.5718 55.0264C61.3184 55.0264 60.7365 54.2314 60.6769 52.7579H60.6246C59.8712 54.1876 58.4761 55.3474 56.514 55.3474C54.7608 55.3474 52.8808 54.3116 52.8808 52.2619C52.8808 48.9138 58.1553 48.0093 60.6246 47.382V45.5146C60.6246 44.0193 59.8189 43.0637 57.8867 43.0637C56.7602 43.0637 55.5889 43.465 54.8653 44.012L54.9175 44.0704C55.4621 44.0922 56.0515 44.4789 56.0515 45.201C56.0515 45.8283 55.5889 46.4848 54.7907 46.4848C53.9924 46.4848 53.5746 45.9304 53.5746 45.0041C53.5746 43.5452 55.4099 42.327 57.8345 42.327C60.7962 42.327 62.4599 43.2826 62.4599 46.1711" fill="black"/>
<path d="M68.6597 52.5146C68.6597 53.2424 69.0645 53.4827 70.7185 53.4827V54.1637H64.7726V53.4827C66.5452 53.4827 66.9569 53.2491 66.9569 52.5146V39.3215C66.9569 38.5938 66.5522 38.3601 64.968 38.3601V37.6791L68.6597 37.5923V52.5213V52.5146Z" fill="black"/>
<path d="M81.872 37.5923L86.6797 50.9202H86.7834L91.8578 37.5923H96.8358V38.2597C94.7542 38.2597 94.3987 38.3798 94.3987 39.9148V51.8145C94.3987 53.3562 94.7542 53.4763 96.8803 53.4763V54.1571H89.8429V53.4763C92.0652 53.4763 92.3615 53.3562 92.3615 51.8145V38.8403H92.3097L86.3982 54.1571H85.7685L80.1238 38.8403H80.0571V51.7478C80.0571 52.9291 80.6794 53.4296 82.6054 53.483V54.1637H76.6643V53.483C78.5459 53.4363 79.1608 52.9357 79.1608 51.7478V39.9148C79.1608 38.3798 78.8126 38.2597 76.6643 38.2597V37.5923H81.872Z" fill="black"/>
<path d="M103.861 48.0676C101.655 48.5928 98.7311 49.3295 98.7311 52.4369C98.7311 53.6405 99.7236 54.4283 100.709 54.4283C102.439 54.4283 103.868 52.3786 103.868 49.9496V48.0676H103.861ZM105.497 46.1711V53.1736C105.497 53.9614 105.786 54.1219 106.155 54.1219C106.611 54.1219 106.906 53.6478 106.906 52.0722H107.583C107.583 53.8301 107.12 55.0264 105.598 55.0264C104.471 55.0264 103.955 54.2314 103.908 52.7579H103.854C103.17 54.1876 101.923 55.3474 100.153 55.3474C98.5702 55.3474 96.8803 54.3116 96.8803 52.2619C96.8803 48.9138 101.621 48.0093 103.854 47.382V45.5146C103.854 44.0193 103.123 43.0637 101.387 43.0637C100.367 43.0637 99.3279 43.465 98.6708 44.012L98.7244 44.0704C99.2005 44.0922 99.7437 44.4789 99.7437 45.201C99.7437 45.8283 99.3279 46.4848 98.6037 46.4848C97.9264 46.4848 97.5107 45.9304 97.5107 45.0041C97.5107 43.5452 99.1737 42.327 101.34 42.327C104.009 42.327 105.504 43.2826 105.504 46.1711" fill="black"/>
<path d="M110.639 44.2919C110.639 43.5576 110.266 43.3061 108.798 43.3061V42.6262L112.21 42.4834V45.4273H112.274C112.796 44.0064 113.626 42.327 115.307 42.327C116.234 42.327 117.096 42.9253 117.096 44.0199C117.096 44.7678 116.665 45.2233 116.028 45.2233C115.39 45.2233 114.952 44.863 114.952 44.1219C114.952 43.6868 115.146 43.3333 115.513 43.1361C115.448 43.0409 115.307 43.0137 115.171 43.0137C114.566 43.0137 113.143 43.748 112.538 46.5763C112.21 48.1196 112.21 50.3973 112.21 51.995C112.21 53.2324 112.596 53.4703 114.302 53.4703V54.1637H108.772V53.4703C110.259 53.4703 110.633 53.2323 110.633 52.4845V44.2919H110.639Z" fill="black"/>
<path d="M129.975 42.838V43.5054C127.976 43.6589 127.175 44.2262 123.813 47.2161L127.317 51.988C128.335 53.4096 128.665 53.4763 130.177 53.4763V54.1571H126.853L122.502 48.2506L121.259 49.2651V52.5153C121.259 53.2428 121.686 53.483 123.476 53.483V54.1637H117.096V53.483C118.983 53.483 119.417 53.2494 119.417 52.5153V39.3209C119.417 38.5934 118.976 38.3598 117.283 38.3598V37.6791L121.259 37.5923V48.4642L125.415 45.1005C125.879 44.7134 126.254 44.373 126.254 43.9926C126.254 43.6122 125.767 43.4988 124.202 43.4988V42.8314H129.983L129.975 42.838Z" fill="black"/>
<path d="M137.918 47.8081C137.918 45.6624 137.355 43.0715 134.988 43.0715C132.864 43.0715 131.911 45.5237 131.911 47.8081H137.918ZM131.917 49.3116C131.917 52.2675 133.178 54.6103 135.455 54.6103C137.458 54.6103 138.245 53.552 139.128 52.0778L139.684 52.4937C138.296 54.8146 137.208 55.3474 135.27 55.3474C132.109 55.3474 130.177 52.1215 130.177 48.8372C130.177 44.991 132.039 42.327 135.174 42.327C138.046 42.327 139.691 45.4288 139.691 48.5453H131.917V49.3116Z" fill="black"/>
<path d="M147.58 42.6264V43.3466H143.534V52.4809C143.534 54.0782 144.343 54.6201 145.28 54.6201C146.067 54.6201 147.258 54.0568 147.258 52.0174V50.9121H148.015V51.8463C148.015 53.907 147.011 55.3474 144.793 55.3474C142.822 55.3474 141.699 54.3063 141.699 52.3597V43.3466H139.691V42.6264C141.961 42.6264 142.605 40.523 142.763 38.776H143.534V42.6264H147.58Z" fill="black"/>
<path d="M157.92 47.7008H163.522L160.734 40.283L157.92 47.7008ZM152.772 54.1637V53.4827C154.396 53.4827 154.939 53.2691 155.263 52.4278L160.975 37.5923H161.581L167.266 52.568C167.562 53.3425 168.133 53.4827 169.42 53.4827V54.1637H163.088V53.4827C164.926 53.4827 165.291 53.2891 165.291 52.8084C165.291 52.134 164.031 49.3098 163.811 48.522H157.624C157.507 48.9293 156.206 52.114 156.206 52.8351C156.206 53.3959 156.763 53.4827 158.449 53.4827V54.1637H152.772Z" fill="black"/>
<path d="M179.444 53.1958C179.444 54.0017 179.831 54.2679 181.312 54.2679V55.022L177.742 55.1773V53.2032H177.694C176.815 54.5193 175.916 55.3474 173.945 55.3474C171.8 55.3474 170.195 54.5193 170.195 51.8206V44.2938C170.195 43.4952 169.801 43.2217 168.231 43.2217V42.4823L171.897 42.327V52.0128C171.897 53.7134 172.762 54.6006 174.249 54.6006C176.338 54.6006 177.735 52.7818 177.735 49.7873V44.2938C177.735 43.4952 177.341 43.2217 175.757 43.2217V42.4823L179.437 42.327V53.2032L179.444 53.1958Z" fill="black"/>
<path d="M188.074 42.6264V43.3466H184.603V52.4809C184.603 54.0782 185.297 54.6201 186.107 54.6201C186.775 54.6201 187.798 54.0568 187.798 52.0174V50.9121H188.447V51.8463C188.447 53.907 187.585 55.3474 185.689 55.3474C183.999 55.3474 183.022 54.3063 183.022 52.3597V43.3466H181.312V42.6264C183.259 42.6264 183.812 40.523 183.954 38.776H184.609V42.6264H188.08H188.074Z" fill="black"/>
<path d="M199.151 54.1571V46.3486C199.151 45.1005 199.151 43.2117 196.884 43.2117C194.965 43.2117 193.4 45.0538 193.4 48.2239V52.5086C193.4 53.2361 193.794 53.4763 195.36 53.4763V54.1571H189.636V53.4763C191.337 53.4763 191.732 53.2428 191.732 52.5086V39.3209C191.732 38.5934 191.337 38.3598 189.786 38.3598V37.6791L193.4 37.5923V44.8068H193.447C194.312 43.2918 195.36 42.5444 197.279 42.5444C199.436 42.5444 200.811 43.5855 200.811 46.1083V52.5153C200.811 53.2428 201.104 53.483 202.717 53.483V54.1637H199.144L199.151 54.1571Z" fill="black"/>
<path d="M211.551 48.8372C211.551 45.1223 210.456 43.0642 208.068 43.0642C205.68 43.0642 204.585 45.1223 204.585 48.8372C204.585 52.5521 205.68 54.603 208.068 54.603C210.456 54.603 211.551 52.5521 211.551 48.8372ZM202.717 48.8372C202.717 45.5383 204.715 42.327 208.068 42.327C211.421 42.327 213.419 45.5383 213.419 48.8372C213.419 52.1361 211.435 55.3474 208.068 55.3474C204.701 55.3474 202.717 52.1215 202.717 48.8372Z" fill="black"/>
<path d="M215.546 44.2919C215.546 43.5576 215.119 43.3061 213.442 43.3061V42.6262L217.356 42.4834V45.4273H217.407C218.018 44.0064 218.967 42.327 220.887 42.327C221.954 42.327 222.933 42.9253 222.933 44.0199C222.933 44.7678 222.425 45.2233 221.711 45.2233C220.998 45.2233 220.49 44.863 220.49 44.1219C220.49 43.6868 220.704 43.3333 221.123 43.1361C221.042 43.0409 220.887 43.0137 220.726 43.0137C220.034 43.0137 218.408 43.748 217.716 46.5763C217.356 48.1196 217.356 50.3973 217.356 51.995C217.356 53.2324 217.775 53.4703 219.74 53.4703V54.1637H213.419V53.4703C215.119 53.4703 215.546 53.2323 215.546 52.4845V44.2919Z" fill="black"/>
<path d="M226.981 38.7774C226.981 39.4373 226.443 39.9289 225.766 39.9289C225.089 39.9289 224.552 39.4441 224.552 38.7774C224.552 38.1108 225.082 37.5923 225.766 37.5923C226.408 37.5923 226.981 38.1041 226.981 38.7774ZM228.879 54.1637H222.933V53.4769C224.705 53.4769 225.103 53.2413 225.103 52.5006V44.3865C225.103 43.6593 224.705 43.4102 223.121 43.4102V42.7368L226.827 42.5954V52.5006C226.827 53.2345 227.218 53.4769 228.879 53.4769V54.1637Z" fill="black"/>
<path d="M235.641 42.6265V43.3467H232.16V52.4809C232.16 54.0782 232.861 54.6201 233.663 54.6201C234.338 54.6201 235.365 54.0568 235.365 52.0174V50.9122H236.014V51.8463C236.014 53.907 235.16 55.3474 233.252 55.3474C231.563 55.3474 230.593 54.3064 230.593 52.3598V43.3467H228.879V42.6265C230.818 42.6265 231.377 40.523 231.518 38.776H232.16V42.6265H235.641Z" fill="black"/>
<path d="M236.014 42.327H241.322V43.045C239.603 43.045 239.413 43.2748 239.413 43.6625C239.413 44.3087 240.773 47.7622 242.336 51.9841H242.388C243.944 47.6043 245.173 44.7539 245.173 43.8707C245.173 43.2748 244.807 43.045 243.427 43.045V42.327H247.906V43.045C246.696 43.045 246.323 43.3034 245.879 44.5169L242.336 54.2314C241.041 57.8143 240.257 58.8984 238.492 58.8984C237.289 58.8984 236.249 58.0009 236.249 56.8234C236.249 56.0121 236.785 55.4305 237.445 55.4305C238.021 55.4305 238.492 55.8685 238.492 56.4357C238.492 57.2112 238.093 57.6563 237.38 57.7065C237.537 57.9937 237.995 58.1733 238.603 58.1733C239.956 58.1733 240.917 56.6152 241.505 54.1955L237.831 44.0287C237.544 43.2245 236.955 43.0522 236.02 43.0522V42.3342L236.014 42.327Z" fill="black"/>
<path d="M318.139 20.1908L337.318 0.89911L337.427 57.6599L318.139 20.1908Z" fill="url(#paint0_linear_171_18801)"/>
<path d="M299.862 38.41L280.682 57.7016L280.573 0.940761L299.862 38.41Z" fill="url(#paint1_linear_171_18801)"/>
<path d="M299.889 38.4376L280.683 57.7019L337.443 57.5607L299.889 38.4376Z" fill="#004A98"/>
<path d="M318.111 20.1631L337.318 0.898834L280.557 1.04L318.111 20.1631Z" fill="#5EB3E4"/>
<defs>
<linearGradient id="paint0_linear_171_18801" x1="337.545" y1="57.66" x2="337.545" y2="0.899081" gradientUnits="userSpaceOnUse">
<stop stop-color="#B1B2B3"/>
<stop offset="0.692482" stop-color="white" stop-opacity="0.64"/>
<stop offset="1" stop-color="#D8D8D8" stop-opacity="0"/>
</linearGradient>
<linearGradient id="paint1_linear_171_18801" x1="280.456" y1="0.940686" x2="280.456" y2="57.7016" gradientUnits="userSpaceOnUse">
<stop stop-color="#B1B2B3"/>
<stop offset="0.692482" stop-color="white" stop-opacity="0.64"/>
<stop offset="1" stop-color="#D8D8D8" stop-opacity="0"/>
</linearGradient>
</defs>
</svg>
