<svg width="25" height="24" viewBox="0 0 25 24" fill="none" xmlns="http://www.w3.org/2000/svg">
<path d="M4.78524 1.90361H6.38283C6.89915 1.90361 7.36911 1.60568 7.5894 1.13872C7.74586 0.801965 8.01875 0.513081 8.37232 0.309897C8.7259 0.106714 9.14369 -0.00129674 9.57097 1.17495e-05H15.43C16.3087 1.17495e-05 17.0875 0.447206 17.4116 1.13785C17.6319 1.60531 18.1022 1.90361 18.619 1.90361H20.2158C21.3516 1.90475 22.4405 2.2874 23.2437 2.96763C24.0468 3.64786 24.4987 4.57011 24.5 5.5321V20.3715C24.4987 21.3335 24.0468 22.2558 23.2437 22.936C22.4405 23.6162 21.3516 23.9989 20.2158 24H4.78422C3.64839 23.9989 2.55947 23.6162 1.75631 22.936C0.953156 22.2558 0.501348 21.3335 0.5 20.3715V5.5321C0.501619 4.57003 0.95365 3.64778 1.75697 2.96758C2.56029 2.28738 3.64931 1.90475 4.78524 1.90361ZM16.5319 3.46274L15.7073 1.71282C15.6855 1.66571 15.6473 1.62531 15.5978 1.59695C15.5483 1.56859 15.4898 1.55361 15.43 1.55397H9.57097C9.5111 1.55368 9.45253 1.56879 9.40302 1.59731C9.35351 1.62583 9.31539 1.66641 9.29372 1.71368L8.46908 3.46361C8.44999 3.50179 8.44269 3.54346 8.44786 3.58469C8.45303 3.62592 8.47051 3.66536 8.49864 3.69929C8.52548 3.73405 8.56226 3.76249 8.60557 3.78196C8.64888 3.80144 8.69731 3.81131 8.74634 3.81066H16.2537C16.3027 3.81131 16.3511 3.80144 16.3944 3.78196C16.4377 3.76249 16.4745 3.73405 16.5014 3.69929C16.5299 3.66537 16.5477 3.62581 16.5531 3.5844C16.5585 3.54298 16.5512 3.50109 16.5319 3.46274ZM2.33683 20.3715C2.33626 20.3715 2.33581 20.372 2.33581 20.3725C2.33667 20.922 2.59476 21.4488 3.05353 21.8373C3.51258 22.2261 4.13503 22.4447 4.78422 22.4452H20.2158C20.865 22.4447 21.4874 22.2261 21.9465 21.8373C22.4055 21.4485 22.6637 20.9213 22.6642 20.3715V5.5321C22.6637 4.98219 22.4056 4.45492 21.9465 4.06599C21.4875 3.67706 20.8651 3.45825 20.2158 3.45756H19.5662C18.9196 3.45756 18.4253 4.06554 18.0212 4.57037C17.8258 4.81493 17.5626 5.01516 17.2547 5.15349C16.9467 5.29181 16.6033 5.36401 16.2547 5.36375H8.74736C8.03893 5.36375 7.37739 5.06677 6.97985 4.56951C6.57687 4.06412 6.08268 3.4567 5.4363 3.4567H4.78626C4.13697 3.45739 3.51452 3.6762 3.0555 4.06513C2.59648 4.45405 2.33838 4.98132 2.33784 5.53123V20.3705C2.33784 20.3711 2.33739 20.3715 2.33683 20.3715Z" fill="#004A98"/>
<path d="M6.871 10.4185H18.1305C18.3738 10.4185 18.6071 10.5151 18.7792 10.6872C18.9512 10.8592 19.0479 11.0925 19.0479 11.3358C19.0479 11.5792 18.9512 11.8125 18.7792 11.9845C18.6071 12.1566 18.3738 12.2532 18.1305 12.2532H6.86998C6.74951 12.2532 6.63022 12.2294 6.51895 12.1832C6.40767 12.137 6.30657 12.0694 6.22143 11.9842C6.13629 11.8989 6.06878 11.7978 6.02273 11.6864C5.97669 11.5751 5.95303 11.4558 5.9531 11.3353C5.95316 11.2149 5.97696 11.0956 6.02312 10.9843C6.06929 10.873 6.13692 10.7719 6.22216 10.6868C6.30739 10.6017 6.40856 10.5341 6.51989 10.4881C6.63122 10.4421 6.75052 10.4184 6.871 10.4185ZM9.42543 14.5834H15.575C15.8183 14.5834 16.0517 14.6801 16.2237 14.8521C16.3958 15.0242 16.4924 15.2575 16.4924 15.5008C16.4924 15.7441 16.3958 15.9775 16.2237 16.1495C16.0517 16.3215 15.8183 16.4182 15.575 16.4182H9.42543C9.18212 16.4182 8.94878 16.3215 8.77673 16.1495C8.60469 15.9775 8.50803 15.7441 8.50803 15.5008C8.50803 15.2575 8.60469 15.0242 8.77673 14.8521C8.94878 14.6801 9.18212 14.5834 9.42543 14.5834Z" fill="#004A98"/>
</svg>
