<svg width="25" height="24" viewBox="0 0 25 24" fill="none" xmlns="http://www.w3.org/2000/svg">
<path d="M21.1012 14.3407C20.4299 16.1443 20.4701 18.2993 21.8311 19.6599L23.664 21.4925C24.1257 21.954 24.1258 22.7025 23.6641 23.1641C23.2025 23.6258 22.454 23.6257 21.9925 23.164L20.1599 21.3311C18.7993 19.9701 16.6443 19.9299 14.8407 20.6012C13.6628 21.0396 12.4079 21.2679 11.1331 21.2661C5.26361 21.2661 0.5 16.5025 0.5 10.6331C0.5 4.76361 5.26361 0 11.1331 0C17.0025 0 21.7661 4.76361 21.7661 10.6331C21.7679 11.9079 21.5396 13.1628 21.1012 14.3407ZM17.0699 16.3926C18.5693 14.8507 19.4066 12.7838 19.4032 10.6331C19.4032 6.06439 15.7017 2.3629 11.1331 2.3629C6.56439 2.3629 2.8629 6.06439 2.8629 10.6331C2.8629 15.2017 6.56439 18.9032 11.1331 18.9032C13.2838 18.9066 15.3507 18.0693 16.8926 16.5699L17.0699 16.3926Z" fill="#004A98"/>
</svg>
