<svg width="25" height="23" viewBox="0 0 25 23" fill="none" xmlns="http://www.w3.org/2000/svg">
<path fill-rule="evenodd" clip-rule="evenodd" d="M23.3359 0H8.86893C8.53687 0.0241195 8.22774 0.178277 8.00867 0.428986C7.78961 0.679694 7.6783 1.00671 7.69893 1.339V3.327C7.67831 3.65919 7.78964 3.9861 8.00873 4.23665C8.22782 4.4872 8.53696 4.64113 8.86893 4.66499H23.3359C23.6671 4.64112 23.9755 4.48771 24.1943 4.23801C24.4131 3.9883 24.5247 3.66242 24.5049 3.33099V1.343C24.5269 1.01014 24.4164 0.682084 24.1973 0.430466C23.9783 0.178847 23.6686 0.0241013 23.3359 0ZM23.3359 9.034H8.86893C8.53696 9.05787 8.22782 9.21181 8.00873 9.46236C7.78964 9.71291 7.67831 10.0398 7.69893 10.372V12.36C7.67831 12.6922 7.78964 13.0191 8.00873 13.2696C8.22782 13.5202 8.53696 13.6741 8.86893 13.698H23.3359C23.6671 13.6741 23.9755 13.5207 24.1943 13.271C24.4131 13.0213 24.5247 12.6954 24.5049 12.364V10.376C24.5258 10.0439 24.4147 9.717 24.1958 9.46642C23.9769 9.21583 23.6678 9.06186 23.3359 9.03799V9.034ZM23.3359 18.067H8.86893C8.53687 18.0911 8.22774 18.2453 8.00867 18.496C7.78961 18.7467 7.6783 19.0737 7.69893 19.406V21.4C7.67831 21.7322 7.78964 22.0591 8.00873 22.3096C8.22782 22.5602 8.53696 22.7141 8.86893 22.738H23.3359C23.6677 22.7139 23.9766 22.5598 24.1955 22.3093C24.4144 22.0588 24.5256 21.732 24.5049 21.4V19.41C24.5258 19.0778 24.4148 18.7508 24.1959 18.5C23.9769 18.2493 23.6679 18.0951 23.3359 18.071V18.067ZM4.22293 0H1.62293C1.29077 0.023865 0.981481 0.177942 0.762363 0.428711C0.543245 0.679479 0.432035 1.00665 0.45293 1.339V3.327C0.432043 3.65925 0.543282 3.9863 0.762424 4.23691C0.981567 4.48752 1.29086 4.64138 1.62293 4.66499H4.22293C4.55491 4.64113 4.86404 4.4872 5.08313 4.23665C5.30222 3.9861 5.41355 3.65919 5.39293 3.327V1.339C5.41356 1.00671 5.30226 0.679694 5.08319 0.428986C4.86413 0.178277 4.55499 0.0241195 4.22293 0ZM4.22293 9.034H1.62293C1.29086 9.05761 0.981567 9.21149 0.762424 9.4621C0.543282 9.71271 0.432043 10.0397 0.45293 10.372V12.36C0.432043 12.6923 0.543282 13.0193 0.762424 13.2699C0.981567 13.5205 1.29086 13.6744 1.62293 13.698H4.22293C4.55491 13.6741 4.86404 13.5202 5.08313 13.2696C5.30222 13.0191 5.41355 12.6922 5.39293 12.36V10.372C5.41246 10.0405 5.30063 9.71461 5.08165 9.46494C4.86268 9.21526 4.55417 9.06187 4.22293 9.03799V9.034ZM4.22293 18.067H1.62293C1.29077 18.0909 0.981481 18.2449 0.762363 18.4957C0.543245 18.7465 0.432035 19.0736 0.45293 19.406V21.4C0.432309 21.7322 0.543655 22.0591 0.762745 22.3096C0.981835 22.5602 1.29096 22.7141 1.62293 22.738H4.22293C4.55491 22.7141 4.86404 22.5602 5.08313 22.3096C5.30222 22.0591 5.41355 21.7322 5.39293 21.4V19.41C5.41356 19.0777 5.30226 18.7507 5.08319 18.5C4.86413 18.2493 4.55499 18.0951 4.22293 18.071V18.067Z" fill="#9295AB"/>
</svg>
