<svg width="19" height="18" viewBox="0 0 19 18" fill="none" xmlns="http://www.w3.org/2000/svg">
<path d="M16.4206 10.7555C15.9172 12.1082 15.9473 13.7245 16.968 14.7449L18.3427 16.1194C18.689 16.4655 18.689 17.0269 18.3428 17.3731C17.9966 17.7193 17.4353 17.7193 17.0891 17.373L15.7147 15.9983C14.6942 14.9776 13.0779 14.9475 11.7253 15.4509C10.8419 15.7797 9.90065 15.951 8.94452 15.9496C4.54244 15.9496 0.969727 12.3769 0.969727 7.9748C0.969727 3.57271 4.54244 0 8.94452 0C13.3466 0 16.9193 3.57271 16.9193 7.9748C16.9207 8.93092 16.7494 9.87214 16.4206 10.7555ZM13.3971 12.2945C14.5217 11.138 15.1497 9.58786 15.1471 7.9748C15.1471 4.54829 12.371 1.77218 8.94452 1.77218C5.51802 1.77218 2.7419 4.54829 2.7419 7.9748C2.7419 11.4013 5.51802 14.1774 8.94452 14.1774C10.5576 14.18 12.1078 13.5519 13.2642 12.4274L13.3971 12.2945Z" fill="#9295AB"/>
</svg>
