<svg width="54" height="74" viewBox="0 0 54 74" fill="none" xmlns="http://www.w3.org/2000/svg">
<path d="M50.8997 58.1362H43.86V65.3235L50.8997 58.1362Z" fill="#5EB3E4"/>
<path d="M9.58072 31.4709H43.1543V37.6902H9.58072V31.4709Z" fill="#5EB3E4"/>
<path d="M13.7814 60.5483C11.4614 60.5483 9.58059 58.6677 9.58059 56.3476C9.58059 54.0276 11.4614 52.1467 13.7814 52.1467C16.1014 52.1467 17.9822 54.0276 17.9822 56.3476C17.9822 58.6677 16.1014 60.5483 13.7814 60.5483Z" fill="#5EB3E4"/>
<path d="M19.3773 11.9438H21.6418V14.2083H19.3773V11.9438Z" fill="#5EB3E4"/>
<path d="M14.8483 11.9438H17.1128V14.2083H14.8483V11.9438Z" fill="#5EB3E4"/>
<path d="M10.3358 11.9438H12.6003V14.2083H10.3358V11.9438Z" fill="#5EB3E4"/>
<path d="M14.3231 66.0947C15.3077 66.0947 16.243 65.9306 17.1292 65.6352V72.7077H10.1716V65.0938C11.4187 65.7337 12.8299 66.0947 14.3231 66.0947Z" fill="#5EB3E4"/>
<path d="M42.7441 66.1522C42.7441 66.6098 42.3731 66.9808 41.9155 66.9808H20.2788C19.7265 66.9808 19.2788 66.5331 19.2788 65.9808V65.3399C19.2788 65.3308 19.2861 65.3235 19.2952 65.3235H41.9155C42.3731 65.3235 42.7441 65.6945 42.7441 66.1522Z" fill="#004A98" stroke="#004A98"/>
<path d="M52 1.08081C52.5523 1.08081 53 1.52853 53 2.08081V55.9374C53 56.3905 52.6327 56.7579 52.1795 56.7579C51.7264 56.7579 51.3591 56.3905 51.3591 55.9374V3.72174C51.3591 3.16946 50.9113 2.72175 50.3591 2.72175H3.31147C2.75919 2.72175 2.31147 3.16946 2.31147 3.72175V64.3235C2.31147 64.8758 2.75919 65.3235 3.31147 65.3235H5.56871C6.02637 65.3235 6.39738 65.6945 6.39738 66.1522C6.39738 66.6098 6.02637 66.9809 5.56871 66.9809H1.67053C1.11825 66.9809 0.670532 66.5331 0.670532 65.9809V2.08081C0.670532 1.52852 1.11825 1.08081 1.67053 1.08081H52Z" fill="#004A98" stroke="#004A98"/>
<path d="M26.9092 17.5067V8.39941H5.57701V16.6862V17.5067H26.9092ZM25.2682 15.8658H7.21795V10.0403H25.2519V15.8658H25.2682Z" fill="#004A98"/>
<path d="M26.9092 21.8716V20.2307H5.57701V21.8716H26.9092Z" fill="#004A98"/>
<path d="M26.9092 25.941V24.3H5.57701V25.941H26.9092Z" fill="#004A98"/>
<path d="M45.9932 21.9698V20.3289H30.0105V21.9698H45.9932Z" fill="#004A98"/>
<path d="M45.9932 25.941V24.3H30.0105V25.941H45.9932Z" fill="#004A98"/>
<path d="M45.9932 10.0403V8.39941H30.0105V10.0403H45.9932Z" fill="#004A98"/>
<path d="M45.9932 14.0113V12.3704H30.0105V14.0113H45.9932Z" fill="#004A98"/>
<path d="M45.9932 17.9988V16.3579H30.0105V17.9988H45.9932Z" fill="#004A98"/>
<path d="M46.8137 38.3136V28.5337H8.21898V37.4931V38.3136H46.8137ZM45.1728 36.6727H9.85992V30.1746H45.1728V36.6727Z" fill="#004A98"/>
<path d="M45.9932 43.4825V41.8416H11.911V43.4825H45.9932Z" fill="#5EB3E4"/>
<path d="M45.9932 48.3233V46.6824H30.0105V48.3233H45.9932Z" fill="#5EB3E4"/>
<path d="M20.1155 55.6583C20.1155 52.4584 17.5228 49.8657 14.3229 49.8657C11.1231 49.8657 8.53048 52.4584 8.53048 55.6583C8.53048 58.8581 11.1231 61.4508 14.3229 61.4508C17.5228 61.4508 20.1155 58.8581 20.1155 55.6583ZM18.4745 55.6583C18.4745 57.9556 16.6202 59.8099 14.3229 59.8099C12.0256 59.8099 10.1714 57.9556 10.1714 55.6583C10.1714 53.361 12.0256 51.5067 14.3229 51.5067C16.6202 51.5067 18.4745 53.361 18.4745 55.6583Z" fill="#004A98"/>
<path d="M5.05193 55.6583C5.05193 50.5386 9.20344 46.387 14.3232 46.387C19.4429 46.387 23.5945 50.5386 23.5945 55.6583C23.5945 58.5792 22.2325 61.1883 20.1157 62.8949V73.1998H8.5307V62.8949C6.4139 61.1883 5.05193 58.5792 5.05193 55.6583ZM21.9371 55.6583C21.9371 51.4411 18.5239 48.0443 14.3067 48.0279C10.0895 48.0279 6.69285 51.4411 6.67644 55.6583C6.69285 59.8755 10.0895 63.2723 14.3067 63.2887C18.5239 63.2723 21.9371 59.8755 21.9371 55.6583ZM10.1716 71.5589H18.4748V63.9451C17.2277 64.5687 15.8164 64.9296 14.3232 64.9296C12.8299 64.9296 11.4188 64.5687 10.1716 63.9451V71.5589Z" fill="#004A98"/>
<path d="M41.6612 66.3761C41.7243 66.3114 41.7597 66.2245 41.7597 66.1341V56.7405C41.7597 56.1882 42.2074 55.7405 42.7597 55.7405H51.9836C52.5359 55.7405 52.9836 56.1882 52.9836 56.7405V56.9672C52.9836 57.2324 52.8783 57.4868 52.6907 57.6743L43.6935 66.6715C43.506 66.8591 43.2516 66.9644 42.9864 66.9644H41.7597C41.5088 66.9644 41.3816 66.6625 41.5569 66.483L41.6612 66.3761ZM48.7964 59.0966C49.4152 58.4633 48.9666 57.3976 48.0812 57.3976H44.417C43.8647 57.3976 43.417 57.8454 43.417 58.3976V62.1473C43.417 63.0438 44.5056 63.4874 45.1322 62.8462L48.7964 59.0966Z" fill="#004A98" stroke="#004A98"/>
</svg>
