<svg width="62" height="62" viewBox="0 0 62 62" fill="none" xmlns="http://www.w3.org/2000/svg">
<path d="M57.4396 53.7935C57.4396 53.7935 47.1477 47.0017 36.1706 53.7935C29.6022 56.7723 5.02661 59.7512 5.02661 59.7512H57.4396V53.7935Z" fill="#5EB3E4"/>
<path d="M38.8661 32.4794C39.4916 32.4794 40.0278 31.9431 40.0427 31.3027C40.0427 30.6473 39.5363 30.126 38.881 30.126C38.2554 30.126 37.7043 30.6622 37.6895 31.2878C37.6895 31.9133 38.2405 32.4794 38.8661 32.4794Z" fill="white"/>
<path d="M0.349609 59.9594C0.721967 59.2892 1.28796 59.0658 2.03267 59.1254C2.53908 59.1552 3.04545 59.1254 3.62632 59.1254C3.62632 58.2765 3.62632 57.487 3.62632 56.6977C3.62632 55.8487 3.62632 54.9996 3.62632 54.1506C3.62632 53.1378 3.87955 52.8102 4.86258 52.5719C6.41158 52.1847 7.96059 51.7825 9.52449 51.4101C9.91175 51.3207 10.1203 51.1419 10.2692 50.7696C10.7756 49.4887 11.3118 48.2078 11.8629 46.9418C12.0118 46.6141 11.9671 46.3759 11.7884 46.0631C10.9394 44.6779 10.1054 43.2927 9.27127 41.8926C8.76487 41.0437 8.82445 40.6267 9.50959 39.9416C10.8948 38.5564 12.2799 37.1712 13.6651 35.786C14.3502 35.1009 14.7822 35.0561 15.6163 35.5477C17.0312 36.3817 18.4164 37.2457 19.8462 38.0649C20.0547 38.184 20.4122 38.1988 20.6505 38.1094C21.9612 37.603 23.257 37.0669 24.5379 36.5009C24.7762 36.3967 25.0294 36.0989 25.1039 35.8457C25.5209 34.2966 25.8933 32.7476 26.2806 31.1986C26.5338 30.1709 26.8763 29.8879 27.9338 29.8879C29.8552 29.8879 31.7765 29.8879 33.6979 29.8879C34.6809 29.8879 35.0384 30.1709 35.2916 31.139C35.6937 32.7029 36.0661 34.2818 36.4831 35.8457C36.5427 36.084 36.7661 36.3668 36.9896 36.4711C38.3003 37.052 39.6407 37.603 40.9812 38.1243C41.1897 38.2137 41.5323 38.1691 41.7259 38.05C43.1409 37.2308 44.5409 36.3668 45.9559 35.5327C46.79 35.0412 47.2219 35.086 47.9071 35.7711C49.2922 37.1563 50.6774 38.5415 52.0626 39.9267C52.7477 40.6118 52.7924 41.0288 52.3009 41.8777C51.4817 43.248 50.6625 44.6332 49.8135 45.9886C49.605 46.3162 49.5603 46.5844 49.7242 46.9716C50.2752 48.2228 50.7965 49.4739 51.288 50.7548C51.437 51.1272 51.6306 51.3058 52.0328 51.3952C53.6115 51.7676 55.1755 52.1698 56.7543 52.5719C57.6479 52.7953 57.9309 53.1379 57.9309 54.0762C57.9458 55.521 57.9309 56.9656 57.9309 58.4103C57.9309 58.6189 57.9309 58.8424 57.9309 59.1105C58.5267 59.1105 59.048 59.1105 59.5842 59.1105C60.4927 59.1105 60.9247 59.3487 61.1332 59.9296C61.3417 60.5254 61.1332 60.9425 60.3885 61.4787C40.4003 61.4787 20.3973 61.4787 0.409199 61.4787C0.349622 60.9871 0.349609 60.4658 0.349609 59.9594ZM28.4253 32.3157C28.0083 33.9839 27.5912 35.6222 27.1891 37.2754C27.055 37.8265 26.7572 38.184 26.2359 38.3925C24.4039 39.1372 22.5868 39.8969 20.7548 40.6565C20.2037 40.8948 19.742 40.8351 19.2356 40.5223C17.9546 39.7329 16.6588 38.9734 15.3779 38.1989C15.2141 38.0946 15.0503 38.0201 14.946 37.9605C13.814 39.0776 12.7416 40.1499 11.6395 41.267C12.4735 42.6522 13.3077 44.0673 14.1864 45.4822C14.529 46.0333 14.5737 46.5546 14.3205 47.1653C13.5906 48.893 12.8608 50.6207 12.1757 52.3634C11.9225 53.0187 11.5054 53.3762 10.8203 53.5401C9.36065 53.8677 7.90102 54.2401 6.45628 54.6273C6.29244 54.672 6.03924 54.8656 6.03924 54.9997C6.00945 56.3551 6.02433 57.7104 6.02433 59.0956C10.1054 59.0956 14.1119 59.0956 18.1185 59.0956C18.1334 59.0509 18.1334 59.021 18.1334 59.0062C18.1185 58.887 18.1185 58.7679 18.1036 58.6487C17.6418 54.0911 19.1015 50.2483 22.5868 47.2844C23.6294 46.4056 24.9252 45.8248 26.1167 45.1546C26.5486 44.9014 27.0402 44.9609 27.4423 45.3184C27.8147 45.6312 27.904 46.0481 27.7998 46.4949C27.6806 47.046 27.204 47.2546 26.7571 47.4482C23.823 48.7142 21.8718 50.874 20.8739 53.8975C20.3079 55.5955 20.2186 57.3232 20.5909 59.0807C27.4125 59.0807 34.1894 59.0807 40.9961 59.0807C41.5323 55.7295 40.8025 52.7654 38.5981 50.2036C37.4959 48.9227 36.1257 48.0142 34.5766 47.344C33.8468 47.0312 33.5787 46.3758 33.8468 45.7651C34.1149 45.1396 34.7703 44.8714 35.4852 45.1842C39.3131 46.7928 41.8451 49.5633 43.0515 53.5401C43.6026 55.3572 43.6622 57.1891 43.409 59.0807C47.4602 59.0807 51.4817 59.0807 55.5329 59.0807C55.5329 57.7104 55.5478 56.3847 55.5181 55.0591C55.5181 54.9102 55.2351 54.672 55.0414 54.6124C53.5967 54.2252 52.1371 53.8677 50.6774 53.5252C50.1263 53.3911 49.6943 53.1528 49.4709 52.5868C48.7113 50.725 47.9368 48.8632 47.1623 47.0015C46.9687 46.5248 46.9836 46.0929 47.2666 45.646C47.7283 44.8864 48.19 44.1268 48.6369 43.3522C49.0688 42.6224 49.5007 41.9075 49.888 41.2819C48.7411 40.1351 47.6688 39.0627 46.5666 37.9605C45.1814 38.7946 43.7366 39.6435 42.3068 40.5223C41.7855 40.85 41.3089 40.8799 40.7429 40.6416C39.2684 40.0011 37.8236 39.3309 36.3044 38.8245C34.9788 38.3926 34.3086 37.6328 34.1001 36.2476C33.8915 34.9072 33.4596 33.6115 33.1319 32.3157C31.4935 32.3157 29.9892 32.3157 28.4253 32.3157Z" fill="#004C95"/>
<path d="M0.349609 22.4259C0.587918 22.1132 0.796423 21.7706 1.07941 21.5025C5.33918 17.2278 9.61384 12.953 13.8736 8.69327C14.8417 7.72514 15.3481 7.72514 16.3014 8.69327C20.6058 12.9977 24.9252 17.3171 29.2296 21.6216C29.3786 21.7705 29.4977 21.9642 29.602 22.0834C34.6362 17.0491 39.5961 12.0893 44.7197 6.96567C44.6303 6.90609 44.392 6.84643 44.2431 6.69749C42.9622 5.43148 41.6961 4.15066 40.4152 2.88465C40.0131 2.4825 39.7748 2.02066 40.0131 1.45467C40.2514 0.888692 40.7131 0.709961 41.3089 0.709961C47.4453 0.709961 53.5818 0.709961 59.7182 0.709961C60.7161 0.709961 61.163 1.15677 61.163 2.18448C61.163 8.30603 61.163 14.4128 61.163 20.5343C61.163 21.1152 60.9991 21.5918 60.4332 21.845C59.8374 22.0982 59.3608 21.845 58.9437 21.428C57.5437 20.0279 56.1585 18.6279 54.7286 17.1831C54.5499 17.347 54.3861 17.4958 54.2371 17.6298C50.4987 21.3683 46.7602 25.1068 43.0217 28.8453C42.8281 29.0389 42.6196 29.2325 42.3962 29.3814C41.9195 29.6793 41.3685 29.6049 40.9812 29.2176C40.594 28.8453 40.5046 28.2645 40.8025 27.8027C40.9514 27.5644 41.145 27.3708 41.3387 27.1771C45.0622 23.4536 48.7858 19.73 52.5094 16.0064C52.6583 15.8575 52.852 15.7383 52.9562 15.649C50.7072 13.3999 48.5177 11.2106 46.358 9.0509C41.4727 13.9362 36.5129 18.896 31.4936 23.9154C31.9851 24.4069 32.5659 24.943 33.1021 25.5239C33.3255 25.7771 33.5192 26.1047 33.6085 26.4324C33.7277 26.8941 33.5192 27.2814 33.1021 27.5495C32.7 27.8027 32.268 27.8176 31.8808 27.5644C31.6425 27.4154 31.4489 27.2218 31.2553 27.0282C26.0423 21.8301 20.8441 16.6171 15.6311 11.4041C15.4673 11.2403 15.3481 11.0169 15.2141 10.8381C15.1247 10.8232 15.0354 10.8083 14.946 10.7934C14.8268 11.0019 14.7226 11.2254 14.5588 11.4041C10.582 15.3809 6.60522 19.3577 2.64334 23.3345C2.27099 23.7068 1.83901 24.0941 1.30282 23.8706C0.930463 23.7217 0.662389 23.3493 0.349609 23.0663C0.349609 22.8131 0.349609 22.6196 0.349609 22.4259ZM44.1984 3.09319C49.0539 7.94873 53.9244 12.819 58.7501 17.6447C58.7501 12.8488 58.7501 7.97851 58.7501 3.09319C53.8648 3.09319 49.0093 3.09319 44.1984 3.09319Z" fill="#004C95"/>
<path d="M0.349609 39.0477C0.587918 38.7349 0.796409 38.3923 1.06451 38.1242C6.24772 32.9261 11.4458 27.743 16.6291 22.5449C16.7929 22.381 16.9717 22.2024 17.1653 22.0683C17.6717 21.7109 18.2674 21.7704 18.6845 22.1725C19.0866 22.5747 19.1611 23.23 18.7738 23.6918C18.2823 24.2726 17.7163 24.8088 17.1801 25.3599C17.061 25.4791 16.9418 25.6131 16.7184 25.8663C16.9567 26.045 17.2099 26.1939 17.4035 26.3875C19.2355 28.2195 21.0824 30.0516 22.8995 31.8836C23.1081 32.0921 23.3315 32.3155 23.4506 32.5836C23.6591 33.0602 23.5847 33.5219 23.1825 33.8943C22.7804 34.2667 22.3038 34.3411 21.8123 34.0581C21.574 33.9241 21.3654 33.7305 21.1718 33.5369C19.31 31.6751 17.4482 29.8133 15.5864 27.9515C15.4375 27.8026 15.3184 27.609 15.0205 27.2366C14.812 27.5792 14.7226 27.8175 14.5588 27.9813C10.5969 31.9581 6.62012 35.9349 2.64334 39.9117C2.27099 40.284 1.83901 40.6713 1.30282 40.4627C0.930463 40.3138 0.662389 39.9414 0.349609 39.6733C0.349609 39.4499 0.349609 39.2562 0.349609 39.0477Z" fill="#004C95"/>
<path d="M38.8661 32.4794C38.2405 32.4794 37.6895 31.9133 37.6895 31.2878C37.6895 30.6622 38.2405 30.126 38.881 30.126C39.5214 30.126 40.0427 30.6473 40.0427 31.3027C40.0278 31.9431 39.4916 32.4943 38.8661 32.4794Z" fill="#004C95"/>
<path d="M44.198 3.09351C49.0089 3.09351 53.8644 3.09351 58.7497 3.09351C58.7497 7.97883 58.7497 12.8491 58.7497 17.6451C53.924 12.8044 49.0535 7.94904 44.198 3.09351Z" fill="#5EB3E4"/>
<path d="M31.9708 45.4376C31.9856 46.093 31.4346 46.6442 30.7792 46.6442C30.1537 46.6293 29.6026 46.093 29.5877 45.4824C29.5728 44.8568 30.109 44.3205 30.7495 44.2908C31.4197 44.2461 31.9708 44.7674 31.9708 45.4376Z" fill="#004C95"/>
</svg>
