<svg width="25" height="23" viewBox="0 0 25 23" fill="none" xmlns="http://www.w3.org/2000/svg">
<g clip-path="url(#clip0_203_4039)">
<path fill-rule="evenodd" clip-rule="evenodd" d="M14.8152 0.00878906H23.3512C23.6822 0.0339051 23.9899 0.188417 24.2078 0.438858C24.4257 0.689299 24.5361 1.0155 24.5152 1.34679V9.02478C24.5361 9.35687 24.425 9.68379 24.206 9.93437C23.9871 10.185 23.6781 10.3389 23.3462 10.3628H14.8152C14.4833 10.3389 14.1742 10.185 13.9553 9.93437C13.7364 9.68379 13.6253 9.35687 13.6462 9.02478V1.34879C13.6247 1.01636 13.7356 0.688947 13.9546 0.437927C14.1736 0.186907 14.4829 0.0326463 14.8152 0.00878906ZM1.63417 0.00878906H10.1692C10.5012 0.0324023 10.8105 0.186265 11.0297 0.436874C11.2488 0.687483 11.3601 1.01453 11.3392 1.34679V9.02478C11.3598 9.35697 11.2485 9.68388 11.0294 9.93443C10.8103 10.185 10.5011 10.3389 10.1692 10.3628H1.63417C1.3022 10.3389 0.993065 10.185 0.773975 9.93443C0.554886 9.68388 0.443556 9.35697 0.464176 9.02478V1.34879C0.44298 1.01675 0.553648 0.689762 0.77216 0.438858C0.990671 0.187954 1.29936 0.0334028 1.63117 0.00878906H1.63417ZM14.8152 12.6248H23.3512C23.6829 12.6499 23.9913 12.805 24.2093 13.0563C24.4273 13.3076 24.5372 13.6348 24.5152 13.9668V21.6418C24.5363 21.974 24.4254 22.3012 24.2064 22.552C23.9874 22.8028 23.6782 22.9569 23.3462 22.9808H14.8152C14.4831 22.9569 14.1739 22.8028 13.9549 22.552C13.736 22.3012 13.625 21.974 13.6462 21.6418V13.9668C13.6242 13.634 13.7348 13.3061 13.9538 13.0546C14.1729 12.8032 14.4825 12.6486 14.8152 12.6248ZM1.63417 12.6248H10.1692C10.5012 12.6484 10.8105 12.8023 11.0297 13.0529C11.2488 13.3035 11.3601 13.6305 11.3392 13.9628V21.6378C11.3603 21.9702 11.2492 22.2975 11.03 22.5483C10.8109 22.7992 10.5014 22.9532 10.1692 22.9768H1.63417C1.30202 22.9529 0.992727 22.7988 0.773609 22.5481C0.554491 22.2973 0.443281 21.9701 0.464176 21.6378V13.9628C0.443527 13.6311 0.554453 13.3046 0.772907 13.0541C0.991362 12.8037 1.29973 12.6494 1.63117 12.6248H1.63417Z" fill="white"/>
</g>
<defs>
<clipPath id="clip0_203_4039">
<rect width="24.062" height="22.969" fill="white" transform="matrix(-1 0 0 1 24.5151 0)"/>
</clipPath>
</defs>
</svg>
