<svg width="62" height="63" viewBox="0 0 62 63" fill="none" xmlns="http://www.w3.org/2000/svg">
<path d="M35.2322 37.0851V30.3382C35.2322 27.1498 32.6423 24.5599 29.4538 24.5599C26.2654 24.5599 23.6755 27.1498 23.6755 30.3382V37.0851H19.8233V30.3382C19.8233 25.0278 24.1435 20.6968 29.4647 20.6968C34.786 20.6968 39.1062 25.0169 39.1062 30.3382V37.0851H35.2322Z" fill="#5EB3E4"/>
<path d="M46.0163 1.70752H61.1423V9.42285H46.0163V1.70752Z" fill="#5EB3E4"/>
<path d="M43.0129 57.1839V60.4485L40.5754 62.0046H18.0279L15.9059 60.0893V39.6421H41.0868C42.1532 39.6421 43.0129 40.5018 43.0129 41.5682V57.1839Z" fill="#5EB3E4"/>
<path d="M0.159611 58.5769H12.6848V56.6508H2.08571V2.67611H59.9235V56.6508H49.3135V58.5769H61.8496V0.75H0.159611V58.5769Z" fill="#004A98"/>
<path d="M1.11699 8.45435H60.8809V10.3805H1.11699V8.45435Z" fill="#004A98"/>
<path d="M56.0602 4.60229H57.9863V6.52841H56.0602V4.60229Z" fill="white"/>
<path d="M52.2079 4.60229H54.134V6.52841H52.2079V4.60229Z" fill="white"/>
<path d="M48.3559 4.60229H50.282V6.52841H48.3559V4.60229Z" fill="white"/>
<path d="M44.4928 1.70752H46.4189V9.42285H44.4928V1.70752Z" fill="#004A98"/>
<path d="M2.08546 4.60229H42.3706V8.45452H2.08546V4.60229Z" fill="#5EB3E4"/>
<path d="M4.01168 54.7247H12.6846V52.7986H5.93778V14.2437H56.0602V52.7986H49.3134V54.7247H57.9863V12.3176H4.01168V54.7247Z" fill="#004A98"/>
<path d="M18.4742 62.44H43.5355C45.6574 62.44 47.3877 60.7097 47.3877 58.5877V39.3049C47.3877 37.1829 45.6574 35.4526 43.5355 35.4526H18.4742C16.3523 35.4526 14.622 37.1829 14.622 39.3049V58.5877C14.6112 60.7097 16.3414 62.44 18.4742 62.44ZM43.5355 37.3787C44.6019 37.3787 45.4616 38.2384 45.4616 39.3049V58.5877C45.4616 59.6542 44.6019 60.5139 43.5355 60.5139H18.4742C17.4078 60.5139 16.5481 59.6542 16.5481 58.5877V39.3049C16.5481 38.2384 17.4078 37.3787 18.4742 37.3787H43.5355Z" fill="#004A98"/>
<path d="M25.2209 36.4102H27.147V29.6633C27.147 27.5414 28.8773 25.8111 30.9993 25.8111C33.1212 25.8111 34.8515 27.5414 34.8515 29.6633V36.4102H36.7776V29.6633C36.7776 26.4749 34.1877 23.885 30.9993 23.885C27.8108 23.885 25.2209 26.4749 25.2209 29.6633V36.4102Z" fill="#004A98"/>
<path d="M19.4315 36.4103H21.3577V29.6635C21.3577 24.3531 25.6778 20.0221 30.9991 20.0221C36.3204 20.0221 40.6405 24.3422 40.6405 29.6635V36.4103H42.5667V29.6635C42.5667 23.2867 37.3759 18.0959 30.9991 18.0959C24.6222 18.0959 19.4315 23.2867 19.4315 29.6635V36.4103Z" fill="#004A98"/>
<path d="M30.9991 48.9464C33.1211 48.9464 34.8513 47.2162 34.8513 45.0942C34.8513 42.9722 33.1211 41.2419 30.9991 41.2419C28.8771 41.2419 27.1469 42.9722 27.1469 45.0942C27.1469 47.2162 28.8771 48.9464 30.9991 48.9464ZM30.9991 43.1572C32.0655 43.1572 32.9252 44.0168 32.9252 45.0833C32.9252 46.1497 32.0655 47.0094 30.9991 47.0094C29.9327 47.0094 29.073 46.1497 29.073 45.0833C29.073 44.0277 29.9435 43.1572 30.9991 43.1572Z" fill="white"/>
<path d="M30.0416 47.9778H31.9678V52.7985H30.0416V47.9778Z" fill="white"/>
<path d="M26.1891 56.6506H28.1152V58.5767H26.1891V56.6506Z" fill="#004A98"/>
<path d="M22.3261 56.6506H24.2522V58.5767H22.3261V56.6506Z" fill="#004A98"/>
<path d="M18.474 56.6506H20.4001V58.5767H18.474V56.6506Z" fill="#004A98"/>
</svg>
