<svg width="63" height="70" viewBox="0 0 63 70" fill="none" xmlns="http://www.w3.org/2000/svg">
<path d="M35.977 17.0603H41.313V27.6289C41.313 29.0922 40.1305 30.2895 38.6524 30.2895H38.6228C37.1594 30.2895 35.9622 29.107 35.9622 27.6289V17.0603H35.977Z" fill="#5EB3E4"/>
<path d="M32.0748 34.0144H37.4109V38.3306C37.4109 39.7939 36.2284 40.9912 34.7503 40.9912H34.7207C33.2573 40.9912 32.0601 39.8087 32.0601 38.3306V34.0144H32.0748Z" fill="#5EB3E4"/>
<path d="M42.4808 32.7136H47.8169V34.9456C47.8169 36.4089 46.6344 37.6062 45.1562 37.6062H45.1267C43.6633 37.6062 42.4661 36.4237 42.4661 34.9456V32.7136H42.4808Z" fill="#5EB3E4"/>
<path d="M48.9403 32.7136H54.2763V34.9456C54.2763 36.4089 53.0938 37.6062 51.6157 37.6062H51.5862C50.1228 37.6062 48.9255 36.4237 48.9255 34.9456V32.7136H48.9403Z" fill="#5EB3E4"/>
<path d="M55.1188 32.7136H60.4548V34.9456C60.4548 36.4089 59.2723 37.6062 57.7942 37.6062H57.7646C56.3013 37.6062 55.104 36.4237 55.104 34.9456V32.7136H55.1188Z" fill="#5EB3E4"/>
<path d="M46.664 67.8487C52.8111 67.8487 57.7943 65.6516 57.7943 62.9413C57.7943 60.2311 52.8111 58.0339 46.664 58.0339C40.5169 58.0339 35.5337 60.2311 35.5337 62.9413C35.5337 65.6516 40.5169 67.8487 46.664 67.8487Z" fill="#5EB3E4"/>
<path d="M26.6797 22.8545H9.10474V25.456H26.6797V22.8545Z" fill="#5EB3E4"/>
<path d="M20.3091 43.1196H2.73413V45.7211H20.3091V43.1196Z" fill="#5EB3E4"/>
<path d="M47.5951 5.4126H11.5288V8.62013H47.5951V5.4126Z" fill="#5EB3E4"/>
<path d="M41.9189 36.7638C41.2538 36.7638 40.7069 36.2316 40.7069 35.5517C40.6773 33.098 42.658 31.0878 45.0969 31.0582C47.5654 31.0286 49.5608 33.0093 49.5904 35.4482C49.6052 36.1282 49.0583 36.6751 48.3783 36.6751H48.3636C47.6984 36.6751 47.1515 36.143 47.1515 35.463C47.1367 34.3692 46.2351 33.4823 45.1412 33.4823H45.1265C44.0179 33.4971 43.131 34.4135 43.1458 35.5074C43.1458 36.2021 42.6136 36.749 41.9189 36.7638Z" fill="#004A98"/>
<path d="M48.3784 36.7638C47.7133 36.7638 47.1664 36.2316 47.1664 35.5665C47.1516 34.384 47.595 33.2606 48.4376 32.4033C49.2653 31.5608 50.3739 31.073 51.5712 31.073C52.7685 31.073 53.8771 31.5017 54.7196 32.3442C55.5621 33.1719 56.0499 34.2805 56.0499 35.4778C56.0647 36.1577 55.5178 36.7047 54.8379 36.7047C54.1875 36.6899 53.611 36.1725 53.611 35.4926C53.611 34.9605 53.3893 34.4579 53.005 34.0736C52.6207 33.7041 52.1181 33.4823 51.586 33.4971C51.0539 33.4971 50.5513 33.7188 50.167 34.1032C49.7974 34.4875 49.5905 34.99 49.5905 35.5222C49.6053 36.2021 49.0584 36.749 48.3932 36.749C48.3784 36.7638 48.3784 36.7638 48.3784 36.7638Z" fill="#004A98"/>
<path d="M35.4596 33.6153C34.7945 33.6153 34.2475 33.0684 34.2475 32.4032L34.2032 19.3809C34.1736 16.9273 36.1543 14.917 38.5932 14.8875C38.608 14.8875 38.6228 14.8875 38.6376 14.8875C41.0765 14.8875 43.0572 16.8534 43.0868 19.2775C43.1015 19.9574 42.5546 20.5043 41.8747 20.5043H41.8599C41.1948 20.5043 40.6478 19.9722 40.6478 19.2923C40.6331 18.1837 39.7314 17.282 38.608 17.3116C37.4994 17.3264 36.6126 18.2428 36.6273 19.3366L36.6569 22.5441L36.6717 32.3885C36.6717 33.0684 36.1248 33.6153 35.4596 33.6153Z" fill="#004A98"/>
<path d="M41.9045 38.9218C41.2393 38.9218 40.6924 38.3749 40.6924 37.7097L40.6333 19.2627C40.6333 18.5828 41.1802 18.0359 41.8454 18.0359C42.5105 18.0359 43.0574 18.5828 43.0574 19.248L43.1165 37.695C43.1313 38.3749 42.5844 38.9218 41.9045 38.9218C41.9193 38.9218 41.9193 38.9218 41.9045 38.9218Z" fill="#004A98"/>
<path d="M46.5457 69.3859C42.2739 69.3859 38.2534 67.7009 35.238 64.6264C32.2226 61.5666 30.5671 57.487 30.5671 53.1561L30.5967 52.5648L30.5671 50.6137V36.6454C30.5671 34.2361 32.5183 32.2702 34.9128 32.2554C37.3074 32.2554 39.2585 34.2213 39.2585 36.6454V48.16C39.2585 48.84 38.7116 49.3721 38.0465 49.3721C37.3813 49.3721 36.8344 48.8252 36.8344 48.16V36.6454C36.8344 35.5664 35.9771 34.6943 34.9276 34.6943C33.8781 34.6943 33.0208 35.5664 33.0208 36.6454V50.5989L33.0504 52.5648C33.0504 52.5944 33.0504 52.6092 33.0504 52.6388L33.0208 53.2152C33.0208 56.8514 34.425 60.3102 36.997 62.9265C39.5541 65.528 42.9538 66.9618 46.5605 66.9618C54.025 66.9618 60.1001 60.7685 60.1001 53.1709V52.9492L60.0114 47.0219L60.0705 35.4629C60.0557 34.3839 59.1689 33.5118 58.0455 33.497C56.9369 33.5118 56.05 34.4283 56.0648 35.5368C56.0796 36.2168 55.5327 36.7637 54.8527 36.7637H54.838C54.1728 36.7637 53.6259 36.2316 53.6259 35.5516C53.5963 33.0979 55.5622 31.0877 58.0159 31.0581C58.0307 31.0581 58.0455 31.0581 58.0603 31.0581C60.4992 31.0581 62.4799 33.024 62.5094 35.4481L62.4503 47.0071L62.539 52.9344V53.1709C62.5242 62.1135 55.3553 69.3859 46.5457 69.3859Z" fill="#004A98"/>
<path d="M48.3786 38.9216C47.6986 38.9216 47.1665 38.3747 47.1665 37.7096V35.2411C47.1665 34.5612 47.7134 34.0291 48.3786 34.0291C49.0585 34.0291 49.5906 34.5759 49.5906 35.2411V37.7096C49.5906 38.3747 49.0437 38.9216 48.3786 38.9216Z" fill="#004A98"/>
<path d="M54.8232 38.9216C54.1432 38.9216 53.6111 38.3747 53.6111 37.7096V35.2411C53.6111 34.5612 54.158 34.0291 54.8232 34.0291C55.5031 34.0291 56.0352 34.5759 56.0352 35.2411V37.7096C56.05 38.3747 55.5031 38.9216 54.8232 38.9216Z" fill="#004A98"/>
<path d="M31.7496 47.4653H4.27125C2.30534 47.4653 0.708984 45.8689 0.708984 43.903V4.08231C0.708984 2.1164 2.30534 0.52002 4.27125 0.52002H54.8527C56.8186 0.52002 58.415 2.1164 58.415 4.08231V31.0877C58.415 31.7676 57.8681 32.2997 57.2029 32.2997C56.5378 32.2997 55.9909 31.7528 55.9909 31.0877V4.08231C55.9909 3.4615 55.4883 2.95893 54.8675 2.95893H4.28605C3.66523 2.95893 3.16266 3.4615 3.16266 4.08231V43.903C3.16266 44.5238 3.66523 45.0264 4.28605 45.0264H31.7644C32.4443 45.0264 32.9765 45.5733 32.9765 46.2385C32.9617 46.9184 32.4148 47.4653 31.7496 47.4653Z" fill="#004A98"/>
<path d="M56.5673 9.83233H2.06876C1.38883 9.83233 0.856689 9.28542 0.856689 8.62027C0.856689 7.95511 1.40361 7.4082 2.06876 7.4082H56.5673C57.2472 7.4082 57.7793 7.95511 57.7793 8.62027C57.7793 9.28542 57.2472 9.83233 56.5673 9.83233Z" fill="#004A98"/>
<path d="M47.3588 5.4127C47.3588 6.22567 46.6937 6.89082 45.8807 6.89082C45.0677 6.89082 44.4026 6.22567 44.4026 5.4127C44.4026 4.59973 45.0677 3.93457 45.8807 3.93457C46.6937 3.93457 47.3588 4.59973 47.3588 5.4127Z" fill="#004A98"/>
<path d="M52.9755 5.4127C52.9755 6.22567 52.3104 6.89082 51.4974 6.89082C50.6844 6.89082 50.0193 6.22567 50.0193 5.4127C50.0193 4.59973 50.6844 3.93457 51.4974 3.93457C52.3104 3.93457 52.9755 4.59973 52.9755 5.4127Z" fill="#004A98"/>
<path d="M27.2118 27.0821H8.46915C7.78922 27.0821 7.25708 26.5351 7.25708 25.87V14.1632C7.25708 13.4833 7.804 12.9512 8.46915 12.9512H27.2118C27.8917 12.9512 28.4239 13.4981 28.4239 14.1632V25.87C28.4386 26.5499 27.8917 27.0821 27.2118 27.0821ZM9.69598 24.6579H25.9997V15.3901H9.69598V24.6579Z" fill="#004A98"/>
<path d="M26.517 32.7137H9.17863C8.49869 32.7137 7.96655 32.1668 7.96655 31.5016C7.96655 30.8364 8.51347 30.2896 9.17863 30.2896H26.517C27.197 30.2896 27.7291 30.8364 27.7291 31.5016C27.7291 32.1668 27.1822 32.7137 26.517 32.7137Z" fill="#004A98"/>
</svg>
