<svg width="64" height="68" viewBox="0 0 64 68" fill="none" xmlns="http://www.w3.org/2000/svg">
<path d="M18.656 57.8506H62.2827L61.798 60.9141L57.3771 65.8197L52.1419 62.2715L48.613 65.5094L44.483 61.8253L40.4693 65.8197L36.223 62.1939L32.093 65.8197L27.963 61.8253L23.833 65.8197L18.21 59.9446L18.656 57.8506Z" fill="#5EB3E4"/>
<path d="M6.28528 54.2247C7.62316 54.2247 8.70898 53.1389 8.70898 51.801V42.5327H3.88095V51.801C3.88095 53.1389 4.96678 54.2247 6.28528 54.2247Z" fill="#5EB3E4"/>
<path d="M3.18248 3.09424H43.4548V4.64527H3.18248V3.09424Z" fill="#5EB3E4"/>
<path d="M23.8329 67.0996C24.1043 67.0996 24.3564 67.0025 24.5697 66.7893L27.9629 63.3961L31.3561 66.7893C31.7632 67.1964 32.4031 67.1964 32.8103 66.7893L36.2035 63.3961L39.5967 66.7893C40.0039 67.1964 40.6437 67.1964 41.0509 66.7893L44.4441 63.3961L47.8373 66.7893C48.2445 67.1964 48.8843 67.1964 49.2915 66.7893L52.6847 63.3961L56.0779 66.7893C56.4851 67.1964 57.1249 67.1964 57.5321 66.7893L62.6898 61.6315C62.8837 61.4376 63 61.1856 63 60.8947V12.3623C63 9.51204 60.6926 7.20484 57.8423 7.20484H14.4676C11.6174 7.20484 9.31001 9.51204 9.31001 12.3623V51.6072C9.31001 53.3135 7.91395 54.7095 6.20766 54.7095C4.50137 54.7095 3.1053 53.3135 3.1053 51.6072V3.07483H44.4053V5.13001H46.48V2.02771C46.48 1.46541 46.0147 1 45.4523 1H2.07765C1.51535 1 1.05 1.46541 1.05 2.02771V51.5878C1.05 54.4381 3.35738 56.7453 6.20766 56.7453C9.05794 56.7453 11.3653 54.4381 11.3653 51.5878V12.3431C11.3653 10.6369 12.7614 9.24061 14.4676 9.24061C16.1739 9.24061 17.57 10.6369 17.57 12.3431V60.8753C17.57 61.1468 17.6863 61.4182 17.8802 61.6121L23.0379 66.7698C23.3093 67.0025 23.5614 67.0996 23.8329 67.0996ZM27.9629 60.9141C27.6914 60.9141 27.4393 61.0111 27.2261 61.2244L23.8329 64.6176L19.7029 60.4876V12.3817C19.7029 11.2183 19.3151 10.152 18.6752 9.27943H57.9005C59.6068 9.27943 61.0029 10.6754 61.0029 12.3817V60.4876L56.8729 64.6176L53.4797 61.2244C53.0725 60.8172 52.4326 60.8172 52.0254 61.2244L48.6323 64.6176L45.2391 61.2244C44.8319 60.8172 44.1726 60.8172 43.7848 61.2244L40.3916 64.6176L36.9985 61.2244C36.5913 60.8172 35.9514 60.8172 35.5442 61.2244L32.151 64.6176L28.7578 61.2244C28.4864 61.0111 28.2149 60.9141 27.9629 60.9141Z" fill="#004A98" stroke="#004A98" stroke-width="0.2"/>
<path d="M51.7154 54.7095H53.7708V56.7647H51.7154V54.7095Z" fill="#004A98" stroke="#004A98" stroke-width="0.2"/>
<path d="M47.5659 54.7095H49.6406V56.7647H47.5659V54.7095Z" fill="#004A98" stroke="#004A98" stroke-width="0.2"/>
<path d="M43.4356 54.7095H45.5103V56.7647H43.4356V54.7095Z" fill="#004A98" stroke="#004A98" stroke-width="0.2"/>
<path d="M39.3062 54.7095H41.3809V56.7647H39.3062V54.7095Z" fill="#004A98" stroke="#004A98" stroke-width="0.2"/>
<path d="M35.1758 54.7095H37.2505V56.7647H35.1758V54.7095Z" fill="#004A98" stroke="#004A98" stroke-width="0.2"/>
<path d="M31.0457 54.7095H33.1204V56.7647H31.0457V54.7095Z" fill="#004A98" stroke="#004A98" stroke-width="0.2"/>
<path d="M26.916 54.7095H28.9907V56.7647H26.916V54.7095Z" fill="#004A98" stroke="#004A98" stroke-width="0.2"/>
<path d="M22.7859 54.7095H24.8606V56.7647H22.7859V54.7095Z" fill="#004A98" stroke="#004A98" stroke-width="0.2"/>
<path d="M41.3806 13.4094H49.6406V15.4843H41.3806V13.4094Z" fill="#004A98" stroke="#004A98" stroke-width="0.2"/>
<path d="M22.7859 17.5396H49.6406V19.595H22.7859V17.5396Z" fill="#004A98" stroke="#004A98" stroke-width="0.2"/>
<path d="M51.7154 34.0596H53.7708V52.6542H51.7154V34.0596Z" fill="#004A98" stroke="#004A98" stroke-width="0.2"/>
<path d="M55.8257 54.7095H57.9004V56.7647H55.8257V54.7095Z" fill="#004A98" stroke="#004A98" stroke-width="0.2"/>
<path d="M55.8257 34.0596H57.9004V52.6542H55.8257V34.0596Z" fill="#004A98" stroke="#004A98" stroke-width="0.2"/>
<path d="M47.5659 44.394H49.6406V52.6541H47.5659V44.394Z" fill="#004A98" stroke="#004A98" stroke-width="0.2"/>
<path d="M39.3062 32.0042H41.3809V52.6542H39.3062V32.0042Z" fill="#004A98" stroke="#004A98" stroke-width="0.2"/>
<path d="M43.4356 38.1895H45.5103V52.6541H43.4356V38.1895Z" fill="#004A98" stroke="#004A98" stroke-width="0.2"/>
<path d="M35.1758 40.2642H37.2505V52.6542H35.1758V40.2642Z" fill="#004A98" stroke="#004A98" stroke-width="0.2"/>
<path d="M31.0457 34.0596H33.1204V52.6542H31.0457V34.0596Z" fill="#004A98" stroke="#004A98" stroke-width="0.2"/>
<path d="M26.916 42.3196H28.9907V52.6348H26.916V42.3196Z" fill="#004A98" stroke="#004A98" stroke-width="0.2"/>
<path d="M22.7859 29.9294H24.8606V52.6541H22.7859V29.9294Z" fill="#004A98" stroke="#004A98" stroke-width="0.2"/>
<path d="M22.8054 13.4094H39.3254V15.4843H22.8054V13.4094Z" fill="#004A98" stroke="#004A98" stroke-width="0.2"/>
<path d="M52.7427 19.6144H56.8727C57.435 19.6144 57.9004 19.149 57.9004 18.5867V14.4567C57.9004 13.8944 57.435 13.429 56.8727 13.429H52.7427C52.1804 13.429 51.7151 13.8944 51.7151 14.4567V18.5867C51.7151 19.149 52.161 19.6144 52.7427 19.6144ZM55.8451 17.5396H53.7704V15.465H55.8451V17.5396Z" fill="#004A98" stroke="#004A98" stroke-width="0.2"/>
</svg>
