<svg width="59" height="68" viewBox="0 0 59 68" fill="none" xmlns="http://www.w3.org/2000/svg">
<path d="M23.2938 48.9199H50.9529V56.9273H23.2938V48.9199Z" fill="#5EB3E4"/>
<path d="M1.41146 57.3179H29.0706V65.3253H1.41146V57.3179Z" fill="#5EB3E4"/>
<path d="M23.2938 0.859863H50.9529V8.86727H23.2938V0.859863Z" fill="#5EB3E4"/>
<path d="M42.9461 67.4011V59.4562H53.4197C56.6508 59.4406 58.9141 57.1929 58.9297 53.9618C58.9297 52.7443 58.9297 49.4509 58.9297 48.9358H50.9379V1.00049H8.40343V9.0079H0.489685V67.4168H42.9461V67.4011ZM8.46587 11.8801C8.46587 11.8801 8.46587 43.0824 8.46587 53.5716C8.46587 54.1491 8.48149 54.7579 8.60636 55.3198C9.16828 57.8328 11.2755 59.4406 13.9758 59.4406H40.3706V64.8725H3.03396V11.5209H8.46587V11.8801ZM56.4166 53.6964C56.4166 55.8348 55.324 56.9276 53.1856 56.9276H18.7366L19.0956 51.4957H56.401V53.6964H56.4166ZM16.4733 53.3843C16.4733 53.7277 16.4733 54.0555 16.4421 54.3989C16.3016 55.8193 15.1465 56.912 13.7573 56.9276C12.3525 56.9276 11.1975 55.8816 11.0101 54.4612C10.9789 54.2427 10.9789 54.0243 10.9789 53.8058V3.52913H48.378V48.967H16.4733V53.3843Z" fill="#004A98"/>
<path d="M16.5051 25.0225H42.8999V27.4107H16.5051V25.0225Z" fill="#004A98"/>
<path d="M16.5051 32.9829H42.8999V35.418H16.5051V32.9829Z" fill="#004A98"/>
<path d="M16.5207 40.9749H42.8999V43.4098H16.5207V40.9749Z" fill="#004A98"/>
<path d="M32.4731 17.0151H42.8999V19.4346H32.4731V17.0151Z" fill="#004A98"/>
<path d="M16.5209 8.99194H26.9321V11.4427H16.5209V8.99194Z" fill="#004A98"/>
</svg>
