<svg width="69" height="68" viewBox="0 0 69 68" fill="none" xmlns="http://www.w3.org/2000/svg">
<path d="M49.9702 22.2002C54.4369 22.2002 58.8752 22.2002 63.3419 22.2002C63.3419 23.4947 63.4273 24.7891 63.3135 26.0552C63.2424 26.9656 62.3177 27.7196 61.3789 27.7196C58.2493 27.7481 55.1197 27.7481 51.9902 27.7196C50.9802 27.7054 50.0555 26.8945 49.9844 25.8845C49.899 24.6753 49.9702 23.452 49.9702 22.2002Z" fill="#5EB3E4"/>
<path d="M7.35158 22.186C11.8468 22.186 16.2708 22.186 20.7376 22.186C20.7376 23.4379 20.8087 24.6612 20.7234 25.8703C20.6522 26.923 19.7276 27.7055 18.6607 27.7197C15.588 27.7481 12.5296 27.7481 9.45694 27.7197C8.39005 27.7055 7.43694 26.8946 7.38004 25.8846C7.29469 24.6897 7.35158 23.4663 7.35158 22.186Z" fill="#5EB3E4"/>
<path d="M35.2897 13.153C32.7718 13.1245 30.8372 11.1046 30.8798 8.57245C30.9225 6.1257 32.9852 4.1626 35.4604 4.20527C37.9498 4.24795 39.8702 6.2964 39.8275 8.84273C39.7849 11.2468 37.7506 13.1814 35.2897 13.153Z" fill="#5EB3E4"/>
<path d="M14.0375 10.7773C15.9721 13.85 17.8499 16.8089 19.7845 19.8531C15.9437 19.8531 12.1882 19.8531 8.30469 19.8531C10.2109 16.8231 12.0886 13.8642 14.0375 10.7773Z" fill="#5EB3E4"/>
<path d="M50.9377 19.8531C52.8724 16.8089 54.7359 13.8358 56.6705 10.7773C58.6052 13.8358 60.4829 16.7946 62.4176 19.8531C58.5341 19.8531 54.7786 19.8531 50.9377 19.8531Z" fill="#5EB3E4"/>
<path d="M33.4548 0.350098C34.0665 0.350098 34.6781 0.350098 35.2898 0.350098C35.4321 0.392774 35.5743 0.449727 35.7166 0.492403C38.3483 1.13254 40.098 2.7115 40.8377 5.32895C40.98 5.85529 41.1933 5.99758 41.7197 5.99758C49.9134 5.98336 58.1072 5.98334 66.301 5.98334C66.557 5.98334 66.8273 5.96915 67.0834 6.01182C67.6239 6.09717 67.9369 6.43857 68.008 6.97913C68.0791 7.51969 67.8231 7.93221 67.311 8.11714C67.0549 8.21672 66.7562 8.23097 66.4717 8.23097C63.8258 8.24519 61.1656 8.23097 58.5197 8.23097C58.2921 8.23097 58.0645 8.24513 57.7942 8.25936C57.8654 8.41583 57.8938 8.48699 57.9365 8.55812C60.0703 11.9295 62.2041 15.2866 64.3236 18.658C64.4801 18.8999 64.6224 19.2129 64.6224 19.4974C64.6508 21.0764 64.6793 22.6554 64.6082 24.2344C64.5086 26.4678 62.6735 28.3313 60.4544 28.3739C57.2821 28.4308 54.0957 28.4451 50.9234 28.3739C48.6047 28.3313 46.7696 26.3824 46.7127 24.0637C46.6843 22.5701 46.6985 21.0906 46.7127 19.597C46.7127 19.3267 46.7839 19.0137 46.9261 18.7861C49.003 15.4858 51.0941 12.1998 53.1852 8.91375C53.3133 8.7146 53.4271 8.51541 53.5693 8.25936C49.3302 8.25936 45.1622 8.25936 40.9799 8.25936C40.6812 9.68189 40.0553 10.8768 39.0595 11.901C38.9173 12.0433 38.8461 12.3278 38.8461 12.5412C38.8319 18.1886 38.8462 23.8504 38.8319 29.4978C38.8319 29.8534 38.9457 30.0383 39.2729 30.1948C41.5916 31.3328 43.8819 32.5135 46.2149 33.6373C46.6701 33.8507 47.2106 33.9929 47.7085 33.9929C51.6916 34.0214 55.6889 34.0072 59.672 34.0072C59.8142 34.0072 59.9707 33.9929 60.0987 33.9787C60.5966 32.2005 61.1656 31.7738 63.0149 31.7738C63.9396 31.7738 64.85 31.7596 65.7746 31.7738C67.0407 31.8023 68.008 32.7126 68.008 33.9645C68.0222 38.8437 68.0222 43.7373 68.008 48.6166C68.008 49.84 67.0549 50.7788 65.8458 50.8215C64.6793 50.8499 63.527 50.8499 62.3605 50.8215C61.3363 50.793 60.5255 50.1386 60.2552 49.1571C60.2125 49.0006 60.1556 48.83 60.0561 48.517C58.4628 48.83 56.8838 49.1286 55.2764 49.4416C56.1868 52.1302 55.3902 53.9511 53.0145 55.1033C53.8681 57.5785 52.346 60.4235 49.0741 60.4804C48.7896 62.8561 47.4098 64.1364 45.0484 64.3498C44.9346 65.2602 44.5932 65.9998 43.953 66.5973C42.7297 67.7211 41.0369 67.7922 39.6143 66.7822C38.5474 66.0283 37.4948 65.2459 36.4136 64.4493C36.0438 65.0467 35.7308 65.6016 35.3752 66.1279C34.3794 67.5931 32.5586 68.0625 31.0365 67.2659C30.1261 66.7965 29.5855 66.0283 29.2867 65.0752C26.9538 65.317 25.4602 64.2786 24.6778 62.1306C24.4928 62.1448 24.3506 62.159 24.1941 62.1732C22.4302 62.3724 20.7943 61.4478 20.1399 59.7976C19.9407 59.2998 19.7131 59.2144 19.2295 59.2571C17.2664 59.4278 15.5736 58.1333 15.1326 56.2128C14.8481 55.0322 15.1895 53.9795 15.8154 52.941C13.582 51.4474 11.1922 50.4373 8.58897 49.9537C8.03418 51.49 7.42249 51.931 5.82926 51.9453C5.10377 51.9453 4.37827 51.9026 3.66701 51.9595C2.30138 52.0591 1.29138 51.5754 0.708144 50.2952C0.708144 45.0318 0.708144 39.7826 0.708144 34.5193C1.16335 33.5804 1.8035 32.8834 2.94153 32.8692C4.07955 32.855 5.21756 32.8407 6.35559 32.8833C7.49361 32.926 8.21909 33.5519 8.5036 34.6615C8.54627 34.8037 8.58896 34.946 8.64586 35.1167C10.9646 35.1167 13.2549 35.0883 15.5594 35.131C16.5836 35.1452 17.3944 34.8464 18.2053 34.2205C20.9081 32.1294 23.9096 30.7354 27.3948 30.6358C28.1914 30.6073 29.0022 30.6358 29.87 30.6358C29.87 30.3797 29.87 30.1236 29.87 29.8676C29.87 24.3197 29.8558 18.7861 29.8842 13.2382C29.8842 12.4985 29.6851 11.9722 29.2299 11.3605C28.5328 10.4359 28.0776 9.34048 27.4802 8.25936C23.4971 8.25936 19.3433 8.25936 15.1326 8.25936C15.2037 8.38738 15.2322 8.47275 15.2748 8.54388C17.3944 11.8868 19.514 15.2298 21.6193 18.5869C21.8185 18.8999 21.9607 19.2982 21.975 19.6681C22.0176 21.0195 22.0034 22.3851 21.9892 23.7365C21.9607 26.482 20.1115 28.3597 17.366 28.3739C14.4498 28.4024 11.5336 28.3882 8.63164 28.3739C5.95729 28.3455 4.10799 26.4963 4.06531 23.8077C4.05109 22.4278 4.05109 21.0479 4.06531 19.6681C4.06531 19.3551 4.13644 18.9995 4.30714 18.7435C6.41248 15.3863 8.54628 12.0433 10.6658 8.70034C10.7512 8.55808 10.8081 8.41587 10.9077 8.20249C7.97727 8.20249 5.13221 8.18828 2.28715 8.21673C1.59011 8.21673 1.04955 8.04604 0.679688 7.43435C0.679688 7.1783 0.679688 6.90803 0.679688 6.65198C1.078 6.06874 1.6328 5.94064 2.31561 5.95487C10.4809 5.96909 18.632 5.95489 26.7973 5.98334C27.4375 5.98334 27.722 5.85532 27.9069 5.18673C28.4902 3.06716 29.8842 1.63038 31.9184 0.805317C32.4448 0.606163 32.9569 0.492351 33.4548 0.350098ZM24.6778 50.2809C27.3948 49.1856 30.1118 50.7077 30.439 53.7519C30.6524 53.7661 30.8658 53.7945 31.0791 53.8088C32.7151 53.9795 34.0949 55.0891 34.4505 56.6823C34.5786 57.2655 34.8204 57.422 35.361 57.5215C36.8688 57.7776 38.0211 59.0864 38.0495 60.58C38.0638 61.2202 37.8646 61.8603 37.7508 62.6C38.7466 63.3255 39.8277 64.1363 40.923 64.933C41.549 65.3882 42.2033 65.3313 42.6016 64.7907C43.0142 64.2502 42.8577 63.5816 42.2033 63.0979C41.6912 62.7138 41.1649 62.3582 40.6528 61.9883C39.9842 61.4904 39.8135 60.8503 40.1833 60.2955C40.5816 59.7123 41.2502 59.6554 41.9615 60.1675C42.7154 60.6939 43.4409 61.2629 44.2091 61.7607C45.2902 62.4578 46.6416 61.8461 46.8123 60.6085C46.9119 59.883 46.5847 59.3425 46.0015 58.9299C44.8065 58.0764 43.6258 57.2086 42.4451 56.3267C41.805 55.8572 41.677 55.2171 42.0611 54.6765C42.4452 54.1217 43.128 54.0648 43.7966 54.5343C44.138 54.7761 44.4651 55.0322 44.8065 55.274C45.9872 56.1418 47.1679 57.0237 48.3629 57.863C49.1453 58.4178 50.0984 58.2613 50.6674 57.5643C51.2364 56.853 51.1652 55.9284 50.4682 55.2598C50.2122 55.0179 49.9277 54.8188 49.6574 54.6196C48.4625 53.7377 47.2391 52.8842 46.0584 51.988C45.5463 51.6039 45.4894 50.9495 45.8308 50.4659C46.1864 49.9822 46.7981 49.8684 47.3529 50.1813C47.5236 50.2809 47.6801 50.4089 47.8365 50.5227C48.8323 51.2482 49.8139 51.988 50.8096 52.685C51.5209 53.1829 52.4313 53.0691 52.9719 52.5001C53.5409 51.9026 53.6262 50.9779 53.1141 50.3378C52.915 50.0817 52.6447 49.8826 52.3744 49.6976C48.5194 47.0091 44.6501 44.3205 40.795 41.6319C39.4578 40.6931 38.1064 39.7684 36.755 38.8153C36.5559 38.986 36.3852 39.1283 36.2287 39.2706C34.5217 40.8496 32.8289 42.4285 31.1218 44.0075C29.4006 45.6008 26.968 45.5866 25.4032 43.9934C23.8669 42.4144 23.9096 40.0387 25.5313 38.3316C27.0392 36.7384 28.547 35.1594 30.0549 33.5662C30.1972 33.4097 30.3252 33.2532 30.4675 33.0967C30.3963 33.0398 30.3679 32.9972 30.3252 32.9972C26.2852 32.5562 22.6293 33.5093 19.4713 36.0983C18.4044 36.9802 17.2237 37.407 15.8581 37.3928C13.6958 37.3644 11.5194 37.3786 9.35712 37.3928C9.12952 37.3928 8.88769 37.407 8.64586 37.4212C8.64586 40.8637 8.64586 44.2494 8.64586 47.6634C11.6616 48.2467 14.4356 49.3705 17.053 51.0491C17.8496 49.4558 18.8454 48.1613 20.7089 48.0048C22.5155 47.8341 23.8243 48.7019 24.6778 50.2809ZM60.1272 36.2406C59.8427 36.2406 59.6151 36.2406 59.3733 36.2406C55.4897 36.2406 51.6205 36.2264 47.737 36.2548C46.7839 36.2548 45.9303 36.0556 45.091 35.6147C42.8577 34.4624 40.6101 33.3244 38.3483 32.2148C36.7693 31.4324 34.9769 31.66 33.7819 32.8833C31.4917 35.2305 29.2298 37.6204 26.9965 40.0387C26.6835 40.3801 26.5413 40.9918 26.5413 41.4755C26.5413 42.1583 26.9965 42.6561 27.6651 42.8695C28.3479 43.0971 28.9596 42.9264 29.4859 42.4428C31.2641 40.7926 33.0422 39.1283 34.8346 37.4782C36.058 36.3401 36.9684 36.269 38.3483 37.2221C42.943 40.4228 47.5663 43.595 52.1326 46.8526C53.1426 47.5638 54.0245 48.0333 55.1626 47.2652C55.2479 47.2083 55.3617 47.1798 55.4755 47.1513C57.0118 46.8384 58.5482 46.5255 60.1272 46.2125C60.1272 42.9976 60.1272 39.6689 60.1272 36.2406ZM32.1603 31.0768C32.9427 30.6642 33.5828 30.2232 34.2941 29.9672C35.0195 29.6969 35.8019 29.5831 36.5701 29.4124C36.5701 24.1349 36.5701 18.8146 36.5701 13.4516C35.0765 13.9353 33.6397 13.8926 32.1603 13.4659C32.1603 19.2982 32.1603 25.0737 32.1603 31.0768ZM48.9888 20.5927C48.9888 21.8446 48.9177 23.0679 49.003 24.2913C49.0741 25.3013 49.9988 26.1121 51.0088 26.1263C54.1383 26.1548 57.2679 26.1548 60.3975 26.1263C61.3363 26.1121 62.261 25.3724 62.3321 24.462C62.4317 23.1959 62.3605 21.9015 62.3605 20.607C57.8938 20.5928 53.4555 20.5927 48.9888 20.5927ZM6.3698 20.5785C6.3698 21.8588 6.31292 23.0821 6.38404 24.2913C6.45517 25.3013 7.40825 26.1121 8.46092 26.1263C11.5336 26.1548 14.592 26.1548 17.6647 26.1263C18.7316 26.1121 19.6562 25.3155 19.7274 24.2771C19.8127 23.0679 19.7416 21.8446 19.7416 20.5927C15.2891 20.5785 10.865 20.5785 6.3698 20.5785ZM34.3083 11.5454C36.7693 11.5738 38.8177 9.63924 38.8461 7.22094C38.8888 4.67461 36.9542 2.62615 34.479 2.58348C32.0038 2.5408 29.9411 4.5039 29.8984 6.95065C29.8558 9.49698 31.7904 11.5169 34.3083 11.5454ZM13.0557 9.18404C11.1068 12.2709 9.22911 15.2298 7.32292 18.2598C11.2064 18.2598 14.9619 18.2598 18.8027 18.2598C16.8681 15.2013 14.9903 12.2425 13.0557 9.18404ZM49.9561 18.2455C53.7969 18.2455 57.5524 18.2455 61.4359 18.2455C59.5013 15.2013 57.6378 12.2425 55.6889 9.1698C53.7543 12.2282 51.8765 15.2013 49.9561 18.2455ZM62.4601 34.0357C62.4601 38.8865 62.4601 43.7088 62.4601 48.5454C63.5839 48.5454 64.6651 48.5454 65.7462 48.5454C65.7462 43.6803 65.7462 38.858 65.7462 34.0357C64.6224 34.0357 63.5555 34.0357 62.4601 34.0357ZM3.01266 35.1737C3.01266 40.0387 3.01266 44.8469 3.01266 49.655C4.13645 49.655 5.18912 49.655 6.29869 49.655C6.29869 44.8042 6.29869 40.0103 6.29869 35.1737C5.18912 35.1737 4.13645 35.1737 3.01266 35.1737ZM23.8954 60.0963C24.2937 59.8403 24.8485 59.6553 25.0903 59.2997C26.1145 57.7492 27.0676 56.156 27.9923 54.5343C28.419 53.7661 28.0634 52.813 27.2952 52.3862C26.5413 51.9595 25.6166 52.116 25.1472 52.8557C24.1657 54.4063 23.1983 55.9711 22.3021 57.5785C21.6762 58.6739 22.544 59.9825 23.8954 60.0963ZM19.0445 57.1802C19.4571 56.9241 20.0119 56.7677 20.2537 56.412C21.1072 55.1744 21.8754 53.8657 22.6151 52.5569C23.0276 51.8172 22.672 50.8784 21.9465 50.4516C21.2353 50.0249 20.2821 50.1387 19.8269 50.8215C18.9876 52.1018 18.1626 53.3963 17.4655 54.7477C16.8965 55.8146 17.7643 57.0379 19.0445 57.1802ZM26.8969 60.9925C26.8827 61.8745 27.3663 62.5715 28.0349 62.7849C28.7889 63.0268 29.5713 62.7707 30.0265 62.0452C30.7093 60.9498 31.3779 59.8546 32.0322 58.745C32.6013 57.7919 32.4021 56.7961 31.5628 56.284C30.7377 55.7718 29.742 56.0706 29.1587 57.0095C28.5044 58.0621 27.8642 59.129 27.2241 60.2102C27.0392 60.4947 26.9538 60.836 26.8969 60.9925ZM35.9442 60.6369C35.6455 60.3382 35.3894 59.9541 35.0196 59.7692C34.5075 59.5131 34.0238 59.7692 33.7393 60.2386C33.0565 61.334 32.4021 62.4436 31.7335 63.5389C31.3067 64.2644 31.4205 64.9045 32.0038 65.2601C32.587 65.6157 33.2129 65.4166 33.6539 64.6912C34.2941 63.6527 34.92 62.6 35.5459 61.5473C35.6881 61.334 35.7735 61.0494 35.9442 60.6369Z" fill="#004A98"/>
</svg>
