<svg width="22" height="22" viewBox="0 0 22 22" fill="none" xmlns="http://www.w3.org/2000/svg">
<path d="M16.8701 8.36995H11.6201C11.2101 8.36995 10.8701 8.02995 10.8701 7.61995C10.8701 7.20995 11.2101 6.86995 11.6201 6.86995H16.8701C17.069 6.86995 17.2597 6.94896 17.4004 7.08962C17.541 7.23027 17.6201 7.42103 17.6201 7.61995C17.6201 7.81886 17.541 8.00962 17.4004 8.15028C17.2597 8.29093 17.069 8.36995 16.8701 8.36995ZM6.37006 9.12995C6.18006 9.12995 5.99006 9.05995 5.84006 8.90995L5.09006 8.15995C4.80006 7.86995 4.80006 7.38995 5.09006 7.09995C5.38006 6.80995 5.86006 6.80995 6.15006 7.09995L6.37006 7.31995L8.09006 5.59995C8.38006 5.30995 8.86006 5.30995 9.15006 5.59995C9.44006 5.88995 9.44006 6.36995 9.15006 6.65995L6.90006 8.90995C6.75954 9.05064 6.5689 9.12977 6.37006 9.12995ZM16.8701 15.3699H11.6201C11.2101 15.3699 10.8701 15.0299 10.8701 14.6199C10.8701 14.2099 11.2101 13.8699 11.6201 13.8699H16.8701C17.069 13.8699 17.2597 13.949 17.4004 14.0896C17.541 14.2303 17.6201 14.421 17.6201 14.6199C17.6201 14.8189 17.541 15.0096 17.4004 15.1503C17.2597 15.2909 17.069 15.3699 16.8701 15.3699ZM6.37006 16.1299C6.18006 16.1299 5.99006 16.0599 5.84006 15.9099L5.09006 15.1599C4.80006 14.8699 4.80006 14.3899 5.09006 14.0999C5.38006 13.8099 5.86006 13.8099 6.15006 14.0999L6.37006 14.3199L8.09006 12.5999C8.38006 12.3099 8.86006 12.3099 9.15006 12.5999C9.44006 12.8899 9.44006 13.3699 9.15006 13.6599L6.90006 15.9099C6.75954 16.0506 6.5689 16.1298 6.37006 16.1299Z" fill="#004A98"/>
<path d="M14.25 21.5H8.25C2.82 21.5 0.5 19.18 0.5 13.75V7.75C0.5 2.32 2.82 0 8.25 0H14.25C19.68 0 22 2.32 22 7.75V13.75C22 19.18 19.68 21.5 14.25 21.5ZM8.25 1.5C3.64 1.5 2 3.14 2 7.75V13.75C2 18.36 3.64 20 8.25 20H14.25C18.86 20 20.5 18.36 20.5 13.75V7.75C20.5 3.14 18.86 1.5 14.25 1.5H8.25Z" fill="#004A98"/>
</svg>
