<svg width="81" height="60" viewBox="0 0 81 60" fill="none" xmlns="http://www.w3.org/2000/svg">
<path d="M53.6389 52.5962H78.4971L75.0813 58.4232H47.8262L53.6389 52.5962Z" fill="#5EB3E4"/>
<path d="M74.5644 10.7446H72.1102V3.36749H64.7188V0.898926H74.5644V10.7446Z" fill="#5EB3E4"/>
<path d="M17.5823 39.9225L15.8457 38.1859L37.6326 16.3847L47.4782 26.2447L72.4657 1.25732L74.2023 3.00827L47.4782 29.718L37.6326 19.8723L17.5823 39.9225Z" fill="#5EB3E4"/>
<path d="M73.8459 59.9726H6.36116L0.720703 54.3322V50.127H31.9945L34.463 52.5955H45.7583L48.227 50.127H79.5007V54.3322L73.8459 59.9726ZM7.38017 57.5184H72.8269L77.0321 53.3131V52.5955H49.2317L46.763 55.0642H33.4297L30.9611 52.5955H3.16062V53.3131L7.38017 57.5184Z" fill="#004A95"/>
<path d="M8.09747 47.6732H5.62891V5.82177C5.62891 3.10918 7.83916 0.898926 10.5518 0.898926H59.7803V3.36749H10.5518C9.18828 3.36749 8.08315 4.47266 8.08315 5.83614V47.6732H8.09747Z" fill="#004A95"/>
<path d="M74.5779 15.6675H72.1094V47.6732H74.5779V15.6675Z" fill="#004A95"/>
<path d="M69.6387 45.2051H10.5645V5.82227H59.793V8.29083H13.0186V42.7508H67.1701V15.668H69.6387V45.2051Z" fill="#004A95"/>
<path d="M31.492 32.9043H29.0234V40.2958H31.492V32.9043Z" fill="#004A95"/>
<path d="M26.5682 37.8271H24.0996V40.2958H26.5682V37.8271Z" fill="#004A95"/>
<path d="M36.414 27.9819H33.9453V40.2963H36.414V27.9819Z" fill="#004A95"/>
<path d="M41.3358 27.9819H38.8672V40.2963H41.3358V27.9819Z" fill="#004A95"/>
<path d="M46.2616 32.9043H43.793V40.2958H46.2616V32.9043Z" fill="#004A95"/>
<path d="M51.1835 32.9043H48.7148V40.2958H51.1835V32.9043Z" fill="#004A95"/>
<path d="M56.1053 27.9819H53.6367V40.2963H56.1053V27.9819Z" fill="#004A95"/>
<path d="M61.0291 23.0591H58.5605V40.2963H61.0291V23.0591Z" fill="#004A95"/>
<path d="M80.7186 10.7153H78.25V13.184H80.7186V10.7153Z" fill="#004A95" stroke="#004A95" stroke-width="0.3721" stroke-miterlimit="10"/>
<path d="M80.7186 5.79297H78.25V8.26162H80.7186V5.79297Z" fill="#004A95" stroke="#004A95" stroke-width="0.3721" stroke-miterlimit="10"/>
<path d="M80.7186 0.870117H78.25V3.33877H80.7186V0.870117Z" fill="#004A95" stroke="#004A95" stroke-width="0.3721" stroke-miterlimit="10"/>
</svg>
