<svg width="81" height="60" viewBox="0 0 81 60" fill="none" xmlns="http://www.w3.org/2000/svg">
<path d="M10.6108 2.12354H2.03125V43.5854H10.6108V2.12354Z" fill="#5EB3E4"/>
<path d="M69.9663 59.6261H7.76099C7.20172 59.6261 6.74414 59.1684 6.74414 58.6092V7.60186C6.74414 7.0426 7.20172 6.58496 7.76099 6.58496H69.9408C70.5001 6.58496 70.9577 7.0426 70.9577 7.60186V19.2575C70.9577 19.8167 70.5001 20.2742 69.9408 20.2742C69.3816 20.2742 68.924 19.8167 68.924 19.2575V8.61877H8.77783V57.5796H69.9663C70.5255 57.5796 70.9831 58.0372 70.9831 58.5965C70.9831 59.1684 70.5255 59.6261 69.9663 59.6261Z" fill="#004A98"/>
<path d="M69.9545 17.4267H7.77466C7.2154 17.4267 6.75781 16.9692 6.75781 16.41C6.75781 15.8507 7.2154 15.3931 7.77466 15.3931H69.9545C70.5138 15.3931 70.9714 15.8507 70.9714 16.41C70.9714 16.9692 70.5138 17.4267 69.9545 17.4267Z" fill="#004A98"/>
<path d="M44.725 49.1403H16.6475C16.1899 49.1403 15.834 48.6826 15.834 48.1233C15.834 47.5641 16.2026 47.1064 16.6475 47.1064H44.725C45.1826 47.1064 45.5385 47.5641 45.5385 48.1233C45.5385 48.6826 45.1699 49.1403 44.725 49.1403Z" fill="#5EB3E4"/>
<path d="M44.725 42.8608H16.6475C16.1899 42.8608 15.834 42.4032 15.834 41.8439C15.834 41.2846 16.2026 40.8271 16.6475 40.8271H44.725C45.1826 40.8271 45.5385 41.2846 45.5385 41.8439C45.5385 42.4032 45.1699 42.8608 44.725 42.8608Z" fill="#5EB3E4"/>
<path d="M46.1095 55.2285H16.6338C16.1762 55.2285 15.8203 54.771 15.8203 54.2117C15.8203 53.6525 16.1889 53.1948 16.6338 53.1948H46.1095C46.5671 53.1948 46.923 53.6525 46.923 54.2117C46.923 54.771 46.5671 55.2285 46.1095 55.2285Z" fill="#5EB3E4"/>
<path d="M7.77462 53.1182H1.26685C0.707583 53.1182 0.25 52.6606 0.25 52.1013V1.10675C0.25 0.547484 0.707583 0.0898438 1.26685 0.0898438H54.74C55.2992 0.0898438 55.7568 0.547484 55.7568 1.10675V7.61453C55.7568 8.17379 55.2992 8.63143 54.74 8.63143C54.1807 8.63143 53.7232 8.17379 53.7232 7.61453V2.1235H2.28369V51.0844H7.77462C8.33389 51.0844 8.79147 51.5421 8.79147 52.1013C8.79147 52.6606 8.33389 53.1182 7.77462 53.1182Z" fill="#004A98"/>
<path d="M42.855 50.4234L42.0288 52.4191L41.6348 55.228L44.2277 54.6561L47.0622 52.6732L48.7654 50.5887L45.7403 49.877L42.855 50.4234Z" fill="white"/>
<path d="M70.9835 24.786L68.2635 22.4346L57.8154 34.5476C57.1672 35.2975 57.2435 36.4414 58.0061 37.0897C58.756 37.7379 59.9 37.6618 60.5482 36.8991L70.9835 24.786Z" fill="#5EB3E4"/>
<path d="M80.2515 38.8696H78.1543V50.1057H80.2515V38.8696Z" fill="#5EB3E4"/>
<path d="M72.5835 37.1665H71.4903C68.7067 37.1665 64.0547 33.417 64.0547 33.417" stroke="#004C92" stroke-width="1.1026" stroke-miterlimit="10" stroke-linecap="round" stroke-linejoin="round"/>
<path d="M45.8677 49.6099C45.8677 49.6099 41.7113 51.0207 39.7539 48.1227C40.8597 46.267 45.2321 38.2721 45.2321 38.2721L55.0828 31.7007L58.7307 32.0821" fill="white"/>
<path d="M45.8677 49.6099C45.8677 49.6099 41.7113 51.0207 39.7539 48.1227C40.8597 46.267 45.2321 38.2721 45.2321 38.2721L55.0828 31.7007L58.7307 32.0821" stroke="#004C92" stroke-width="1.1026" stroke-miterlimit="10" stroke-linecap="round" stroke-linejoin="round"/>
<path d="M53.9777 44.831L70.12 26.2227C70.9335 25.2949 70.8953 23.9094 70.0183 23.0324C69.0777 22.0918 67.5271 22.1299 66.6373 23.1213L47.3555 44.9071" stroke="#004C92" stroke-width="1.1026" stroke-miterlimit="10" stroke-linecap="round" stroke-linejoin="round"/>
<path d="M60.5485 39.3657V41.5519C60.5485 43.2297 58.9343 44.8313 57.2692 44.8313H48.5117C47.0754 44.8313 45.2832 45.6956 45.2832 47.5387C45.2832 49.3944 46.3128 50.2967 48.5117 50.2967H52.8968H56.1761C58.0954 51.9872 59.2521 53.5761 61.6544 53.5761H64.9337C65.9505 53.5761 67.3995 53.0805 68.3909 52.8008C69.3696 52.5212 70.4882 52.4831 71.505 52.4831H72.5981" stroke="#004C92" stroke-width="1.1026" stroke-miterlimit="10" stroke-linecap="round" stroke-linejoin="round"/>
<path d="M80.2504 34.98H72.5859V53.5882H80.2504V34.98Z" stroke="#004C92" stroke-width="1.1026" stroke-miterlimit="10" stroke-linecap="round" stroke-linejoin="round"/>
<path d="M75.8652 48.1226V50.3087" stroke="#004C92" stroke-width="1.1026" stroke-miterlimit="10" stroke-linecap="round" stroke-linejoin="round"/>
<path d="M52.8848 51.4019V51.618C52.8848 52.9399 54.3592 53.5882 56.2149 53.5882H56.1641C57.3716 53.5882 58.4011 53.3085 58.9731 52.7492" stroke="#004C92" stroke-width="1.1026" stroke-miterlimit="10" stroke-linecap="round" stroke-linejoin="round"/>
<path d="M47.6094 52.4949C48.0034 53.2322 48.944 53.5882 50.1261 53.5882H50.0752C51.664 53.5882 52.8843 52.9399 52.8843 51.618V51.4019" stroke="#004C92" stroke-width="1.1026" stroke-miterlimit="10" stroke-linecap="round" stroke-linejoin="round"/>
<path d="M49.8452 49.7754C49.5528 49.5212 49.108 49.572 48.8537 49.8643L47.2395 51.809L44.8626 53.4613L42.0282 54.8469L42.7908 51.237L43.3501 50.5887C43.6043 50.2964 43.5789 49.8516 43.2865 49.5974C42.9942 49.3432 42.5493 49.3685 42.2951 49.6609L41.6087 50.4362C41.5325 50.5252 41.4689 50.6396 41.4435 50.754L40.3377 55.94C40.3377 55.9654 40.3377 56.0035 40.3377 56.0289C40.3377 56.0797 40.325 56.1178 40.3377 56.1687C40.3377 56.2195 40.3631 56.2576 40.3758 56.3085C40.3885 56.3339 40.3885 56.3721 40.4012 56.3975C40.4012 56.4102 40.414 56.4103 40.4267 56.423C40.4775 56.5247 40.5538 56.6136 40.6554 56.6771C40.6682 56.6898 40.6936 56.6899 40.719 56.7026C40.7698 56.728 40.8334 56.766 40.8969 56.7787C40.9478 56.7915 40.9986 56.7915 41.0495 56.7915C41.1512 56.7915 41.2528 56.7661 41.3545 56.7153L47.3158 53.8173C47.4047 53.7791 47.481 53.7156 47.5446 53.6393L49.9468 50.7667C50.1756 50.4616 50.1375 50.0169 49.8452 49.7754Z" fill="#004C92"/>
</svg>
