<svg width="80" height="70" viewBox="0 0 80 70" fill="none" xmlns="http://www.w3.org/2000/svg">
<path d="M66.6146 14.4382H68.4067C71.7219 14.4382 74.4399 17.1562 74.4399 20.4714V46.7398C74.4399 50.0551 71.7219 52.7731 68.4067 52.7731H62.7318C61.7761 52.7731 61.1041 53.684 61.3729 54.595L63.822 62.9429L45.0951 53.8184C44.901 53.7288 44.7068 53.684 44.4828 53.684C44.4828 53.684 27.8019 53.8483 27.0701 53.5347L21.918 56.1182C23.5308 57.4324 23.3367 56.1033 25.5618 56.1033H41.8694L66.2114 67.7517C67.3165 68.2893 68.5411 67.2439 68.1827 66.0641L65.2556 56.0883H68.4067C73.5588 56.0883 77.7552 51.877 77.7552 46.7398V20.4714C77.7552 15.3193 74.8282 13.3779 69.691 13.3779L66.6146 14.4382Z" fill="#5EB3E4"/>
<path d="M9.35829 0.52002H52.2031C57.3553 0.52002 61.5516 4.73134 61.5516 9.86854V36.1369C61.5516 41.289 57.3403 45.4854 52.2031 45.4854H35.8955L11.5535 57.1338C10.4485 57.6714 9.22388 56.6261 9.58229 55.4463L12.5093 45.4705H9.35829C4.20616 45.4705 0.00976563 41.2592 0.00976563 36.122V9.8536C0.00976562 4.73133 4.20616 0.52002 9.35829 0.52002ZM52.2031 3.83526H9.35829C6.043 3.83526 3.32505 6.55326 3.32505 9.86854V36.1369C3.32505 39.4522 6.043 42.1702 9.35829 42.1702H15.0331C15.9889 42.1702 16.6609 43.0811 16.3921 43.9921L13.9429 52.34L34.8949 42.3045C35.0891 42.2149 35.2832 42.1702 35.5072 42.1702H52.2031C55.5184 42.1702 58.2364 39.4522 58.2364 36.1369V9.86854C58.2364 6.55326 55.5184 3.83526 52.2031 3.83526Z" fill="#004A98"/>
<path fill-rule="evenodd" clip-rule="evenodd" d="M14.1528 13.124H38.4798C40.4361 13.124 40.4361 16.0809 38.4798 16.0809H14.1528C12.1965 16.0809 12.1965 13.124 14.1528 13.124Z" fill="#5EB3E4"/>
<path fill-rule="evenodd" clip-rule="evenodd" d="M14.1528 21.5317H47.4102C49.3665 21.5317 49.3665 24.4886 47.4102 24.4886H14.1528C12.1965 24.4886 12.1965 21.5317 14.1528 21.5317Z" fill="#5EB3E4"/>
<path fill-rule="evenodd" clip-rule="evenodd" d="M14.1528 29.939H47.4102C49.3665 29.939 49.3665 32.8958 47.4102 32.8958H14.1528C12.1965 32.8958 12.1965 29.939 14.1528 29.939Z" fill="#5EB3E4"/>
<path d="M70.6617 13.2583H65.1063V16.5735H70.6617C73.9769 16.5735 76.6949 19.2915 76.6949 22.6068V48.8752C76.6949 52.1905 73.9769 54.9083 70.6617 54.9083H64.9868C64.0311 54.9083 63.3591 55.8194 63.6279 56.7303L66.077 65.0782L45.125 55.0428C44.9308 54.9532 44.7367 54.9083 44.5127 54.9083H27.8168C26.9805 54.9083 26.1741 54.7292 25.4573 54.4155L21.918 56.1031C23.5308 57.4172 25.5767 58.2088 27.8168 58.2088H44.1244L68.4664 69.857C69.5715 70.3946 70.796 69.3492 70.4376 68.1694L67.5106 58.1938H70.6617C75.8138 58.1938 80.0102 53.9825 80.0102 48.8453V22.5769C80.0251 17.4547 75.8138 13.2583 70.6617 13.2583Z" fill="#004A98"/>
</svg>
