<svg width="76" height="70" viewBox="0 0 76 70" fill="none" xmlns="http://www.w3.org/2000/svg">
<path d="M33.7476 38.9576C35.7516 38.9576 37.3761 37.3331 37.3761 35.3292C37.3761 33.3252 35.7516 31.7007 33.7476 31.7007C31.7437 31.7007 30.1191 33.3252 30.1191 35.3292C30.1191 37.3331 31.7437 38.9576 33.7476 38.9576Z" fill="#5EB3E4"/>
<path d="M58.1538 54.6363C59.1934 54.6363 60.0362 53.7935 60.0362 52.7539C60.0362 51.7143 59.1934 50.8716 58.1538 50.8716C57.1142 50.8716 56.2715 51.7143 56.2715 52.7539C56.2715 53.7935 57.1142 54.6363 58.1538 54.6363Z" fill="#004A98"/>
<path d="M34.6876 58.9952L27.5173 55.8992C18.2541 51.9116 10.8485 44.5555 6.7866 35.3418L4.94141 31.1685V59.0075H34.6876V58.9952Z" fill="#5EB3E4"/>
<path d="M0.955078 9.60742L5.00461 11.3535C10.2182 13.6074 64.3608 17.7436 66.6518 22.9449L67.692 25.2978V9.60742H0.955078Z" fill="#5EB3E4"/>
<path d="M64.5956 36.8649C64.0135 36.8649 63.543 36.3943 63.543 35.8122V27.416C63.543 26.8339 64.0135 26.3633 64.5956 26.3633C65.1776 26.3633 65.6483 26.8339 65.6483 27.416V35.8122C65.6483 36.3819 65.1776 36.8649 64.5956 36.8649Z" fill="#004A98"/>
<path d="M41.9413 60.1591H4.88854C4.3065 60.1591 3.83594 59.6884 3.83594 59.1064V27.416C3.83594 26.8339 4.3065 26.3633 4.88854 26.3633C5.47059 26.3633 5.94122 26.8339 5.94122 27.416V58.0538H41.9413C42.5233 58.0538 42.9939 58.5243 42.9939 59.1064C42.9939 59.676 42.5233 60.1591 41.9413 60.1591Z" fill="#004A98"/>
<path d="M44.0742 10.6112H25.1268C24.5448 10.6112 24.0742 10.1406 24.0742 9.55851V3.23034C24.0742 1.48421 25.4984 0.0600586 27.2445 0.0600586H41.9813C43.7275 0.0600586 45.1516 1.48421 45.1516 3.23034V9.55851C45.1268 10.1406 44.6563 10.6112 44.0742 10.6112ZM26.1794 8.49351H43.0216V3.21794C43.0216 2.6359 42.551 2.16534 41.9689 2.16534H27.2321C26.6501 2.16534 26.1794 2.6359 26.1794 3.21794V8.49351Z" fill="#004A98"/>
<path d="M40.2235 32.9636C39.7281 32.9636 39.2823 32.6169 39.1832 32.1091C39.0718 31.5395 39.4433 30.9822 40.013 30.8707L67.2576 25.5704V10.6107H2.20485V25.5704L29.1771 30.7716C29.7467 30.8831 30.1182 31.4404 30.0192 32.01C29.9077 32.5797 29.3628 32.9636 28.7808 32.8521L0.954103 27.4899C0.458746 27.3909 0.0996094 26.9574 0.0996094 26.4497V9.55797C0.0996094 8.97593 0.570206 8.50537 1.15225 8.50537H68.3226C68.9047 8.50537 69.3752 8.97593 69.3752 9.55797V26.4497C69.3752 26.9574 69.0161 27.3909 68.5207 27.4899L40.4216 32.9512C40.3597 32.9512 40.2978 32.9636 40.2235 32.9636Z" fill="#004A98"/>
<path d="M34.7381 39.627C31.0724 39.627 28.0879 36.6425 28.0879 32.9768C28.0879 29.3112 31.0724 26.3267 34.7381 26.3267C38.4037 26.3267 41.3882 29.3112 41.3882 32.9768C41.4006 36.6425 38.4161 39.627 34.7381 39.627ZM34.7381 28.4319C32.2365 28.4319 30.1932 30.4753 30.1932 32.9768C30.1932 35.4784 32.2365 37.5217 34.7381 37.5217C37.2396 37.5217 39.2829 35.4784 39.2829 32.9768C39.2829 30.4753 37.252 28.4319 34.7381 28.4319Z" fill="#004A98"/>
<path d="M58.2243 58.078C55.2151 58.078 52.7754 55.626 52.7754 52.6291C52.7754 49.6322 55.2274 47.1802 58.2243 47.1802C61.2336 47.1802 63.6732 49.6322 63.6732 52.6291C63.6732 55.626 61.2213 58.078 58.2243 58.078ZM58.2243 49.2855C56.3791 49.2855 54.8807 50.7839 54.8807 52.6291C54.8807 54.4743 56.3791 55.9728 58.2243 55.9728C60.0696 55.9728 61.5679 54.4743 61.5679 52.6291C61.5679 50.7839 60.0572 49.2855 58.2243 49.2855Z" fill="#5EB3E4"/>
<path d="M58.2218 69.5086C57.3054 69.5086 56.3518 69.4219 55.3239 69.2485C55.0391 69.199 54.7914 69.038 54.6304 68.8027C54.4694 68.5674 54.4075 68.2826 54.4694 67.9977C54.6056 67.3166 54.6675 66.6232 54.6675 65.9544C54.6675 65.0504 54.5561 64.1587 54.3208 63.2919C54.2589 63.0442 54.0731 62.9327 53.974 62.8832C53.8749 62.8336 53.6644 62.7717 53.4291 62.8832C52.3517 63.4033 51.3734 64.0969 50.5065 64.9514C50.2093 65.2486 49.9121 65.5953 49.5777 66.0287C49.4044 66.2517 49.1443 66.4002 48.8718 66.4374C48.587 66.4745 48.3022 66.3878 48.0793 66.2145C47.5468 65.7934 47.0762 65.3724 46.6551 64.9514C46.036 64.3322 45.4539 63.6386 44.8719 62.8213C44.5375 62.3631 44.6365 61.7191 45.0824 61.3724C45.4787 61.0628 45.7882 60.7903 46.0731 60.5179C47.1133 59.4776 47.9059 58.264 48.4384 56.8894C48.5499 56.617 48.4013 56.2826 48.1412 56.1711C46.8409 55.6262 45.4663 55.3414 44.0546 55.3414C43.6335 55.3414 43.1753 55.3785 42.6304 55.4528C42.3455 55.49 42.0607 55.4157 41.8378 55.2423C41.6149 55.0689 41.4663 54.8089 41.4415 54.524C41.3672 53.8429 41.3301 53.2238 41.3301 52.6293C41.3301 51.7625 41.4044 50.8584 41.5778 49.8553C41.6645 49.2981 42.1846 48.9141 42.7419 48.9761C43.2372 49.038 43.6583 49.0628 44.0546 49.0628C45.1815 49.0628 46.3084 48.877 47.3734 48.5303C47.6211 48.4436 47.7202 48.2578 47.7573 48.1588C47.7945 48.0597 47.844 47.8492 47.7078 47.6139C47.2619 46.8461 46.7046 46.1401 46.0731 45.4962C45.8006 45.2237 45.4787 44.9389 45.0824 44.6293C44.6365 44.2825 44.5499 43.6386 44.8719 43.1804C45.4539 42.3631 46.036 41.6695 46.6551 41.0503C47.2743 40.4311 47.9678 39.8491 48.7851 39.267C49.2434 38.9327 49.8874 39.0318 50.2341 39.4776C50.5437 39.8739 50.8162 40.1835 51.101 40.4683C51.7326 41.0999 52.4384 41.6448 53.2062 42.103C53.4291 42.2392 53.6397 42.1897 53.7511 42.1525C53.8502 42.1154 54.0359 42.0163 54.1226 41.7686C54.4817 40.7036 54.6552 39.589 54.6552 38.4497C54.6552 38.0534 54.6304 37.6448 54.5685 37.137C54.4942 36.5798 54.8904 36.0596 55.4477 35.9729C57.4415 35.6386 58.9895 35.6386 60.9834 35.9729C61.5406 36.0596 61.9245 36.5798 61.8626 37.137C61.8006 37.6324 61.7759 38.0534 61.7759 38.4497C61.7759 39.7129 61.9988 40.9636 62.4323 42.1401C62.5189 42.363 62.6924 42.4621 62.779 42.4993C62.8781 42.5364 63.0762 42.586 63.3115 42.4745C64.3518 41.9668 65.293 41.2857 66.1103 40.4683C66.3951 40.1835 66.6676 39.8739 66.9648 39.4776C67.3116 39.0318 67.9555 38.9451 68.4137 39.267C69.231 39.8491 69.9245 40.4311 70.5437 41.0503C70.9648 41.4714 71.3858 41.942 71.8069 42.4745C71.9803 42.6974 72.0669 42.9823 72.0298 43.2671C71.9926 43.5519 71.844 43.7996 71.6211 43.973C71.1877 44.3073 70.8409 44.6046 70.5437 44.9018C69.7511 45.6943 69.0948 46.5984 68.5994 47.6015C68.488 47.8244 68.5376 48.0225 68.5747 48.1216C68.6119 48.2206 68.7233 48.4064 68.9586 48.4807C70.0608 48.8522 71.2125 49.0504 72.3766 49.0504C72.7729 49.0504 73.1815 49.0256 73.6893 48.9637C74.2465 48.9017 74.7667 49.2857 74.8534 49.843C75.0144 50.8337 75.101 51.7501 75.101 52.6169C75.101 53.2114 75.0639 53.8306 74.9896 54.5117C74.9524 54.7965 74.8162 55.0566 74.5933 55.2299C74.3704 55.4033 74.0855 55.4777 73.8007 55.4405C73.2558 55.3662 72.81 55.329 72.3766 55.329C71.1258 55.329 69.8998 55.5396 68.7481 55.973C68.5747 56.0349 68.4384 56.1711 68.3765 56.3321C68.3394 56.4312 68.3022 56.5922 68.3765 56.7532C68.909 57.9297 69.6397 58.9947 70.5561 59.9111C71.0267 60.3817 71.5716 60.8275 72.1413 61.2114C72.3766 61.3724 72.5375 61.62 72.5871 61.8925C72.6366 62.1773 72.5747 62.4622 72.4137 62.6851C71.8069 63.5396 71.2001 64.2702 70.5561 64.9266C69.8998 65.5829 69.1691 66.1897 68.3146 66.7841C68.0793 66.9451 67.7945 67.0071 67.522 66.9575C67.2372 66.908 67.0019 66.747 66.8409 66.5117C66.4446 65.9296 66.0112 65.3971 65.5406 64.9266C64.7852 64.1711 63.9183 63.5395 62.9648 63.0442C62.7295 62.9203 62.5313 62.9822 62.4323 63.0318C62.3332 63.0813 62.1475 63.1928 62.0855 63.4405C61.8874 64.2454 61.7883 65.0875 61.7883 65.9297C61.7883 66.5984 61.8502 67.2919 61.9864 67.973C62.036 68.2455 61.9864 68.5426 61.8255 68.7779C61.6645 69.0132 61.4168 69.1742 61.132 69.2237C60.0917 69.4219 59.1382 69.5086 58.2218 69.5086ZM56.6985 67.3166C57.7511 67.4281 58.6799 67.4281 59.7326 67.3166C59.683 66.8584 59.6583 66.4126 59.6583 65.9544C59.6583 64.9513 59.7821 63.9482 60.005 62.9699C60.2031 62.1525 60.7604 61.4838 61.5283 61.1247C62.2961 60.7779 63.1629 60.7903 63.9183 61.1866C65.0577 61.781 66.0979 62.5488 67.0019 63.4529C67.3239 63.7749 67.6211 64.1092 67.9059 64.4684C68.3146 64.134 68.6985 63.7996 69.0453 63.4529C69.392 63.1061 69.7264 62.7346 70.0608 62.3136C69.7017 62.0287 69.3673 61.7191 69.0453 61.4095C67.9431 60.3073 67.0638 59.0318 66.4322 57.62C66.135 56.9513 66.1227 56.1959 66.4199 55.5148C66.7171 54.8089 67.2991 54.264 68.0174 53.9915C69.5902 53.4219 71.2001 53.1371 72.971 53.2361C72.9834 53.0256 72.9834 52.8151 72.9834 52.6045C72.9834 52.134 72.9586 51.651 72.8967 51.1432C71.262 51.2176 69.7512 50.9823 68.2651 50.4745C67.5097 50.2145 66.9028 49.6448 66.6056 48.9142C66.3084 48.1835 66.3456 47.3538 66.6923 46.6479C67.2991 45.4466 68.0793 44.3569 69.0329 43.4157C69.1691 43.2795 69.3177 43.1432 69.4663 43.007C69.3177 42.846 69.1815 42.6974 69.0329 42.5488C68.6985 42.2144 68.3394 41.8925 67.9431 41.5829C67.8193 41.7191 67.6955 41.843 67.584 41.9668C66.6057 42.9451 65.4787 43.7625 64.2279 44.3693C63.5221 44.716 62.7047 44.7531 61.9864 44.4559C61.2682 44.1711 60.7109 43.5891 60.4385 42.8708C59.906 41.4466 59.6459 39.9606 59.6459 38.4373C59.6459 38.264 59.6459 38.0906 59.6583 37.9048C58.6428 37.7934 57.7636 37.7934 56.7481 37.9048C56.7605 38.0906 56.7604 38.264 56.7604 38.4373C56.7604 39.7996 56.5499 41.1371 56.1165 42.4126C55.8564 43.2052 55.262 43.8244 54.4818 44.1092C53.7016 44.4064 52.8471 44.3321 52.1288 43.911C51.2124 43.3661 50.3579 42.7098 49.5901 41.9544C49.4663 41.8306 49.3425 41.7067 49.231 41.5705C48.8347 41.8925 48.4756 42.2144 48.1412 42.5488C47.8069 42.8832 47.4849 43.2423 47.1753 43.6386C47.3115 43.7624 47.4353 43.8739 47.5592 43.9977C48.3146 44.7531 48.9833 45.6077 49.5158 46.5365C49.9369 47.2547 50.0112 48.1092 49.7139 48.8894C49.4167 49.6696 48.7975 50.264 48.0174 50.5241C46.5684 51.007 45.0948 51.2299 43.5097 51.1556C43.4601 51.6634 43.423 52.1463 43.423 52.6169C43.423 52.8275 43.423 53.0256 43.4354 53.2485C43.6335 53.2361 43.8316 53.2361 44.0298 53.2361C45.7264 53.2361 47.3734 53.5705 48.9338 54.2268C50.2589 54.7841 50.9028 56.3197 50.3827 57.6572C49.7388 59.3043 48.7851 60.7656 47.5468 62.004C47.4229 62.1278 47.2991 62.2516 47.1629 62.3631C47.4848 62.7594 47.8069 63.1185 48.1412 63.4529C48.2898 63.6015 48.4384 63.7377 48.5994 63.8863C48.7357 63.7377 48.8719 63.5891 49.0081 63.4529C50.036 62.425 51.2124 61.5953 52.5003 60.9761C53.2434 60.617 54.0979 60.6169 54.8409 60.9637C55.5839 61.3104 56.1289 61.9668 56.3394 62.7594C56.6118 63.7996 56.7481 64.877 56.7481 65.9544C56.7728 66.4126 56.748 66.8584 56.6985 67.3166Z" fill="#5EB3E4"/>
</svg>
