<svg width="81" height="81" viewBox="0 0 81 81" fill="none" xmlns="http://www.w3.org/2000/svg">
<path d="M40.913 0.680176C42.4337 1.12575 43.7087 1.86328 44.4921 3.33829C45.7978 5.84274 44.7532 8.91569 42.1419 10.1141C39.638 11.2665 36.5505 10.0066 35.5674 7.40993C34.5382 4.73647 35.9361 1.80179 38.6396 0.956729C38.8854 0.879906 39.1158 0.787744 39.3615 0.695556C39.8684 0.680191 40.3907 0.680176 40.913 0.680176ZM40.1142 8.17817C41.5274 8.17817 42.6949 7.02584 42.6949 5.61228C42.6949 4.19873 41.5274 3.03098 40.1296 3.03098C38.7164 3.03098 37.549 4.19871 37.549 5.5969C37.549 7.01046 38.701 8.17817 40.1142 8.17817Z" fill="#5EB3E4"/>
<path d="M80.1304 41.458C79.6849 42.9792 78.9476 44.2698 77.4729 45.038C74.9845 46.344 71.8969 45.2838 70.6988 42.6872C69.5467 40.1828 70.7909 37.1098 73.3869 36.1111C76.0444 35.0817 78.9937 36.4952 79.8539 39.1841C79.9307 39.4299 80.0229 39.6604 80.115 39.9062C80.1304 40.4132 80.1304 40.9356 80.1304 41.458ZM72.6343 40.6591C72.6189 42.0727 73.771 43.2404 75.1842 43.2557C76.5974 43.2711 77.7802 42.1187 77.7955 40.7052C77.8109 39.2916 76.6588 38.1239 75.2456 38.1085C73.817 38.0932 72.6343 39.2455 72.6343 40.6591Z" fill="#5EB3E4"/>
<path d="M30.0989 58.1592C30.0989 56.9761 30.1142 55.9927 30.0835 55.0093C30.0835 54.8096 29.8992 54.5945 29.7456 54.4409C29.039 53.7187 28.3017 53.012 27.5951 52.2899C26.5812 51.2451 26.4891 50.2924 27.2878 49.0632C27.6565 48.4947 28.0405 47.9416 28.486 47.2809C26.8885 46.5742 25.2295 46.0364 23.8163 45.1452C22.4184 44.2694 21.2664 43.0095 19.8992 41.8264C20.1911 43.3168 20.4061 44.8226 20.7902 46.2976C21.4046 48.5869 22.4645 50.6612 23.8777 52.551C24.016 52.7354 24.1696 52.9198 24.2771 53.1195C24.6458 53.7341 24.5536 54.3487 24.0467 54.7328C23.5244 55.1323 22.8024 55.0708 22.3877 54.4716C21.5889 53.3193 20.7441 52.1823 20.1143 50.9378C15.2449 41.3809 17.6105 30.0571 25.8439 23.2505C34.2771 16.2903 46.9037 16.5669 54.9989 23.9419C60.4982 28.9508 62.9405 35.235 62.4029 42.6101C61.6502 52.9505 53.3861 61.5393 43.0635 62.8761C36.9345 63.6597 31.4046 62.2001 26.4737 58.4972C26.1204 58.2206 25.7825 57.6675 25.7671 57.2372C25.7364 56.3307 26.7963 55.9466 27.6411 56.4998C28.4399 56.9914 29.1926 57.5292 30.0989 58.1592ZM46.9805 37.678C46.0742 37.0173 45.936 36.5256 46.5044 35.6345C47.0113 34.8355 47.2724 33.9905 47.2724 33.0686C47.2724 31.8394 47.9022 31.0404 48.9775 30.4873C50.7747 29.5654 52.5566 28.582 54.3384 27.6141C54.5535 27.4912 54.7685 27.3682 54.9375 27.276C54.3691 26.6922 53.8469 26.1391 53.2939 25.5552C52.9252 26.093 52.5873 26.5846 52.2493 27.0763C51.5888 28.0443 50.9129 28.3055 50.2831 27.8445C49.638 27.3836 49.6687 26.7076 50.3292 25.7242C50.6979 25.1865 51.0512 24.6641 51.4506 24.0956C49.4537 22.7128 47.3492 21.7601 44.999 21.1916C44.9375 21.5297 44.8607 21.8216 44.83 22.1289C44.6918 23.5578 44.0927 24.6948 42.9253 25.5706C42.1111 26.1852 41.3738 26.8919 40.6058 27.5373C39.0697 28.8279 37.8254 28.5052 37.1496 26.6154C36.5044 24.8177 35.8592 23.0047 35.1526 21.0534C33.509 21.6987 31.9422 22.3286 30.3293 22.9739C31.3738 25.0021 30.9898 26.6154 29.5766 28.0597C29.1004 28.5513 28.6703 29.0891 28.1941 29.6576C28.6242 29.8881 28.9468 30.0724 29.2848 30.2568C29.3769 30.0878 29.4384 29.9956 29.4845 29.9034C30.4368 28.1058 32.2187 27.8292 33.6473 29.2735C34.0927 29.7191 34.5075 30.18 34.9376 30.6409C36.1665 31.9623 36.1818 33.13 34.999 34.4975C33.3861 36.372 31.7118 38.2004 30.1603 40.121C29.1926 41.3194 28.1327 42.103 26.5352 41.9955C25.6749 41.934 25.2909 42.4411 25.1527 43.2554C26.7195 43.9468 28.2556 44.6382 29.807 45.2988C29.976 45.3757 30.2218 45.4064 30.4061 45.345C31.2817 45.053 32.0344 45.2681 32.787 45.7291C34.4153 46.7585 36.0589 47.7572 37.6872 48.7867C39.6687 50.0312 40.2064 51.8442 39.2079 53.9646C38.3477 55.7776 37.4721 57.5753 36.6119 59.373C36.4583 59.6803 36.3354 60.0029 36.1511 60.4024C41.3431 61.3243 46.1203 60.5099 50.5596 57.8211C50.7132 57.7289 50.8361 57.4063 50.8208 57.1912C50.7132 55.9467 50.5596 54.7021 50.406 53.4729C50.2371 52.09 50.0681 50.7073 49.8838 49.2323C49.1925 49.3398 48.5781 49.432 47.979 49.5395C46.5351 49.7853 45.6441 49.3706 44.9529 48.0646C44.5535 47.3117 44.1695 46.5435 43.7701 45.7752C43.2786 44.8073 43.0174 43.7471 43.4936 42.7637C44.3538 40.9046 45.2755 39.0455 46.9805 37.678ZM53.0481 56.0081C56.3046 53.181 58.3937 49.8776 59.469 45.9288C59.5304 45.6984 59.3922 45.3757 59.2693 45.1452C58.5473 43.916 57.8254 42.6715 57.0419 41.4731C56.873 41.2119 56.5043 40.9814 56.2125 40.9507C55.1526 40.8124 54.0927 40.7509 53.0327 40.6895C52.1572 40.628 51.4198 40.3207 50.8822 39.5986C50.7593 39.4449 50.5443 39.1837 50.4521 39.2145C49.5305 39.5064 48.363 39.5986 47.764 40.2285C46.8423 41.1965 46.32 42.5332 45.6134 43.7163C46.0282 44.715 46.4429 45.6984 46.873 46.6971C46.8884 46.7278 46.9037 46.7432 46.9037 46.7739C47.0574 47.2041 47.3185 47.2809 47.7486 47.1734C48.3477 47.0351 48.9775 46.9429 49.5919 46.8968C50.9437 46.8046 51.9575 47.6189 52.1725 48.9556C52.2954 49.7239 52.3722 50.5075 52.4798 51.2757C52.6641 52.7968 52.8484 54.318 53.0481 56.0081ZM28.3938 24.4029C28.2863 24.4182 28.2556 24.4029 28.2402 24.4182C23.7241 27.7524 21.082 32.2235 20.1757 37.7394C20.145 37.8931 20.1757 38.1236 20.2833 38.2465C21.2203 39.3835 22.188 40.5051 23.2018 41.7035C23.7395 40.3361 24.6765 39.6754 26.059 39.66C26.2894 39.66 26.5352 39.5832 26.7502 39.5986C27.3032 39.6447 27.6565 39.3835 27.9944 38.9686C29.3462 37.3707 30.7133 35.8188 32.0804 34.2363C32.5566 33.6831 33.0175 33.1454 33.5244 32.5462C32.9099 31.8855 32.3569 31.2863 31.7579 30.6256C31.6043 30.9175 31.4814 31.148 31.3585 31.3784C30.744 32.4079 29.4844 32.8381 28.3631 32.3618C27.9637 32.1928 27.5643 31.9623 27.1957 31.7319C25.721 30.81 25.4599 29.212 26.5812 27.8753C27.1035 27.2607 27.6411 26.6615 28.1634 26.0469C28.5935 25.5706 28.7471 25.0328 28.3938 24.4029ZM33.8009 59.7263C34.9376 57.3755 36.0589 55.0708 37.1496 52.7354C37.5336 51.9057 37.3339 51.3372 36.5198 50.8148C35.3216 50.0466 34.0927 49.3091 32.8792 48.5562C32.3109 48.2029 31.7579 47.8648 31.1588 47.4961C30.4522 48.5409 29.7917 49.5088 29.0543 50.5997C29.7149 51.2143 30.3293 51.8597 31.0205 52.3974C32.1419 53.2732 32.6181 54.364 32.4491 55.793C32.3569 56.5305 32.4337 57.2988 32.4337 58.0516C32.4337 59.3269 32.4337 59.3268 33.8009 59.7263ZM56.5504 29.1045C54.3231 30.2875 52.1725 31.4399 50.022 32.6076C49.8223 32.7152 49.7148 33.0071 49.5151 33.2683C49.7609 33.3298 49.807 33.3451 49.8684 33.3451C49.9913 33.3451 50.1295 33.3451 50.2524 33.3144C52.065 32.7767 53.6933 33.13 55.1679 34.2824C55.7977 34.774 56.4121 34.9738 57.1956 34.5436C57.7793 34.2209 58.3323 34.5436 58.6241 35.1274C58.8853 35.6806 58.747 36.1876 58.2247 36.5717C58.0404 36.71 57.8561 36.8175 57.5181 37.0327C58.3169 38.6613 59.1003 40.2593 59.8837 41.8572C59.9605 41.8265 60.0527 41.7804 60.1295 41.7496C60.3753 37.1402 59.1771 32.961 56.5504 29.1045ZM39.254 25.6013C40.7286 24.1263 42.8945 23.312 42.5105 20.6539C40.9283 20.6539 39.2847 20.6539 37.5029 20.6539C38.1173 22.344 38.6549 23.9112 39.254 25.6013ZM48.363 37.2478C48.6856 37.171 48.9928 37.1402 49.2847 37.048C50.6364 36.5871 51.7885 36.8329 52.6487 38.0313C52.7409 38.1543 52.8791 38.2926 53.002 38.308C53.8622 38.4001 54.7378 38.4462 55.7824 38.523C55.4905 37.8931 55.383 37.2324 55.0143 36.9712C53.6779 36.0186 52.3415 34.9123 50.4828 35.6498C50.406 35.6806 50.3292 35.6805 50.2524 35.6805C49.1772 35.6345 48.6242 36.2183 48.363 37.2478Z" fill="#004A98"/>
<path d="M32.4947 6.88748C32.4793 7.40988 32.0492 7.70182 31.4501 7.90156C29.8526 8.43933 28.209 8.90026 26.6729 9.57631C16.9033 13.9553 10.5132 21.2996 7.47171 31.5786C7.41026 31.8091 7.34882 32.0395 7.27201 32.2546C7.01088 32.9 6.44252 33.1919 5.84345 33.0229C5.22901 32.8539 4.84499 32.2239 5.0754 31.5478C5.59767 29.8884 6.07386 28.1983 6.74974 26.6004C10.252 18.411 15.9817 12.2498 23.954 8.28568C26.1659 7.17942 28.593 6.47264 30.9432 5.64295C31.8034 5.33565 32.51 5.88878 32.4947 6.88748Z" fill="#004A98"/>
<path d="M48.7612 75.9827C48.4386 75.6447 47.9624 75.3374 47.8088 74.9379C47.563 74.2926 47.9163 73.7548 48.5769 73.5397C49.606 73.1863 50.6813 72.9251 51.6951 72.541C62.4171 68.4233 69.4216 60.8484 72.755 49.8627C72.8318 49.6168 72.8778 49.3556 72.9854 49.1098C73.2619 48.4338 73.8763 48.1418 74.5061 48.3722C75.0745 48.572 75.397 49.1712 75.1974 49.8319C74.6904 51.4145 74.2603 53.0278 73.5998 54.5489C68.9147 65.381 60.881 72.4027 49.5446 75.6754C49.3449 75.7368 49.1452 75.783 48.9455 75.8291C48.8841 75.8905 48.8226 75.9366 48.7612 75.9827Z" fill="#004A98"/>
<path d="M48.7163 5.44336C49.7762 5.75065 50.6057 5.95038 51.4045 6.24231C63.6164 10.5598 71.5427 18.9336 75.1525 31.3636C75.3983 32.1933 75.1064 32.8079 74.4459 33.0077C73.7393 33.2228 73.1709 32.854 72.9098 31.9629C71.9881 28.6902 70.6978 25.5712 68.8699 22.698C64.2923 15.5226 57.9329 10.6827 49.807 8.17828C49.3308 8.03999 48.8546 7.9171 48.4091 7.71735C47.8561 7.47152 47.6103 6.94912 47.8254 6.42672C47.979 6.02724 48.4398 5.73529 48.7163 5.44336Z" fill="#004A98"/>
<path d="M32.4962 74.3843C32.4654 75.4906 31.7895 75.9669 30.9447 75.7364C27.7343 74.8914 24.6774 73.6622 21.8203 71.972C14.9386 67.885 9.88487 62.1694 6.75124 54.7943C6.09072 53.2271 5.61454 51.5676 5.09227 49.9236C4.84649 49.14 5.15371 48.5255 5.79887 48.3411C6.49011 48.1414 7.07383 48.4794 7.3196 49.3091C8.05692 51.8596 8.96322 54.3487 10.2535 56.6841C14.7696 64.9043 21.5131 70.374 30.4531 73.1551C30.8679 73.2933 31.3441 73.3395 31.7127 73.5546C32.0814 73.8004 32.3425 74.2153 32.4962 74.3843Z" fill="#004A98"/>
<path d="M45.0132 76.0284C44.7982 78.8094 42.5094 80.8529 39.852 80.6686C37.0716 80.4688 35.0133 78.118 35.2283 75.4139C35.4587 72.6175 37.7629 70.6354 40.5432 70.8659C43.1699 71.0656 45.2283 73.4471 45.0132 76.0284ZM42.7091 75.7518C42.7091 74.3383 41.5417 73.186 40.1284 73.186C38.7152 73.186 37.5478 74.3537 37.5478 75.7672C37.5478 77.1808 38.7306 78.3485 40.1284 78.3485C41.5417 78.3331 42.7091 77.1654 42.7091 75.7518Z" fill="#5EB3E4"/>
<path d="M9.97558 40.7355C9.96022 43.4397 7.70216 45.6522 5.014 45.6061C2.29512 45.56 0.0985028 43.3321 0.129225 40.6433C0.159946 37.9391 2.418 35.7266 5.0908 35.7727C7.82505 35.8034 9.99094 38.0313 9.97558 40.7355ZM7.62535 40.6894C7.62535 39.2759 6.47328 38.1081 5.06008 38.1081C3.64687 38.1081 2.47944 39.2758 2.47944 40.674C2.47944 42.0876 3.64687 43.2553 5.06008 43.2553C6.45792 43.2707 7.62535 42.103 7.62535 40.6894Z" fill="#5EB3E4"/>
<path d="M35.522 26.4312C35.1072 26.8461 34.8461 27.307 34.4774 27.3992C34.1088 27.4914 33.4482 27.3531 33.2639 27.0765C32.7263 26.2622 32.2808 25.3711 31.9582 24.4338C31.8507 24.1112 32.1118 23.4659 32.4191 23.2661C32.7109 23.0664 33.5097 23.051 33.6633 23.2507C34.3392 24.2341 34.8614 25.2943 35.522 26.4312Z" fill="#004A98"/>
<path d="M44.8752 26.4471C45.6125 26.4625 46.5649 27.4151 46.5649 28.1219C46.5649 28.7826 46.0119 29.305 45.3514 29.2742C44.6294 29.2435 43.677 28.2448 43.7078 27.5534C43.7385 26.9234 44.2454 26.4318 44.8752 26.4471Z" fill="#004A98"/>
</svg>
