<svg width="81" height="81" viewBox="0 0 81 81" fill="none" xmlns="http://www.w3.org/2000/svg">
<path d="M34.0703 40.752C39.2191 40.752 44.3197 40.752 49.4686 40.752C49.4686 45.0158 49.4686 49.2475 49.4686 53.5436C47.3607 53.5436 45.2529 53.5436 43.0647 53.5436C43.0647 51.8702 40.5064 51.8381 40.5064 53.5436C38.3342 53.5436 36.2425 53.5436 34.0864 53.5436C34.0703 49.3119 34.0703 45.0802 34.0703 40.752Z" fill="#5EB3E4"/>
<path d="M5.68787 0.430176C5.68787 4.69405 5.68787 8.97402 5.68787 13.3023C6.55673 13.3023 7.37734 13.3023 8.26229 13.3023C8.26229 10.7439 8.26229 8.21782 8.26229 5.6434C9.13116 5.6434 9.93566 5.6434 10.8206 5.6434C10.8206 8.15346 10.8206 10.6957 10.8206 13.2862C11.7217 13.2862 12.5423 13.2862 13.4433 13.2862C13.4433 11.5967 13.4433 9.93944 13.4433 8.23389C14.3283 8.23389 15.1167 8.23389 16.0177 8.23389C16.0177 9.56936 16.0982 10.9209 16.0016 12.2564C15.9051 13.5597 16.2269 14.5573 17.2889 15.3618C17.7877 15.7319 18.1738 16.2307 18.6726 16.7456C24.8995 11.1784 32.14 8.28216 40.523 8.18562C40.523 9.05448 40.523 9.84289 40.523 10.7439C32.4136 10.8887 25.35 13.7206 19.6058 19.4648C13.8617 25.209 11.0137 32.2564 10.8689 40.4141C10.6275 40.4302 10.4505 40.4463 10.2736 40.4463C9.64604 40.4463 9.03462 40.4463 8.31056 40.4463C8.39101 32.0311 11.2872 24.8067 16.9027 18.4994C16.0338 17.6788 15.2293 16.8582 14.3766 16.118C14.1835 15.941 13.7973 15.925 13.5077 15.925C9.17944 15.9089 4.85121 15.9088 0.539062 15.9088C0.539062 15.0722 0.539062 14.2355 0.539062 13.4149C1.37575 13.4149 2.2285 13.4149 3.12955 13.4149C3.12955 12.9322 3.12955 12.6587 3.12955 12.3691C3.12955 8.70051 3.12955 5.03197 3.12955 1.36343C3.12955 1.05772 3.17783 0.751978 3.19392 0.430176C4.03061 0.430176 4.86727 0.430176 5.68787 0.430176Z" fill="#004A98"/>
<path d="M3.19392 0.430176C3.17783 0.735888 3.12955 1.04163 3.12955 1.36343C3.12955 5.03197 3.12955 8.70051 3.12955 12.3691C3.12955 12.6587 3.12955 12.9322 3.12955 13.4149C2.2285 13.4149 1.39184 13.4149 0.539062 13.4149C0.539062 9.08666 0.539062 4.75843 0.539062 0.446282C1.42402 0.430191 2.30896 0.430176 3.19392 0.430176Z" fill="white"/>
<path d="M0.539062 43.1167C1.35966 43.1167 2.18022 43.1167 3.06517 43.1167C3.06517 43.9373 3.06517 44.7579 3.06517 45.6107C2.19631 45.6107 1.35966 45.6107 0.539062 45.6107C0.539062 44.7901 0.539062 43.9534 0.539062 43.1167Z" fill="#5EB3E4"/>
<path d="M0.539062 64.9995C1.37575 64.9995 2.19632 64.9995 3.08128 64.9995C3.08128 65.8362 3.08128 66.6246 3.08128 67.4935C2.2285 67.4935 1.39184 67.4935 0.539062 67.4935C0.539062 66.6729 0.539062 65.8362 0.539062 64.9995Z" fill="#5EB3E4"/>
<path d="M49.6458 20.2368C51.4639 21.4918 53.25 22.6182 54.8911 23.9215C55.9853 24.7903 56.8863 25.9006 57.8035 26.9625C58.1574 27.3648 58.4792 27.5739 59.0424 27.5739C62.4535 27.5417 65.8646 27.5578 69.2757 27.5578C69.5653 27.5578 69.8388 27.5578 70.1928 27.5578C70.1928 28.4267 70.1928 29.2473 70.1928 30.1162C69.9675 30.1322 69.7423 30.1644 69.517 30.1644C65.5589 30.1644 61.6007 30.1644 57.6425 30.1805C57.1437 30.1805 56.8541 30.0196 56.5645 29.6174C53.8935 25.8201 50.3859 23.1652 45.8968 21.9102C40.0078 20.269 34.4728 21.1861 29.4527 24.6777C25.4463 27.4613 22.8879 31.2907 21.7294 36.0534C21.0054 39.0462 21.0858 42.0389 21.7134 45.0317C21.7455 45.2087 21.7616 45.3857 21.8099 45.6109C16.4519 45.6109 11.126 45.6109 5.75195 45.6109C5.75195 44.8064 5.75195 44.0019 5.75195 43.1009C10.0641 43.1009 14.3602 43.1009 18.6723 43.1009C18.6723 41.7815 18.608 40.5586 18.6884 39.3358C19.0746 32.7549 21.8742 27.3808 27.007 23.2779C31.4317 19.738 36.5323 18.2578 42.1639 18.6117C43.3545 18.6922 44.5452 18.8852 45.7037 19.191C46.5243 19.4001 47.0713 19.3197 47.6667 18.66C49.2113 17.0027 50.8364 15.4259 52.4615 13.849C52.719 13.6077 53.1212 13.3985 53.4591 13.3985C60.5709 13.3663 67.6828 13.3825 74.7946 13.3825C74.9716 13.3825 75.1486 13.4146 75.3738 13.4307C75.3738 14.2513 75.3738 15.0558 75.3738 15.9086C70.4824 15.9086 65.5911 15.9086 60.571 15.9086C60.7319 16.1499 60.8123 16.2947 60.9088 16.4074C61.9225 17.421 62.9201 18.4508 63.9659 19.4323C64.2073 19.6576 64.5934 19.8185 64.9152 19.8185C66.653 19.8507 68.4068 19.8346 70.2089 19.8346C70.2089 20.6873 70.2089 21.4918 70.2089 22.3929C67.9563 22.3929 65.7198 22.409 63.4833 22.3768C63.258 22.3768 62.9845 22.1194 62.7914 21.9263C60.9732 20.1242 59.1711 18.3382 57.3851 16.5039C56.9828 16.1017 56.5806 15.989 56.0335 15.9247C54.5854 15.7477 53.5235 16.2465 52.5903 17.3567C51.6731 18.3865 50.579 19.3036 49.6458 20.2368Z" fill="#004A98"/>
<path d="M20.6675 65.0325C19.332 63.6809 18.1896 62.5063 16.9989 61.38C16.8058 61.203 16.4358 61.1387 16.1623 61.1226C14.4245 61.1065 12.6868 61.1065 10.9008 61.1065C10.9008 60.2377 10.9008 59.4492 10.9008 58.5482C12.2524 58.5482 13.5879 58.6769 14.8751 58.516C17.0311 58.2425 18.6241 58.9343 20.0078 60.6238C21.1341 62.0075 22.5339 63.1821 23.7889 64.4694C24.159 64.8555 24.5613 64.9521 25.0762 65.0164C26.5565 65.1934 27.6345 64.6946 28.5838 63.5522C29.4688 62.4742 30.5629 61.5731 31.5766 60.5755C30.4502 59.9158 29.3883 59.3527 28.3907 58.7091C26.4277 57.438 24.7222 55.8772 23.3063 54.0108C22.9523 53.5442 22.5822 53.3672 22.003 53.3832C18.5919 53.4154 15.1807 53.3994 11.7696 53.3994C11.4961 53.3994 11.2065 53.3994 10.8847 53.3994C10.8847 52.5144 10.8847 51.7099 10.8847 50.841C11.1421 50.8249 11.3835 50.8088 11.6409 50.8088C15.583 50.8088 19.509 50.8089 23.4511 50.7928C23.9338 50.7928 24.2556 50.9215 24.5452 51.3398C27.184 55.1049 30.6755 57.7759 35.1325 59.0309C41.0537 60.7043 46.6047 59.8193 51.657 56.3117C55.7117 53.4959 58.2862 49.6021 59.4286 44.8072C60.1365 41.8628 60.04 38.9182 59.4125 35.9737C59.3803 35.7968 59.3481 35.6198 59.3159 35.3784C64.6739 35.3784 69.9997 35.3784 75.3738 35.3784C75.3738 36.1829 75.3738 36.9874 75.3738 37.8885C71.0617 37.8885 66.7817 37.8885 62.4535 37.8885C62.4535 39.1274 62.4856 40.2859 62.4535 41.4444C62.1799 50.7767 55.3899 59.2561 46.3312 61.6375C42.5178 62.6351 38.7206 62.6833 34.9072 61.6696C34.4406 61.5409 34.1349 61.6214 33.8131 61.9593C32.0915 63.7131 30.3698 65.4347 28.616 67.1564C28.3907 67.3816 28.0046 67.5747 27.6828 67.5747C20.5227 67.5908 13.3465 67.5908 6.18637 67.5908C6.05765 67.5908 5.92894 67.5747 5.75195 67.5586C5.75195 66.7541 5.75195 65.9496 5.75195 65.0647C10.6273 65.0325 15.5347 65.0325 20.6675 65.0325Z" fill="#004A98"/>
<path d="M40.6196 70.1487C48.7612 70.0039 55.8087 67.1559 61.5368 61.4117C67.2487 55.6836 70.1127 48.6523 70.2415 40.4624C70.692 40.4624 71.0943 40.4624 71.5126 40.4624C71.9148 40.4624 72.3332 40.4624 72.7998 40.4624C72.7998 46.6893 71.1586 52.3691 67.9084 57.5501C64.6582 62.7472 60.2334 66.6893 54.6663 69.489C54.9076 69.7464 55.1007 69.9556 55.2938 70.1487C57.5303 72.3852 59.8151 74.5573 61.9551 76.8582C62.8561 77.8397 63.8054 78.065 65.0766 77.8075C65.0766 76.1663 65.0766 74.5091 65.0766 72.7874C65.9615 72.7874 66.7821 72.7874 67.6671 72.7874C67.6671 74.4769 67.6671 76.1342 67.6671 77.8397C68.552 77.8397 69.3565 77.8397 70.2093 77.8397C70.2093 75.3136 70.2093 72.8035 70.2093 70.213C71.0943 70.213 71.8988 70.213 72.8159 70.213C72.8159 71.2749 72.8159 72.3369 72.8159 73.3988C72.8159 74.67 72.832 75.9572 72.7998 77.2283C72.7837 77.7432 72.9607 77.9201 73.4756 77.9041C74.087 77.8719 74.7145 77.888 75.3903 77.888C75.3903 73.5598 75.3903 69.328 75.3903 65.0481C76.2592 65.0481 77.0476 65.0481 77.9486 65.0481C77.9486 69.2959 77.9486 73.5437 77.9486 77.888C78.8658 77.888 79.6542 77.888 80.507 77.888C80.507 78.789 80.507 79.5935 80.507 80.4946C80.2334 80.4946 79.976 80.4946 79.7347 80.4946C74.0549 80.4946 68.3751 80.4946 62.6952 80.5107C62.1482 80.5107 61.7781 80.3498 61.408 79.9636C58.5279 77.0513 55.6156 74.1873 52.7515 71.2589C52.2366 70.7279 51.8183 70.6636 51.1425 70.9049C47.7636 72.1117 44.256 72.7231 40.6035 72.707C40.6196 71.8542 40.6196 71.0497 40.6196 70.1487Z" fill="#004A98"/>
<path d="M48.2949 33.9782C47.3939 33.9782 46.6055 33.9782 45.7205 33.9782C45.7205 33.0611 45.7527 32.1761 45.7205 31.3072C45.624 28.8776 43.9345 26.8503 41.6658 26.3998C39.3006 25.9171 37.0157 26.9951 35.9538 29.1994C35.6642 29.7948 35.4711 30.4866 35.455 31.1463C35.3907 32.9162 35.439 34.6862 35.439 36.5526C40.5717 36.5526 45.6722 36.5526 50.8533 36.5526C50.8533 42.6186 50.8533 48.588 50.8533 54.6379C44.0471 54.6379 37.2088 54.6379 30.3223 54.6379C30.3223 48.6685 30.3223 42.6991 30.3223 36.617C31.1268 36.617 31.9313 36.617 32.8323 36.617C32.8323 34.9597 32.8323 33.3989 32.8323 31.8543C32.8323 29.7787 33.4116 27.8961 34.8275 26.3354C36.7422 24.2276 39.1557 23.3426 41.9393 23.8575C44.8355 24.3885 46.8468 26.1423 47.8766 28.9259C48.4558 30.5189 48.311 32.2083 48.2949 33.9782ZM32.8645 39.2236C32.8645 43.5518 32.8645 47.7835 32.8645 52.0152C35.0206 52.0152 37.1123 52.0152 39.2845 52.0152C39.2845 50.3096 39.2845 48.6524 39.2845 46.9468C40.1533 46.9468 40.9417 46.9468 41.8428 46.9468C41.8428 48.6685 41.8428 50.3418 41.8428 52.0152C44.0471 52.0152 46.1389 52.0152 48.2467 52.0152C48.2467 47.7191 48.2467 43.4875 48.2467 39.2236C43.1139 39.2236 38.0134 39.2236 32.8645 39.2236Z" fill="#004A98"/>
<path d="M75.3905 27.5417C75.3905 28.4428 75.3905 29.2473 75.3905 30.084C74.5538 30.084 73.7332 30.084 72.8321 30.084C72.8321 29.3599 72.8161 28.6359 72.8482 27.9118C72.8643 27.7831 73.1218 27.5579 73.2827 27.5579C73.9584 27.5096 74.6342 27.5417 75.3905 27.5417Z" fill="#5EB3E4"/>
<path d="M5.73633 53.3825C5.73633 52.4654 5.73633 51.677 5.73633 50.8242C6.5891 50.8242 7.3936 50.8242 8.29465 50.8242C8.29465 51.5483 8.31077 52.2562 8.27859 52.932C8.2625 53.0768 8.03721 53.3343 7.8924 53.3504C7.18443 53.3986 6.49256 53.3825 5.73633 53.3825Z" fill="#5EB3E4"/>
<path d="M22.2452 23.9057C21.7142 23.3748 21.135 22.7955 20.5879 22.2485C21.1832 21.6531 21.7625 21.0739 22.3417 20.5107C22.9049 21.0578 23.4841 21.637 24.0795 22.2002C23.468 22.7633 22.8727 23.3104 22.2452 23.9057Z" fill="#5EB3E4"/>
<path d="M58.9141 57.0513C59.3968 57.5501 59.976 58.1454 60.5553 58.7247C59.9921 59.2878 59.4129 59.851 58.8176 60.4463C58.3027 59.8832 57.7395 59.2717 57.2246 58.7085C57.7234 58.2098 58.3027 57.6466 58.9141 57.0513Z" fill="#5EB3E4"/>
<path d="M32.9605 17.0834C32.7352 16.2306 32.526 15.4744 32.3008 14.6216C33.1375 14.3963 33.9098 14.1872 34.7787 13.9458C35.0039 14.7986 35.2131 15.5709 35.4544 16.4398C34.5856 16.6651 33.8133 16.8581 32.9605 17.0834Z" fill="#5EB3E4"/>
<path d="M19.9612 27.0753C19.5268 27.8315 19.1245 28.5234 18.674 29.2957C17.9339 28.8613 17.2259 28.459 16.4375 28.0085C16.8558 27.2684 17.2742 26.5604 17.7247 25.772C18.4648 26.2225 19.1728 26.6247 19.9612 27.0753Z" fill="#5EB3E4"/>
<path d="M67.0736 46.2383C66.8323 47.1232 66.6231 47.8956 66.3978 48.7161C65.5611 48.4909 64.7888 48.2978 63.9199 48.0564C64.1291 47.2198 64.3383 46.4475 64.5635 45.5625C65.4324 45.8039 66.2048 46.013 67.0736 46.2383Z" fill="#5EB3E4"/>
<path d="M64.6741 52.9C64.2397 53.6402 63.8375 54.3481 63.3869 55.1365C62.6307 54.7021 61.9227 54.2838 61.1504 53.8493C61.5848 53.1092 61.9871 52.4012 62.4376 51.6128C63.21 52.0472 63.9179 52.4656 64.6741 52.9Z" fill="#5EB3E4"/>
<path d="M53.9436 61.0737C54.378 61.8139 54.7802 62.5219 55.2308 63.3103C54.4745 63.7447 53.7666 64.163 52.9943 64.5975C52.5598 63.8573 52.1576 63.1494 51.707 62.361C52.4794 61.9104 53.1873 61.5082 53.9436 61.0737Z" fill="#5EB3E4"/>
<path d="M80.5384 15.8929C79.7018 15.8929 78.9133 15.8929 78.0605 15.8929C78.0605 15.0723 78.0605 14.2517 78.0605 13.3989C78.8972 13.3989 79.6857 13.3989 80.5384 13.3989C80.5384 14.2034 80.5384 15.008 80.5384 15.8929Z" fill="#5EB3E4"/>
<path d="M27.1837 19.8675C26.7493 19.1273 26.347 18.4194 25.8965 17.6309C26.6527 17.1965 27.3607 16.7943 28.1169 16.3438C28.5514 17.0839 28.9536 17.7918 29.4042 18.5802C28.6479 19.0147 27.94 19.417 27.1837 19.8675Z" fill="#5EB3E4"/>
<path d="M75.3904 19.8506C75.3904 20.7034 75.3904 21.4918 75.3904 22.3285C74.5537 22.3285 73.7654 22.3285 72.8965 22.3285C72.8965 21.5079 72.8965 20.7034 72.8965 19.8506C73.7171 19.8506 74.5055 19.8506 75.3904 19.8506Z" fill="#5EB3E4"/>
<path d="M14.0391 34.6859C14.2804 33.8009 14.4896 33.0447 14.7149 32.208C15.5355 32.4172 16.3078 32.6263 17.1928 32.8516C16.9836 33.6722 16.7744 34.4606 16.5491 35.3456C15.6963 35.1364 14.924 34.9272 14.0391 34.6859Z" fill="#5EB3E4"/>
<path d="M78.0449 37.8236C78.0449 36.9547 78.0449 36.1663 78.0449 35.3296C78.8816 35.3296 79.6861 35.3296 80.5389 35.3296C80.5389 36.1502 80.5389 36.9708 80.5389 37.8236C79.7183 37.8236 78.9138 37.8236 78.0449 37.8236Z" fill="#5EB3E4"/>
<path d="M8.2459 61.0741C7.37703 61.0741 6.58864 61.0741 5.75195 61.0741C5.75195 60.2535 5.75195 59.4651 5.75195 58.6123C6.57255 58.6123 7.39312 58.6123 8.2459 58.6123C8.2459 59.4168 8.2459 60.2052 8.2459 61.0741Z" fill="#5EB3E4"/>
<path d="M46.3335 66.9789C46.1083 66.11 45.8991 65.3538 45.6738 64.501C46.5105 64.2757 47.2989 64.0666 48.1517 63.8413C48.377 64.6941 48.5862 65.4825 48.8114 66.3192C47.9747 66.5284 47.2185 66.7375 46.3335 66.9789Z" fill="#5EB3E4"/>
<path d="M39.3477 41.7656C40.1683 41.7656 40.9406 41.7656 41.7773 41.7656C41.7773 42.6023 41.7773 43.4068 41.7773 44.2918C41.005 44.2918 40.2165 44.2918 39.3477 44.2918C39.3477 43.4873 39.3477 42.6667 39.3477 41.7656Z" fill="#004A98"/>
</svg>
