<svg width="57" height="56" viewBox="0 0 57 56" fill="none" xmlns="http://www.w3.org/2000/svg">
<path d="M21.3887 3.07013L23.1086 7.2301C24.5086 6.7301 25.9687 6.44011 27.4687 6.36011V1.8501C25.3687 1.9401 23.3287 2.34013 21.3887 3.07013Z" fill="#5EB3E4"/>
<path d="M49.9 30.77L49.43 32.62C48.82 35.06 47.76 37.36 46.31 39.41L43.25 43.75L47.33 47.96L50.7 43.7L54.62 36.2L55.44 30.79H49.9V30.77Z" fill="#5EB3E4"/>
<path d="M29.7098 36.1299H27.2498C26.0098 36.1299 24.8399 35.65 23.9499 34.77C23.0699 33.88 22.5898 32.7099 22.5898 31.4699H24.5898C24.5898 32.1799 24.8698 32.8499 25.3698 33.3599C25.8698 33.8599 26.5398 34.1299 27.2498 34.1299H29.7098C30.4098 34.1299 31.0998 33.84 31.6098 33.34C32.0898 32.86 32.3598 32.19 32.3598 31.46C32.3598 30.73 32.0899 30.0599 31.5999 29.5699C31.0899 29.0699 30.3998 28.7899 29.7098 28.7899H27.2498C26.0098 28.7899 24.8399 28.3099 23.9499 27.4299C23.0699 26.5399 22.5898 25.3699 22.5898 24.1199C22.5898 22.8899 23.0698 21.72 23.9398 20.83C24.8398 19.94 26.0098 19.46 27.2498 19.46H29.7098C30.9198 19.46 32.1199 19.9499 33.0099 20.8099C33.8899 21.6999 34.3598 22.8699 34.3598 24.1199H32.3598C32.3598 23.3999 32.0899 22.7299 31.5999 22.2299C31.0999 21.7399 30.4098 21.46 29.7098 21.46H27.2498C26.5398 21.46 25.8698 21.7399 25.3598 22.2399C24.8698 22.7399 24.5898 23.4199 24.5898 24.1199C24.5898 24.8399 24.8698 25.5099 25.3698 26.0099C25.8698 26.5099 26.5499 26.7899 27.2599 26.7899H29.7198C30.9298 26.7899 32.1298 27.29 33.0198 28.15C33.8898 29.02 34.3698 30.19 34.3698 31.46C34.3698 32.72 33.8898 33.8899 33.0298 34.7599C32.1198 35.6299 30.9198 36.1299 29.7098 36.1299Z" fill="#004A98"/>
<path d="M29.4805 16.7002H27.4805V20.4602H29.4805V16.7002Z" fill="#004A98"/>
<path d="M29.4805 35.1304H27.4805V38.8904H29.4805V35.1304Z" fill="#004A98"/>
<path d="M47.2996 48.04L40.3496 41.0901L41.0596 40.3801C44.4296 37.0201 46.2796 32.55 46.2796 27.79V26.79H56.0996V27.79C56.0996 35.17 53.2296 42.1101 48.0096 47.3301L47.2996 48.04ZM43.1596 41.0701L47.2896 45.2001C51.4696 40.6901 53.8496 34.93 54.0896 28.79H48.2596C48.0296 33.38 46.2496 37.6701 43.1596 41.0701Z" fill="#004A98"/>
<path d="M20.7404 11.7202L16.9805 2.65021L17.9005 2.2702C21.2505 0.870203 24.8005 0.160156 28.4705 0.160156H29.4705V9.98016H28.4705C26.1205 9.98016 23.8305 10.4402 21.6605 11.3402L20.7404 11.7202ZM19.6005 3.75018L21.8304 9.1402C23.6504 8.4902 25.5405 8.1102 27.4705 8.0202V2.18018C24.7605 2.28018 22.1205 2.81018 19.6005 3.75018Z" fill="#004A98"/>
<path d="M41.4589 3.3999L34.1289 10.7299V10.9099C34.7789 11.1299 35.4089 11.3799 36.0189 11.6699L43.2489 4.43988C42.6589 4.06988 42.0689 3.7199 41.4589 3.3999Z" fill="#004A98"/>
<path d="M34.1191 5.73987V8.55988L39.9991 2.67987C39.3491 2.37987 38.6791 2.09986 37.9991 1.85986L34.1191 5.73987Z" fill="#004A98"/>
<path d="M47.2884 7.5498L40.3184 14.5198C40.8184 14.9598 41.2884 15.4398 41.7284 15.9298L48.6984 8.95984C48.2484 8.47984 47.7784 8.0098 47.2884 7.5498Z" fill="#004A98"/>
<path d="M51.8196 13.0098L44.5996 20.2297C44.8896 20.8397 45.1496 21.4798 45.3596 22.1298H45.5296L52.8596 14.7997C52.5296 14.1897 52.1896 13.5998 51.8196 13.0098Z" fill="#004A98"/>
<path d="M52.6895 22.1299H55.5095C55.3495 21.3699 55.1595 20.6199 54.9395 19.8799L52.6895 22.1299Z" fill="#004A98"/>
<path d="M46.1395 6.54004C45.6195 6.11004 45.0894 5.70006 44.5494 5.31006L37.4395 12.42C38.0295 12.76 38.5895 13.14 39.1395 13.55L46.1395 6.54004Z" fill="#004A98"/>
<path d="M54.3992 18.25C54.1492 17.57 53.8692 16.9 53.5792 16.25L47.6992 22.13H50.5192L54.3992 18.25Z" fill="#004A98"/>
<path d="M36.3789 1.32001C35.6389 1.10001 34.8889 0.91 34.1289 0.75V3.57001L36.3789 1.32001Z" fill="#004A98"/>
<path d="M50.949 11.7198C50.559 11.1698 50.149 10.6399 49.719 10.1299L42.709 17.1399C43.119 17.6799 43.489 18.2499 43.839 18.8399L50.949 11.7198Z" fill="#004A98"/>
<path d="M12.0396 8.12024L14.4096 13.8502C10.7396 17.5402 8.65961 22.5402 8.65961 27.7902C8.65961 38.7102 17.5396 47.6002 28.4696 47.6002C31.0796 47.6002 33.5996 47.1102 35.9696 46.1302L40.3596 50.5203C36.7196 52.4303 32.6496 53.4302 28.4596 53.4302C14.3296 53.4302 2.8396 41.9302 2.8396 27.8002C2.8396 20.1302 6.23961 12.9402 12.0396 8.12024ZM12.8996 4.97021C5.3496 10.1002 0.849609 18.6202 0.849609 27.7902C0.849609 43.0202 13.2396 55.4102 28.4696 55.4102C33.8896 55.4102 39.1196 53.8602 43.6096 50.9202L36.4196 43.7302C33.9396 44.9702 31.2696 45.5903 28.4796 45.5903C18.6596 45.5903 10.6696 37.6003 10.6696 27.7803C10.6696 22.6203 12.8996 17.7302 16.7896 14.3502L12.8996 4.97021Z" fill="#004A98"/>
<path d="M28.4798 51.5103C28.1198 51.5203 27.7498 51.5003 27.3898 51.4903L27.4798 49.4903C27.8098 49.5003 28.1498 49.5103 28.4798 49.5103C28.7898 49.5103 29.1098 49.5003 29.4198 49.4903L29.5098 51.4903C29.1698 51.5003 28.8298 51.5103 28.4798 51.5103ZM25.2898 51.3003C24.5898 51.2103 23.8997 51.0803 23.2097 50.9203L23.6497 48.9703C24.2797 49.1103 24.9197 49.2303 25.5497 49.3103L25.2898 51.3003ZM21.1698 50.3603C20.4998 50.1403 19.8398 49.8903 19.1898 49.6203L19.9698 47.7803C20.5598 48.0303 21.1698 48.2603 21.7798 48.4603L21.1698 50.3603ZM17.2898 48.7103C16.6698 48.3803 16.0598 48.0103 15.4698 47.6303L16.5698 45.9603C17.1098 46.3103 17.6698 46.6503 18.2298 46.9503L17.2898 48.7103ZM13.7598 46.3903C13.2098 45.9503 12.6698 45.4903 12.1598 45.0103L13.5298 43.5603C13.9998 44.0003 14.4897 44.4303 14.9897 44.8303L13.7598 46.3903ZM10.6998 43.4803C10.2298 42.9503 9.78975 42.4003 9.36975 41.8403L10.9798 40.6603C11.3598 41.1803 11.7698 41.6803 12.1998 42.1703L10.6998 43.4803ZM8.19977 40.0903C7.83977 39.4903 7.48975 38.8703 7.17975 38.2403L8.96976 37.3603C9.24976 37.9403 9.56975 38.5103 9.89975 39.0603L8.19977 40.0903ZM6.32974 36.3003C6.07974 35.6503 5.84976 34.9703 5.65976 34.3003L7.57974 33.7503C7.75974 34.3703 7.95976 34.9803 8.18976 35.5803L6.32974 36.3003ZM5.16977 32.2403C5.03977 31.5503 4.93975 30.8503 4.86975 30.1503L6.85974 29.9503C6.91974 30.5903 7.01977 31.2303 7.13977 31.8603L5.16977 32.2403ZM4.75977 28.0503V27.8003C4.75977 27.1803 4.77974 26.5603 4.82974 25.9403L6.81976 26.1003C6.77976 26.6603 6.74976 27.2403 6.74976 27.8103V28.0403L4.75977 28.0503ZM7.05975 24.1703L5.08975 23.8403C5.20975 23.1503 5.35975 22.4503 5.52975 21.7703L7.45975 22.2803C7.29975 22.9003 7.15975 23.5403 7.05975 24.1703ZM8.03976 20.4303L6.15976 19.7503C6.39976 19.0903 6.66976 18.4303 6.96976 17.8003L8.77975 18.6403C8.49975 19.2303 8.25976 19.8303 8.03976 20.4303Z" fill="#5EB3E4"/>
</svg>
