<svg width="81" height="75" viewBox="0 0 81 75" fill="none" xmlns="http://www.w3.org/2000/svg">
<path d="M65.7942 12.4483H55.0713C53.2189 12.4483 51.7129 10.9422 51.7129 9.08984C51.7129 7.23743 53.2189 5.73145 55.0713 5.73145H65.7942V12.4483Z" fill="#5EB3E4"/>
<path d="M46.0064 73.1402L40.916 70.9414C34.3498 68.1101 29.0787 62.8842 26.1872 56.333L24.877 53.3662V73.1252H46.0064V73.1402Z" fill="#5EB3E4"/>
<path d="M63.8065 20.0835H42.9331C42.2855 20.0835 41.7734 20.5956 41.7734 21.2432C41.7734 21.8907 42.2855 22.4028 42.9331 22.4028H63.8065C64.4541 22.4028 64.9661 21.8907 64.9661 21.2432C64.9661 20.6106 64.439 20.0835 63.8065 20.0835Z" fill="#004A98"/>
<path d="M63.8065 31.6802H42.9331C42.2855 31.6802 41.7734 32.1923 41.7734 32.8398C41.7734 33.4874 42.2855 33.9995 42.9331 33.9995H63.8065C64.4541 33.9995 64.9661 33.4874 64.9661 32.8398C64.9661 32.1923 64.439 31.6802 63.8065 31.6802Z" fill="#5EB3E4"/>
<path d="M63.8065 43.2764H42.9331C42.2855 43.2764 41.7734 43.7884 41.7734 44.436C41.7734 45.0836 42.2855 45.5956 42.9331 45.5956H63.8065C64.4541 45.5956 64.9661 45.0836 64.9661 44.436C64.9661 43.7884 64.439 43.2764 63.8065 43.2764Z" fill="#004A98"/>
<path d="M63.8065 54.8726H42.9331C42.2855 54.8726 41.7734 55.3846 41.7734 56.0322C41.7734 56.6798 42.2855 57.1918 42.9331 57.1918H63.8065C64.4541 57.1918 64.9661 56.6798 64.9661 56.0322C64.9661 55.3846 64.439 54.8726 63.8065 54.8726Z" fill="#5EB3E4"/>
<path d="M67.858 9.07414C67.858 6.83018 66.0357 5.02295 63.8068 5.02295H46.1261C45.4785 5.02295 44.9665 5.53503 44.9665 6.18261C44.9665 6.8302 45.4785 7.34228 46.1261 7.34228H63.8068C64.7706 7.34228 65.5387 8.12535 65.5387 9.07414C65.5387 10.038 64.7556 10.8061 63.8068 10.8061H37.1352C36.1713 10.8061 35.4033 10.0229 35.4033 9.07414C35.4033 8.11029 36.1864 7.34228 37.1352 7.34228H41.4876C42.1352 7.34228 42.6472 6.8302 42.6472 6.18261C42.6472 5.53503 42.1352 5.02295 41.4876 5.02295H37.1352C34.8912 5.02295 33.084 6.84524 33.084 9.07414C33.084 11.3031 34.9063 13.1253 37.1352 13.1253H63.8068C66.0357 13.1404 67.858 11.3181 67.858 9.07414Z" fill="#004A98"/>
<path d="M37.7229 18.3516C37.7229 17.704 37.2109 17.1919 36.5633 17.1919H30.7651C30.1175 17.1919 29.6055 17.704 29.6055 18.3516V24.1497C29.6055 24.7973 30.1175 25.3094 30.7651 25.3094H36.5633C37.2109 25.3094 37.7229 24.7973 37.7229 24.1497V18.3516ZM35.4036 22.9901H31.9247V19.5112H35.4036V22.9901Z" fill="#5EB3E4"/>
<path d="M37.7229 29.9482C37.7229 29.3007 37.2109 28.7886 36.5633 28.7886H30.7651C30.1175 28.7886 29.6055 29.3007 29.6055 29.9482V35.7464C29.6055 36.394 30.1175 36.906 30.7651 36.906H36.5633C37.2109 36.906 37.7229 36.394 37.7229 35.7464V29.9482ZM35.4036 34.5867H31.9247V31.1078H35.4036V34.5867Z" fill="#004A98"/>
<path d="M37.7229 41.5438C37.7229 40.8963 37.2109 40.3843 36.5633 40.3843H30.7651C30.1175 40.3843 29.6055 40.8963 29.6055 41.5438V47.3421C29.6055 47.9897 30.1175 48.5017 30.7651 48.5017H36.5633C37.2109 48.5017 37.7229 47.9897 37.7229 47.3421V41.5438ZM35.4036 46.1824H31.9247V42.7035H35.4036V46.1824Z" fill="#5EB3E4"/>
<path d="M36.5633 51.9658H30.7651C30.1175 51.9658 29.6055 52.4778 29.6055 53.1254V58.9236C29.6055 59.5712 30.1175 60.0833 30.7651 60.0833H36.5633C37.2109 60.0833 37.7229 59.5712 37.7229 58.9236V53.1254C37.7229 52.4929 37.1958 51.9658 36.5633 51.9658ZM35.4036 57.764H31.9247V54.2851H35.4036V57.764Z" fill="#004A98"/>
<path d="M13.3711 55.4445C13.3711 56.0921 13.8831 56.6041 14.5307 56.6041C15.1783 56.6041 15.6904 56.0921 15.6904 55.4445V43.9536C15.6904 43.306 15.1783 42.7939 14.5307 42.7939C13.8831 42.7939 13.3711 43.306 13.3711 43.9536V55.4445Z" fill="#004A98"/>
<path d="M76.5483 53.7128C77.1887 53.7128 77.7079 53.1937 77.7079 52.5532C77.7079 51.9128 77.1887 51.3936 76.5483 51.3936C75.9079 51.3936 75.3887 51.9128 75.3887 52.5532C75.3887 53.1937 75.9079 53.7128 76.5483 53.7128Z" fill="#5EB3E4"/>
<path d="M14.5307 40.3843C15.1712 40.3843 15.6904 39.8651 15.6904 39.2246C15.6904 38.5842 15.1712 38.0649 14.5307 38.0649C13.8903 38.0649 13.3711 38.5842 13.3711 39.2246C13.3711 39.8651 13.8903 40.3843 14.5307 40.3843Z" fill="#5EB3E4"/>
<path d="M79.2891 72.2671H67.753L77.3614 62.6587C77.4367 62.5834 77.4969 62.5081 77.5421 62.4177C77.5572 62.4027 77.5722 62.3725 77.5722 62.3574C77.6174 62.2671 77.6475 62.1767 77.6776 62.0713C77.6927 61.996 77.6927 61.9207 77.6927 61.8454V57.1165C77.6927 56.4689 77.1807 55.9569 76.5331 55.9569C75.8855 55.9569 75.3734 56.4689 75.3734 57.1165V60.6858H64.9367C64.2891 60.6858 63.7771 61.1979 63.7771 61.8454V72.2821H25.5242V2.71914H75.3734V47.9298C75.3734 48.5774 75.8855 49.0894 76.5331 49.0894C77.1807 49.0894 77.6927 48.5774 77.6927 47.9298V2.71914C77.6927 1.43902 76.6536 0.399902 75.3734 0.399902H25.5242C24.2441 0.399902 23.205 1.43902 23.205 2.71914V72.2821H16.0212L16.6237 69.3906H16.8345C17.4821 69.3906 17.9941 68.8785 17.9941 68.2309V64.1798H18.0694C19.952 64.1798 21.473 62.6587 21.473 60.7761V20.1287V11.6498C21.473 8.02031 18.5212 5.06852 14.8917 5.06852H14.1538C11.202 5.06852 8.70199 7.02637 7.85862 9.70709H4.66586C4.01827 9.70709 3.50623 10.2191 3.50623 10.8667V28.2612C3.50623 28.9088 4.01827 29.4208 4.66586 29.4208C5.31345 29.4208 5.8255 28.9088 5.8255 28.2612V12.0263H7.55742V20.1438V49.9931C7.55742 50.6407 8.06947 51.1527 8.71706 51.1527C9.36464 51.1527 9.87668 50.6407 9.87668 49.9931V21.3034H13.3556V34.6317C13.3556 35.2793 13.8676 35.7913 14.5152 35.7913C15.1628 35.7913 15.6749 35.2793 15.6749 34.6317V21.3034H19.1538V60.7912C19.1538 61.3936 18.6718 61.8755 18.0694 61.8755H10.961C10.3586 61.8755 9.87668 61.3936 9.87668 60.7912V54.5412C9.87668 53.8936 9.36464 53.3816 8.71706 53.3816C8.06947 53.3816 7.55742 53.8936 7.55742 54.5412V60.7912C7.55742 62.6737 9.0785 64.1948 10.961 64.1948H11.0363V68.246C11.0363 68.8936 11.5484 69.4056 12.196 69.4056H12.4068L13.0092 72.2972H1.92491C1.20202 72.2972 0.599609 72.8092 0.599609 73.4568C0.599609 74.1044 1.18696 74.6165 1.92491 74.6165H79.274C79.9969 74.6165 80.5993 74.1044 80.5993 73.4568C80.6144 72.7791 80.027 72.2671 79.2891 72.2671ZM66.1265 62.99H73.762L66.1265 70.6256V62.99ZM9.89175 18.939V11.6197C9.89175 9.27028 11.8044 7.3577 14.1538 7.3577H14.8917C17.2411 7.3577 19.1538 9.27028 19.1538 11.6197V18.939H9.89175ZM13.3707 64.1496H15.6899V67.0412H13.3707V64.1496Z" fill="#004A98"/>
</svg>
