<svg width="72" height="59" viewBox="0 0 72 59" fill="none" xmlns="http://www.w3.org/2000/svg">
<path d="M27.1553 58.0012H16.1162C15.4583 58.0012 14.9057 57.5933 14.7741 57.0275C14.6426 56.4881 14.9057 55.9354 15.432 55.6723C16.8925 54.9223 17.8661 53.7513 18.1293 52.4618C18.4977 50.5935 18.3398 48.6594 18.3267 48.633C18.2872 48.1857 18.6161 47.791 19.0635 47.7515C19.4977 47.712 19.9056 48.041 19.945 48.4752C19.9582 48.5673 20.1424 50.6593 19.7213 52.7645C19.445 54.1592 18.5898 55.4223 17.3267 56.3828H27.1685C27.6158 56.3828 27.9711 56.7512 27.9711 57.1854C27.9711 57.6196 27.6027 58.0012 27.1553 58.0012Z" fill="#004A98" stroke="#004A98" stroke-width="0.5"/>
<path d="M27.1684 49.3566H3.90594C2.06389 49.3566 0.550781 47.8567 0.550781 46.0014V42.3568C0.550781 41.9094 0.919192 41.5542 1.35339 41.5542H11.3268C11.7741 41.5542 12.1294 41.9226 12.1294 42.3568C12.1294 42.791 11.761 43.1595 11.3268 43.1595H2.156V46.0014C2.156 46.9619 2.93229 47.7382 3.89279 47.7382H27.1553C27.6026 47.7382 27.9579 48.1066 27.9579 48.5408C27.9579 48.975 27.6158 49.3566 27.1684 49.3566Z" fill="#004A98" stroke="#004A98" stroke-width="0.5"/>
<path d="M27.1424 43.1594H1.36687C0.919518 43.1594 0.56427 42.7909 0.56427 42.3567V10.9629C0.56427 9.00246 2.16948 7.39722 4.12995 7.39722H27.1819C27.6293 7.39722 27.9845 7.76569 27.9845 8.19989C27.9845 8.63408 27.6161 9.00247 27.1819 9.00247H4.11679C3.03788 9.00247 2.16948 9.87084 2.16948 10.9498V41.541H27.1293C27.5766 41.541 27.9319 41.9094 27.9319 42.3436C27.9319 42.7778 27.5898 43.1594 27.1424 43.1594Z" fill="#004A98" stroke="#004A98" stroke-width="0.5"/>
<path d="M38.1945 58.0013H27.1554C26.708 58.0013 26.3528 57.6329 26.3528 57.1987C26.3528 56.7645 26.7212 56.3961 27.1554 56.3961H36.9972C35.7341 55.4488 34.8788 54.1725 34.6025 52.7778C34.1815 50.6726 34.3657 48.5674 34.3789 48.4885C34.4183 48.0411 34.8131 47.7253 35.2604 47.7648C35.7078 47.8043 36.0367 48.199 35.9972 48.6463C35.9972 48.6595 35.8262 50.6068 36.1946 52.4751C36.4577 53.7646 37.4446 54.9356 38.8919 55.6856C39.4182 55.9487 39.6813 56.5014 39.5498 57.0408C39.405 57.5934 38.8524 58.0013 38.1945 58.0013Z" fill="#004A98" stroke="#004A98" stroke-width="0.5"/>
<path d="M27.1556 46.383C26.6424 46.383 26.2214 45.962 26.2214 45.4489C26.2214 44.9357 26.6424 44.5146 27.1556 44.5146C27.6687 44.5146 28.0897 44.9357 28.0897 45.4489C28.0897 45.962 27.6687 46.383 27.1556 46.383ZM27.1556 44.7646C26.774 44.7646 26.4714 45.0673 26.4714 45.4489C26.4714 45.8304 26.774 46.133 27.1556 46.133C27.5371 46.133 27.8397 45.8304 27.8397 45.4489C27.8397 45.0673 27.5371 44.7646 27.1556 44.7646Z" fill="#004A98"/>
<path d="M50.4043 49.3566H27.1418C26.6945 49.3566 26.3392 48.9882 26.3392 48.554C26.3392 48.1198 26.7076 47.7514 27.1418 47.7514H50.4043C51.3648 47.7514 52.1411 46.9751 52.1411 46.0146V43.1726H42.9703C42.523 43.1726 42.1677 42.8042 42.1677 42.37C42.1677 41.9358 42.5361 41.5674 42.9703 41.5674H52.9437C53.3911 41.5674 53.7463 41.9358 53.7463 42.37V46.0146C53.7595 47.8567 52.2464 49.3566 50.4043 49.3566Z" fill="#004A98" stroke="#004A98" stroke-width="0.5"/>
<path d="M52.9437 43.1594H27.1682C26.7208 43.1594 26.3655 42.7909 26.3655 42.3567C26.3655 41.9225 26.734 41.5541 27.1682 41.5541H52.1279V10.9629C52.1279 9.88403 51.2595 9.01566 50.1806 9.01566H27.1418C26.6945 9.01566 26.3392 8.64727 26.3392 8.21307C26.3392 7.77887 26.7076 7.4104 27.1418 7.4104H50.1938C52.1543 7.4104 53.7595 9.01565 53.7595 10.9761V42.3699C53.7595 42.8041 53.3911 43.1594 52.9437 43.1594Z" fill="#004A98" stroke="#004A98" stroke-width="0.5"/>
<path d="M68.0357 43.1594H55.9176C55.4702 43.1594 55.115 42.7909 55.115 42.3568C55.115 41.9226 55.4834 41.5542 55.9176 41.5542H68.0357C68.9962 41.5542 69.7725 40.7779 69.7725 39.8174V36.1728C69.7725 35.7254 70.1409 35.3701 70.5751 35.3701C71.0224 35.3701 71.3777 35.7386 71.3777 36.1728V39.8174C71.3908 41.6594 69.8909 43.1594 68.0357 43.1594Z" fill="#004A98" stroke="#004A98" stroke-width="0.5"/>
<path d="M70.5881 36.9756H55.9175C55.4701 36.9756 55.1149 36.6072 55.1149 36.173C55.1149 35.7388 55.4833 35.3703 55.9175 35.3703H69.7723V4.77911C69.7723 3.70019 68.9039 2.83182 67.825 2.83182H44.7731C44.3257 2.83182 43.9705 2.46343 43.9705 2.02923C43.9705 1.59503 44.3389 1.22656 44.7731 1.22656H67.825C69.7855 1.22656 71.3907 2.83181 71.3907 4.79228V36.1861C71.3907 36.6071 71.0354 36.9756 70.5881 36.9756Z" fill="#004A98" stroke="#004A98" stroke-width="0.5"/>
<path d="M18.9711 9.00259C18.5238 9.00259 18.1685 8.6342 18.1685 8.2V4.76583C18.1685 2.80536 19.7737 1.2002 21.7342 1.2002H44.7861C45.2335 1.2002 45.5888 1.56859 45.5888 2.00278C45.5888 2.43698 45.2203 2.80537 44.7861 2.80537H21.721C20.6421 2.80537 19.7737 3.67382 19.7737 4.75274V8.18683C19.7737 8.64734 19.4185 9.00259 18.9711 9.00259Z" fill="#004A98" stroke="#004A98" stroke-width="0.5"/>
<path d="M67.3517 29.2782V5.2395H59.523C61.1414 7.18681 62.2598 9.50253 62.7466 11.9761L66.1675 31.9229C66.2728 32.5018 66.7728 32.9229 67.3517 32.9229V29.2782Z" fill="#5EB3E4"/>
<path d="M17.8658 28.015C17.8658 26.765 17.8658 25.5414 17.8658 24.2914C18.3132 24.2914 18.7606 24.2914 19.2079 24.2914C19.7079 24.2914 19.8395 24.1993 19.9579 23.7125C20.2342 22.5546 20.6947 21.4626 21.3131 20.4494C21.5763 20.0152 21.5499 19.8573 21.1815 19.4889C20.8658 19.1862 20.5631 18.8836 20.2605 18.5942C21.1552 17.6995 22.0236 16.8311 22.9052 15.9495C23.1946 16.239 23.4973 16.5548 23.813 16.8705C24.1551 17.2126 24.3262 17.239 24.7341 17.0022C25.7603 16.3706 26.8656 15.91 28.0498 15.6206C28.5103 15.5153 28.6155 15.3574 28.6155 14.8837C28.6155 14.4364 28.6155 14.0022 28.6155 13.5286C29.0629 13.5286 29.4839 13.5286 29.9313 13.5286C29.9313 15.7127 29.9313 17.8969 29.9313 20.1073C28.155 20.3047 26.7208 21.1072 25.6419 22.5283C24.8262 23.6072 24.4314 24.8309 24.4446 26.1861C24.4578 27.7387 24.9972 29.0939 26.0498 30.2386C27.0893 31.3702 28.405 32.0017 29.9444 32.1596C29.9444 34.3569 29.9444 36.541 29.9444 38.7383C29.5102 38.7383 29.0892 38.7383 28.6287 38.7383C28.6287 38.3304 28.6287 37.9226 28.6287 37.5278C28.6287 36.87 28.5629 36.7779 27.9445 36.62C26.8393 36.3568 25.7998 35.9095 24.8262 35.3174C24.3393 35.0279 24.2078 35.041 23.7999 35.4489C23.4973 35.7516 23.2078 36.0542 22.9052 36.3568C22.0236 35.4753 21.1552 34.6068 20.2737 33.7121C20.5631 33.4227 20.8789 33.1201 21.1815 32.8174C21.5763 32.4227 21.6026 32.2911 21.3131 31.8174C20.6947 30.8043 20.2474 29.7123 19.971 28.5544C19.8658 28.1071 19.7211 28.0018 19.2605 28.0018C18.7869 28.015 18.3395 28.015 17.8658 28.015Z" fill="#5EB3E4"/>
<path d="M42.9709 18.3443C42.8262 18.9364 42.5367 19.4365 41.9709 19.7128C41.5104 19.9364 41.0367 19.9891 40.5499 19.7917C40.3657 19.7128 40.2473 19.7391 40.1157 19.8838C39.7078 20.318 39.2736 20.7259 38.8526 21.1601C38.6552 21.3574 38.4447 21.4496 38.1684 21.4496C36.7737 21.4364 35.3658 21.4496 33.9712 21.4496C33.879 21.4496 33.8001 21.4496 33.708 21.4496C33.9975 21.8838 34.3001 22.2916 34.5632 22.7126C34.6948 22.9232 34.8001 23.1732 34.8922 23.41C35.0501 23.7653 34.9448 24.0679 34.629 24.1994C34.3396 24.3179 34.0501 24.1863 33.9054 23.8311C33.4975 22.8179 32.8396 22.0153 31.9054 21.4232C28.866 19.4891 24.8267 21.3574 24.3399 24.9231C23.932 27.8704 26.1293 30.4887 29.1029 30.594C29.616 30.6071 29.8002 30.7914 29.8002 31.3177C29.8002 31.7124 29.8002 32.1071 29.8002 32.4887C29.8002 32.5018 29.8134 32.515 29.8265 32.5676C29.9055 32.5676 30.0107 32.5676 30.1028 32.5676C31.8133 32.5676 33.5238 32.5807 35.2343 32.5676C35.6027 32.5676 35.8264 32.6992 35.9974 33.0282C36.4579 33.8965 36.9447 34.7649 37.4184 35.6333C37.4974 35.778 37.5763 35.8043 37.7342 35.7649C38.7342 35.4885 39.7078 36.028 39.9973 37.0148C40.2736 37.9622 39.7078 38.9358 38.7473 39.2385C38.6684 39.2648 38.6026 39.2911 38.5236 39.3174C38.3394 39.3174 38.1684 39.3174 37.9842 39.3174C37.9447 39.3042 37.9052 39.278 37.8658 39.2648C36.6684 38.9359 36.129 37.8043 36.629 36.6727C36.6684 36.5938 36.6421 36.4491 36.6027 36.3701C36.1553 35.528 35.6948 34.6992 35.2343 33.8571C35.1553 33.6992 35.0632 33.6465 34.879 33.6465C33.2606 33.6597 31.6554 33.6465 30.0371 33.6465C29.9581 33.6465 29.8792 33.6597 29.7871 33.6597C29.7871 33.7781 29.7871 33.8702 29.7871 33.9623C29.7871 35.5017 29.7871 37.0412 29.7871 38.5806C29.7871 38.9227 29.6818 39.1727 29.3529 39.2911C28.4845 39.2911 27.6029 39.2911 26.7345 39.2911C26.4056 39.1596 26.3003 38.9095 26.3135 38.5674C26.3266 38.1332 26.3266 37.7122 26.3135 37.278C26.3135 37.1991 26.2477 37.0807 26.1951 37.0675C25.1425 36.7781 24.1425 36.357 23.182 35.7912C22.8267 36.1465 22.4847 36.5017 22.1426 36.8438C21.7741 37.2122 21.511 37.2122 21.1426 36.8438C20.09 35.7912 19.0505 34.7518 18.0111 33.6992C17.6427 33.3308 17.6427 33.0676 18.0243 32.6992C18.3664 32.3571 18.7085 32.0281 19.0111 31.7387C18.5637 30.6597 18.1295 29.6203 17.6822 28.5414C17.2743 28.5414 16.7875 28.5414 16.3138 28.5414C15.7743 28.5414 15.5901 28.3572 15.577 27.8178C15.577 26.3441 15.577 24.8573 15.577 23.3837C15.577 22.8837 15.7743 22.6864 16.2743 22.6732C16.7085 22.6732 17.1427 22.6732 17.5901 22.66C17.669 22.66 17.7874 22.5942 17.8006 22.5284C18.09 21.4758 18.5111 20.4759 19.0769 19.5285C18.7216 19.1733 18.3664 18.8312 18.0243 18.476C17.669 18.1207 17.669 17.8444 18.0111 17.4891C19.0637 16.4365 20.1163 15.3839 21.1689 14.3313C21.5242 13.9761 21.7873 13.9761 22.1557 14.3313C22.4978 14.6734 22.8399 15.0287 23.1425 15.3313C24.2346 14.8839 25.274 14.4497 26.353 14.0024C26.353 13.5813 26.353 13.0945 26.353 12.5945C26.353 12.0814 26.5503 11.884 27.0635 11.884C27.7608 11.884 28.4582 11.884 29.1555 11.884C29.6292 11.884 29.8265 12.0814 29.8265 12.5551C29.8265 14.1077 29.8265 15.6602 29.8265 17.2128C29.8265 17.3049 29.8265 17.4102 29.8265 17.5286C29.945 17.5286 30.0502 17.5286 30.1423 17.5286C31.7212 17.5286 33.3001 17.5286 34.879 17.5286C35.0895 17.5286 35.1948 17.476 35.3001 17.2917C35.7211 16.4891 36.1685 15.6997 36.6158 14.9102C36.7079 14.7524 36.7211 14.6208 36.6421 14.4498C36.2737 13.6603 36.5369 12.7525 37.2342 12.2393C37.9052 11.7525 38.8263 11.7919 39.4841 12.3577C40.1157 12.8971 40.2867 13.8313 39.8789 14.5681C39.471 15.3181 38.6157 15.6997 37.7868 15.4497C37.5895 15.3971 37.5237 15.4497 37.4316 15.6076C36.9711 16.4629 36.4842 17.3181 36.0237 18.1864C35.8658 18.4891 35.6422 18.6207 35.3001 18.6207C33.5896 18.6075 31.8791 18.6207 30.1686 18.6207C30.0634 18.6207 29.9581 18.6207 29.8397 18.6207C29.8397 18.9496 29.8397 19.2522 29.8397 19.5811C30.0634 19.6206 30.3002 19.6338 30.5107 19.6996C31.037 19.8706 31.5502 20.068 32.0633 20.2522C32.208 20.3048 32.3659 20.3575 32.5238 20.3575C34.3132 20.3706 36.0895 20.3575 37.8789 20.3706C38.0763 20.3706 38.2079 20.318 38.3394 20.1732C38.6947 19.8048 39.0499 19.4496 39.4184 19.0943C39.5236 18.9891 39.5631 18.8969 39.4973 18.7522C39.1157 17.9628 39.5105 16.7391 40.5894 16.3707C41.5893 16.0418 42.6156 16.5944 42.9183 17.6207C42.9446 17.6996 42.9577 17.7654 42.984 17.8443C42.9709 18.0285 42.9709 18.1864 42.9709 18.3443ZM16.669 27.4756C17.1427 27.4756 17.5901 27.4756 18.0374 27.4756C18.4979 27.4756 18.6427 27.581 18.7479 28.0283C19.0242 29.1862 19.4716 30.2782 20.09 31.2914C20.3795 31.765 20.3531 31.9098 19.9584 32.2913C19.6558 32.594 19.34 32.8966 19.0505 33.186C19.9453 34.0807 20.8005 34.936 21.682 35.8307C21.9715 35.5281 22.2741 35.2255 22.5768 34.9228C22.9715 34.5281 23.1162 34.5017 23.603 34.7912C24.5767 35.3833 25.6161 35.8175 26.7214 36.0938C27.3529 36.2517 27.4056 36.3438 27.4056 37.0017C27.4056 37.4095 27.4056 37.8175 27.4056 38.2122C27.8661 38.2122 28.3003 38.2122 28.7213 38.2122C28.7213 36.0149 28.7213 33.8308 28.7213 31.6335C27.1819 31.4756 25.8793 30.844 24.8267 29.7124C23.7741 28.5677 23.2346 27.2125 23.2215 25.6599C23.2083 24.3047 23.603 23.0811 24.4188 22.0022C25.4977 20.5811 26.945 19.7785 28.7082 19.5811C28.7082 17.3707 28.7082 15.1865 28.7082 13.0024C28.2608 13.0024 27.8398 13.0024 27.3924 13.0024C27.3924 13.4629 27.3924 13.9103 27.3924 14.3577C27.3924 14.8313 27.2871 14.9761 26.8266 15.0945C25.6425 15.3839 24.5504 15.8313 23.5109 16.476C23.1162 16.726 22.932 16.6865 22.5899 16.3444C22.2741 16.0287 21.9715 15.7129 21.682 15.4234C20.8005 16.305 19.9321 17.1734 19.0374 18.0681C19.3268 18.3575 19.6426 18.6602 19.9584 18.9628C20.3268 19.3312 20.3531 19.4891 20.09 19.9232C19.4716 20.9364 19.0242 22.0284 18.7348 23.1863C18.6163 23.6731 18.4848 23.7652 17.9848 23.7652C17.5374 23.7652 17.1032 23.7652 16.6427 23.7652C16.669 25.0152 16.669 26.2257 16.669 27.4756ZM39.0105 13.7524C39.0105 13.3445 38.6684 13.0024 38.2737 13.0024C37.8658 13.0024 37.5237 13.3313 37.5237 13.7392C37.5237 14.1471 37.8526 14.4892 38.2605 14.4892C38.6684 14.4892 39.0105 14.1603 39.0105 13.7524ZM38.3 36.7517C37.8921 36.7254 37.5368 37.0543 37.5105 37.4622C37.4842 37.8701 37.8131 38.2253 38.221 38.2516C38.6289 38.278 38.9842 37.9491 39.0105 37.5412C39.0368 37.1333 38.7079 36.7648 38.3 36.7517ZM41.142 18.8443C41.5499 18.8443 41.892 18.5285 41.9051 18.1075C41.9051 17.6996 41.5762 17.3575 41.1683 17.3575C40.7604 17.3575 40.4183 17.6733 40.4183 18.0943C40.392 18.5022 40.721 18.8312 41.142 18.8443Z" fill="#004A98"/>
<path d="M42.9702 33.3702C42.8255 33.9623 42.536 34.4491 41.9702 34.7517C41.3124 35.0938 40.5098 34.9885 39.9308 34.4754C39.3914 34.0017 39.1808 33.1991 39.4572 32.5281C39.5361 32.3439 39.5098 32.2255 39.365 32.0939C38.9835 31.7386 38.6414 31.3571 38.2598 31.0018C38.1809 30.9229 38.0361 30.8571 37.9177 30.8571C36.7993 30.8439 35.6678 30.8571 34.5494 30.8439C34.2073 30.8439 33.9968 30.6992 33.931 30.436C33.8521 30.0676 34.102 29.7782 34.5231 29.7782C35.602 29.7782 36.6809 29.8045 37.7598 29.765C38.3388 29.7387 38.773 29.8966 39.1414 30.3439C39.4572 30.7123 39.8256 31.0545 40.1808 31.3834C40.2466 31.4492 40.3913 31.4755 40.4703 31.4492C41.4834 31.0281 42.6939 31.6334 42.9307 32.7649C42.9439 32.8044 42.957 32.8439 42.9702 32.8834C42.9702 33.0544 42.9702 33.2123 42.9702 33.3702ZM41.1413 32.3965C40.7334 32.3965 40.4045 32.7386 40.4045 33.1465C40.4045 33.5544 40.7466 33.8833 41.1676 33.8833C41.5755 33.8833 41.9044 33.5412 41.9044 33.1333C41.8913 32.7123 41.5492 32.3965 41.1413 32.3965Z" fill="#004A98"/>
<path d="M42.9704 25.8836C42.8257 26.4494 42.5494 26.9362 42.0099 27.2257C41.0889 27.7125 39.931 27.331 39.51 26.3836C39.431 26.1994 39.3389 26.1599 39.1547 26.1599C38.7337 26.1731 38.3126 26.1731 37.9048 26.1599C37.5495 26.1599 37.3127 25.9363 37.3127 25.6337C37.3127 25.331 37.5364 25.0941 37.8916 25.0941C38.339 25.081 38.7863 25.0941 39.2205 25.081C39.3126 25.081 39.4442 25.0021 39.4705 24.9363C39.8258 24.1994 40.51 23.7521 41.2205 23.8179C42.0757 23.8837 42.6809 24.3968 42.9178 25.2389C42.9309 25.2783 42.9441 25.3178 42.9704 25.3573C42.9704 25.5284 42.9704 25.7126 42.9704 25.8836ZM41.8915 25.6337C41.8915 25.2258 41.5494 24.8837 41.1415 24.8837C40.7336 24.8837 40.3915 25.2258 40.3915 25.6337C40.3915 26.0415 40.7205 26.3836 41.1415 26.3836C41.5626 26.3705 41.8915 26.0415 41.8915 25.6337Z" fill="#004A98"/>
<path d="M29.2602 29.6862C27.076 29.6862 25.2603 27.9231 25.2077 25.7521C25.155 23.5153 26.8524 21.6733 29.0891 21.568C29.5102 21.5417 29.7865 21.7391 29.7996 22.0812C29.8128 22.397 29.5628 22.6075 29.1549 22.6338C27.655 22.7259 26.484 23.7917 26.2866 25.2916C26.1024 26.66 26.9708 28.0152 28.326 28.4757C30.1812 29.1073 32.1417 27.7784 32.2469 25.7916C32.2732 25.2785 32.5627 25.0942 32.8259 25.1074C33.1811 25.1205 33.3522 25.41 33.3258 25.8837C33.168 28.0284 31.418 29.6862 29.2602 29.6862Z" fill="#004A98"/>
<path d="M34.7995 26.1467C34.5101 26.1599 34.2601 25.9099 34.2601 25.6073C34.2601 25.3178 34.4838 25.081 34.7732 25.0679C35.0758 25.0679 35.3127 25.3047 35.3127 25.6073C35.3127 25.8968 35.0758 26.1467 34.7995 26.1467Z" fill="#004A98"/>
<path d="M32.2208 30.8573C31.9314 30.8441 31.7077 30.6073 31.7077 30.3179C31.7209 30.0284 31.9709 29.7916 32.2472 29.8047C32.5366 29.8179 32.7603 30.0547 32.7603 30.3441C32.7603 30.6336 32.5103 30.8705 32.2208 30.8573Z" fill="#004A98"/>
<path d="M20.879 25.2917C20.9579 22.0813 23.1289 18.9761 26.1156 17.8314C26.4577 17.6998 26.7604 17.805 26.8788 18.0945C26.9972 18.384 26.8788 18.6735 26.5235 18.8182C25.563 19.2261 24.6946 19.7787 23.9841 20.5419C22.7078 21.8839 22.05 23.4759 21.9579 25.3311C21.9579 25.4627 21.9447 25.5943 21.9184 25.7259C21.8658 25.9891 21.6289 26.16 21.3789 26.1469C21.1158 26.1337 20.9053 25.9233 20.879 25.647C20.8658 25.5286 20.879 25.4101 20.879 25.2917Z" fill="#004A98"/>
</svg>
