<svg width="81" height="71" viewBox="0 0 81 71" fill="none" xmlns="http://www.w3.org/2000/svg">
<path d="M55.4862 68.8796H25.9298C24.0738 68.8796 22.5527 67.3725 22.5527 65.5025C22.5527 63.6465 24.0599 62.1255 25.9298 62.1255H55.4862C57.3422 62.1255 58.8632 63.6326 58.8632 65.5025C58.8632 67.3725 57.3422 68.8796 55.4862 68.8796Z" fill="#5EB3E4"/>
<path d="M58.7356 22.2427H22.6624C21.1134 22.2427 19.8574 23.4986 19.8574 25.0476H61.5405C61.5405 23.4986 60.2846 22.2427 58.7356 22.2427Z" fill="#5EB3E4"/>
<path d="M76.111 31.7876H66.4961V34.746H76.111V31.7876Z" fill="#5EB3E4"/>
<path d="M15.1539 31.7876H5.53906V44.4307H15.1539V31.7876Z" fill="#5EB3E4"/>
<path d="M27.7689 31.7876V46.3983C27.7689 47.6403 26.7641 48.645 25.5221 48.645C24.2801 48.645 23.2754 47.6403 23.2754 46.3983V31.7876" fill="#5EB3E4"/>
<path d="M42.9544 31.7876V49.7753C42.9544 51.0173 41.9496 52.0221 40.7077 52.0221C39.4657 52.0221 38.4609 51.0173 38.4609 49.7753V31.7876" fill="#5EB3E4"/>
<path d="M58.1204 31.7876V53.1385C58.1204 54.3805 57.1157 55.3852 55.8737 55.3852C54.6317 55.3852 53.627 54.3805 53.627 53.1385V31.7876" fill="#5EB3E4"/>
<path d="M40.7062 19.9818C42.4403 19.9818 43.8461 18.5761 43.8461 16.842C43.8461 15.1079 42.4403 13.7021 40.7062 13.7021C38.9722 13.7021 37.5664 15.1079 37.5664 16.842C37.5664 18.5761 38.9722 19.9818 40.7062 19.9818Z" fill="#5EB3E4"/>
<path d="M1.92552 19.5213C1.45105 19.5213 1.00449 19.2422 0.809124 18.7817C0.543982 18.1677 0.823075 17.4421 1.43709 17.1769L40.2176 0.319505C40.5246 0.179957 40.8735 0.179957 41.1944 0.319505L79.9749 17.1769C80.5889 17.4421 80.882 18.1677 80.6029 18.7817C80.3238 19.3957 79.6121 19.6888 78.9981 19.4097L40.706 2.7616L2.41392 19.4097C2.24646 19.4795 2.07902 19.5213 1.92552 19.5213Z" fill="#004C95"/>
<path d="M77.7964 26.2616H3.6125C2.94267 26.2616 2.39844 25.7174 2.39844 25.0476C2.39844 24.3777 2.94267 23.8335 3.6125 23.8335H77.7964C78.4663 23.8335 79.0105 24.3777 79.0105 25.0476C79.0105 25.7174 78.4663 26.2616 77.7964 26.2616Z" fill="#004C95"/>
<path d="M5.29026 65.0422C4.62043 65.0422 4.07617 64.498 4.07617 63.8281V31.7879C4.07617 31.118 4.62043 30.5737 5.29026 30.5737H15.4075C16.0773 30.5737 16.6216 31.118 16.6216 31.7879V57.074C16.6216 57.7439 16.0773 58.2881 15.4075 58.2881C14.7377 58.2881 14.1934 57.7439 14.1934 57.074V33.0019H6.51827V63.8142C6.51827 64.498 5.97404 65.0422 5.29026 65.0422Z" fill="#004C95"/>
<path d="M69.3706 63.3535H12.0441C11.3743 63.3535 10.8301 62.8093 10.8301 62.1394C10.8301 61.4696 11.3743 60.9253 12.0441 60.9253H69.3706C70.0405 60.9253 70.5847 61.4696 70.5847 62.1394C70.5847 62.8093 70.0405 63.3535 69.3706 63.3535Z" fill="#004C95"/>
<path d="M77.7964 70.0937H3.6125C2.94267 70.0937 2.39844 69.5494 2.39844 68.8796C2.39844 68.2098 2.94267 67.6655 3.6125 67.6655H77.7964C78.4663 67.6655 79.0105 68.2098 79.0105 68.8796C79.0105 69.5494 78.4663 70.0937 77.7964 70.0937Z" fill="#004C95"/>
<path d="M40.7055 21.1961C37.2447 21.1961 34.4258 18.3772 34.4258 14.9164C34.4258 11.4556 37.2447 8.63672 40.7055 8.63672C44.1663 8.63672 46.9851 11.4556 46.9851 14.9164C46.9851 18.3912 44.1663 21.1961 40.7055 21.1961ZM40.7055 11.0788C38.5843 11.0788 36.8679 12.7953 36.8679 14.9164C36.8679 17.0375 38.5843 18.754 40.7055 18.754C42.8266 18.754 44.543 17.0375 44.543 14.9164C44.543 12.8092 42.8126 11.0788 40.7055 11.0788Z" fill="#004C95"/>
<path d="M10.3556 41.4301H5.30391C4.63408 41.4301 4.08984 40.8858 4.08984 40.216C4.08984 39.5462 4.63408 39.002 5.30391 39.002H10.3556C11.0254 39.002 11.5696 39.5462 11.5696 40.216C11.5696 40.8858 11.0254 41.4301 10.3556 41.4301Z" fill="#004C95"/>
<path d="M10.3556 49.8588H5.30391C4.63408 49.8588 4.08984 49.3146 4.08984 48.6447C4.08984 47.9749 4.63408 47.4307 5.30391 47.4307H10.3556C11.0254 47.4307 11.5696 47.9749 11.5696 48.6447C11.5696 49.3146 11.0254 49.8588 10.3556 49.8588Z" fill="#004C95"/>
<path d="M10.3556 58.288H5.30391C4.63408 58.288 4.08984 57.7438 4.08984 57.0739C4.08984 56.4041 4.63408 55.8599 5.30391 55.8599H10.3556C11.0254 55.8599 11.5696 56.4041 11.5696 57.0739C11.5696 57.7438 11.0254 58.288 10.3556 58.288Z" fill="#004C95"/>
<path d="M76.1084 65.0419C75.4386 65.0419 74.8943 64.4977 74.8943 63.8278V33.0155H67.2191V57.0876C67.2191 57.7575 66.6749 58.3018 66.0051 58.3018C65.3352 58.3018 64.791 57.7575 64.791 57.0876V31.8015C64.791 31.1316 65.3352 30.5874 66.0051 30.5874H76.1223C76.7922 30.5874 77.3364 31.1316 77.3364 31.8015V63.8418C77.3224 64.4977 76.7782 65.0419 76.1084 65.0419Z" fill="#004C95"/>
<path d="M76.1095 41.4301H71.0578C70.388 41.4301 69.8438 40.8858 69.8438 40.216C69.8438 39.5462 70.388 39.002 71.0578 39.002H76.1095C76.7793 39.002 77.3235 39.5462 77.3235 40.216C77.3235 40.8858 76.7793 41.4301 76.1095 41.4301Z" fill="#004C95"/>
<path d="M76.1095 49.8588H71.0578C70.388 49.8588 69.8438 49.3146 69.8438 48.6447C69.8438 47.9749 70.388 47.4307 71.0578 47.4307H76.1095C76.7793 47.4307 77.3235 47.9749 77.3235 48.6447C77.3235 49.3146 76.7793 49.8588 76.1095 49.8588Z" fill="#004C95"/>
<path d="M76.1095 58.288H71.0578C70.388 58.288 69.8438 57.7438 69.8438 57.0739C69.8438 56.4041 70.388 55.8599 71.0578 55.8599H76.1095C76.7793 55.8599 77.3235 56.4041 77.3235 57.0739C77.3235 57.7438 76.7793 58.288 76.1095 58.288Z" fill="#004C95"/>
<path d="M28.9012 58.2883C28.2314 58.2883 27.6872 57.7441 27.6872 57.0743V35.1512C27.6872 33.965 26.7243 33.0022 25.5381 33.0022C24.352 33.0022 23.3891 33.965 23.3891 35.1512V57.0743C23.3891 57.7441 22.8448 58.2883 22.175 58.2883C21.5052 58.2883 20.9609 57.7441 20.9609 57.0743V35.1512C20.9609 32.6253 23.0262 30.5601 25.5521 30.5601C28.0779 30.5601 30.1432 32.6253 30.1432 35.1512V57.0743C30.1153 57.7441 29.5711 58.2883 28.9012 58.2883Z" fill="#004C95"/>
<path d="M44.0692 58.2883C43.3994 58.2883 42.8551 57.7441 42.8551 57.0743V35.1512C42.8551 33.965 41.8923 33.0022 40.7061 33.0022C39.5199 33.0022 38.5571 33.965 38.5571 35.1512V57.0743C38.5571 57.7441 38.0128 58.2883 37.343 58.2883C36.6732 58.2883 36.1289 57.7441 36.1289 57.0743V35.1512C36.1289 32.6253 38.1942 30.5601 40.7201 30.5601C43.2459 30.5601 45.3112 32.6253 45.3112 35.1512V57.0743C45.2972 57.7441 44.753 58.2883 44.0692 58.2883Z" fill="#004C95"/>
<path d="M59.2509 58.2883C58.581 58.2883 58.0368 57.7441 58.0368 57.0743V35.1512C58.0368 33.965 57.0739 33.0022 55.8877 33.0022C54.7016 33.0022 53.7387 33.965 53.7387 35.1512V57.0743C53.7387 57.7441 53.1944 58.2883 52.5246 58.2883C51.8548 58.2883 51.3105 57.7441 51.3105 57.0743V35.1512C51.3105 32.6253 53.3759 30.5601 55.9017 30.5601C58.4275 30.5601 60.4928 32.6253 60.4928 35.1512V57.0743C60.4649 57.7441 59.9207 58.2883 59.2509 58.2883Z" fill="#004C95"/>
</svg>
